<?xml version="1.0" encoding="UTF-8"?>
<svg width="21px" height="20px" viewBox="0 0 21 20" version="1.1" xmlns="http://www.w3.org/2000/svg" xmlns:xlink="http://www.w3.org/1999/xlink">
    <!-- Generator: Sketch 49.1 (51147) - http://www.bohemiancoding.com/sketch -->
    <title>eye-blocked</title>
    <desc>Created with Sketch.</desc>
    <defs></defs>
    <g id="Page-1" stroke="none" stroke-width="1" fill="none" fill-rule="evenodd">
        <g id="login" transform="translate(-508.000000, -550.000000)" fill="#42B3E5" fill-rule="nonzero">
            <g id="eye-blocked" transform="translate(508.000000, 550.000000)">
                <path d="M17.2126487,6.17532 C18.8049294,7.3218 20.1118209,8.86472 21,10.66664 C19.0492505,14.62412 15.0796723,17.33332 10.5000197,17.33332 C9.21691057,17.33332 7.98183881,17.12056 6.82547742,16.7274 L8.42417617,15.10332 C9.10213281,15.2554 9.79761126,15.33332 10.5000197,15.33332 C12.3367002,15.33332 14.126879,14.80236 15.6771073,13.79784 C16.9108797,12.99832 17.9564401,11.9274 18.7417327,10.6666 C17.9818763,9.44648 16.9776988,8.40516 15.7958225,7.61464 L17.2126487,6.17532 Z M10.5000197,14.54164 C10.034018,14.54164 9.58227006,14.47964 9.15209952,14.36384 L15.574772,7.8392 C15.6888803,8.27612 15.7499902,8.73492 15.7499902,9.20832 C15.7499902,12.1538 13.3994675,14.54164 10.5000197,14.54164 Z M19.6874779,0 L18.5854538,0 L14.0816766,4.57524 C12.9521689,4.20184 11.7488333,4 10.4999803,4 C5.92020962,4 1.95067078,6.7092 0,10.66668 C0.874831016,12.44152 2.15593201,13.9648 3.71588589,15.10564 L3.9374877e-05,18.88044 L0,20 L1.10210281,20 L19.6874779,1.11952 L19.6874779,0 Z M8.53127584,6.54164 C9.51655339,6.54164 10.3327946,7.27692 10.4773004,8.23684 L8.23123928,10.5186 C7.28636036,10.37172 6.56257137,9.54256 6.56257137,8.54164 C6.56253199,7.43708 7.44393861,6.54164 8.53127584,6.54164 Z M2.25826732,10.66664 C3.04355986,9.40576 4.08908097,8.33492 5.32281399,7.53548 C5.40317812,7.4834 5.48432974,7.43296 5.56599323,7.3834 C5.36175574,7.95272 5.25000984,8.5672 5.25000984,9.20832 C5.25000984,10.42752 5.65301171,11.551 6.33073209,12.4492 L5.12999522,13.669 C3.98009131,12.88476 3.00225562,11.86124 2.25826732,10.66664 Z" id="Shape"></path>
            </g>
        </g>
    </g>
</svg>