<?xml version="1.0" encoding="UTF-8"?>
<svg width="21px" height="13px" viewBox="0 0 21 13" version="1.1" xmlns="http://www.w3.org/2000/svg" xmlns:xlink="http://www.w3.org/1999/xlink">
    <!-- Generator: Sketch 49.1 (51147) - http://www.bohemiancoding.com/sketch -->
    <title>eye (1)</title>
    <desc>Created with Sketch.</desc>
    <defs></defs>
    <g id="Page-1" stroke="none" stroke-width="1" fill="none" fill-rule="evenodd">
        <g id="login" transform="translate(-475.000000, -555.000000)" fill="#42B3E5" fill-rule="nonzero">
            <g id="eye-(1)" transform="translate(475.000000, 555.000000)">
                <path d="M10.5,0 C5.92023633,0 1.95066211,2.64147812 0,6.5 C1.95066211,10.3585219 5.92023633,13 10.5,13 C15.0796406,13 19.0492559,10.3585219 21,6.5 C19.0493379,2.64147812 15.0796406,0 10.5,0 Z M15.6771973,3.4471125 C16.9110293,4.22658437 17.9565176,5.27064687 18.7418437,6.5 C17.9565586,7.72935312 16.9109473,8.77341562 15.6771973,9.5528875 C14.1269297,10.5323156 12.3366387,11.05 10.5,11.05 C8.66332031,11.05 6.87307031,10.5323156 5.32280273,9.5528875 C4.08905273,8.773375 3.04356445,7.7293125 2.25823828,6.5 C3.04352344,5.27060625 4.08905273,4.22654375 5.32280273,3.4471125 C5.40315234,3.39633125 5.48432227,3.34713437 5.56598437,3.29883125 C5.36176758,3.85393125 5.25,4.45302812 5.25,5.078125 C5.25,7.94994687 7.60052344,10.278125 10.5,10.278125 C13.3994355,10.278125 15.75,7.94994687 15.75,5.078125 C15.75,4.45302812 15.6382324,3.85393125 15.4340566,3.29879062 C15.5155957,3.34709375 15.5968477,3.39633125 15.6771973,3.4471125 Z M10.5,4.428125 C10.5,5.50509375 9.61857422,6.378125 8.53125,6.378125 C7.44392578,6.378125 6.5625,5.50509375 6.5625,4.428125 C6.5625,3.35115625 7.44392578,2.478125 8.53125,2.478125 C9.61857422,2.478125 10.5,3.35115625 10.5,4.428125 Z" id="Shape"></path>
            </g>
        </g>
    </g>
</svg>