<?xml version="1.0" encoding="UTF-8"?>
<svg width="18px" height="18px" viewBox="0 0 18 18" version="1.1" xmlns="http://www.w3.org/2000/svg" xmlns:xlink="http://www.w3.org/1999/xlink">
    <!-- Generator: Sketch 49.1 (51147) - http://www.bohemiancoding.com/sketch -->
    <title>checked-symbol</title>
    <desc>Created with Sketch.</desc>
    <defs></defs>
    <g id="Page-1" stroke="none" stroke-width="1" fill="none" fill-rule="evenodd">
        <g id="Temas" transform="translate(-201.000000, -328.000000)" fill="#F9F7FA" fill-rule="nonzero">
            <g id="checked-symbol" transform="translate(201.000000, 328.000000)">
                <path d="M16.7932876,4.48232976 C15.9884569,3.10351763 14.8967555,2.0118212 13.5178961,1.20703526 C12.1387903,0.402290358 10.6333038,0 9.00028732,0 C7.36743499,0 5.86149699,0.402290358 4.48263753,1.20703526 C3.10369597,2.01169807 2.01199456,3.10339449 1.2071639,4.48232976 C0.402292193,5.86134712 0,7.36727825 0,9 C0,10.6328038 0.402415331,12.1384887 1.20704076,13.5175881 C2.01183038,14.8964003 3.10353178,15.9880967 4.48247334,16.7929647 C5.86149699,17.5976686 7.36731185,18 9.00012314,18 C10.6329344,18 12.1389135,17.5976686 13.517855,16.7929647 C14.8967145,15.988384 15.9883749,14.8964003 16.7931234,13.5175881 C17.5977489,12.1386118 18,10.6327218 18,9 C18.000041,7.36711407 17.5977489,5.8611419 16.7932876,4.48232976 Z M14.8358843,7.62890449 L8.47272263,13.9920782 C8.32425912,14.1406641 8.14468271,14.214875 7.933624,14.214875 C7.73052822,14.214875 7.55481014,14.1406641 7.40630558,13.9920782 L3.16395155,9.74998974 C3.02349201,9.60924353 2.95309806,9.43381357 2.95309806,9.22267373 C2.95309806,9.00398145 3.02324574,8.82415959 3.16395155,8.68349546 L4.23036859,7.62890449 C4.37899629,7.4804827 4.55455018,7.40627181 4.75781015,7.40627181 C4.96107012,7.40627181 5.13687029,7.48052375 5.2852517,7.62890449 L7.93374714,10.2773058 L12.7149946,5.50781923 C12.8634581,5.3593564 13.0391762,5.28510446 13.242313,5.28510446 C13.4452856,5.28510446 13.621291,5.3593564 13.7696314,5.50781923 L14.8360485,6.5625744 C14.9769184,6.70311538 15.0470251,6.88277306 15.0470251,7.10146534 C15.0470251,7.31248204 14.9769184,7.48828141 14.8358843,7.62890449 Z" id="Shape"></path>
            </g>
        </g>
    </g>
</svg>