<?xml version="1.0" encoding="UTF-8"?>
<svg width="420px" height="420px" viewBox="0 0 420 420" version="1.1" xmlns="http://www.w3.org/2000/svg" xmlns:xlink="http://www.w3.org/1999/xlink">
    <!-- Generator: Sketch 49.1 (51147) - http://www.bohemiancoding.com/sketch -->
    <title>Group</title>
    <desc>Created with Sketch.</desc>
    <defs></defs>
    <g id="Page-1" stroke="none" stroke-width="1" fill="none" fill-rule="evenodd">
        <g id="info" transform="translate(-155.000000, -272.000000)">
            <g id="Group" transform="translate(155.000000, 272.000000)">
                <g id="Group-2" fill="#42B3E5">
                    <circle id="Oval-8" cx="210" cy="210" r="210"></circle>
                </g>
                <g id="info" transform="translate(105.000000, 81.000000)" fill-rule="nonzero">
                    <path d="M189.164945,0 L57.6011972,0 C57.5439691,0 57.4887143,0.00592018669 57.4314862,0.00789354858 C57.3742576,0.00986691046 57.3170295,0.0138137353 57.2598014,0.017760459 C57.0466756,0.0315741943 56.8335498,0.05525484 56.624371,0.0966958438 C56.6204239,0.0966958438 56.6164769,0.0966958438 56.6125304,0.0986691046 C56.3994046,0.140110614 56.1921991,0.201285741 55.9869668,0.270353912 C55.9336852,0.28811427 55.8804036,0.307848395 55.8290958,0.327582519 C55.6357036,0.398623951 55.4442852,0.481506463 55.2607603,0.576229046 C55.2489198,0.582149334 55.2390529,0.586095856 55.2272124,0.592016143 C55.0338207,0.694632275 54.8502958,0.815008764 54.6726907,0.941305542 C54.6273027,0.974853502 54.5838884,1.0064277 54.5385004,1.03997515 C54.3608958,1.17613874 54.189211,1.32019587 54.0293668,1.48004061 L1.48004061,54.027393 C1.32019587,54.1872377 1.178112,54.358922 1.04194841,54.5365271 C1.00840096,54.5819152 0.974853502,54.6273027 0.941305542,54.6726907 C0.815008764,54.8522691 0.696605536,55.0338207 0.593989404,55.2272124 C0.586095856,55.2390529 0.582149334,55.2508935 0.576229046,55.2627336 C0.479533202,55.4462585 0.398623951,55.6357036 0.327582519,55.8290958 C0.307848395,55.8804036 0.28811427,55.9336852 0.270353912,55.9869668 C0.201285741,56.1921991 0.140110614,56.3994046 0.0986691046,56.6125304 C0.0966958438,56.6164769 0.0966958438,56.6204239 0.0966958438,56.624371 C0.05525484,56.8335498 0.0315741943,57.0447023 0.017760459,57.2598014 C0.0138137353,57.3170295 0.00986691046,57.3742576 0.00789354858,57.4314862 C0.00592018669,57.486741 0,57.5439691 0,57.6011972 L0,253.603929 C0,256.394298 2.26150141,258.6558 5.05187109,258.6558 L189.162971,258.6558 C191.953341,258.6558 194.214842,256.394298 194.214842,253.603929 L194.214842,5.05187109 C194.216816,2.26150141 191.955314,0 189.164945,0 Z M52.5493261,17.2493769 L52.5493261,52.5493261 L17.2493769,52.5493261 L52.5493261,17.2493769 Z M184.113074,248.552058 L92.871546,248.552058 L92.871546,228.654395 L114.691288,228.654395 C117.481657,228.654395 119.743159,226.392893 119.743159,223.602524 L119.743159,204.300824 C119.743159,201.510455 117.481657,199.248953 114.691288,199.248953 C111.900918,199.248953 109.639416,201.510455 109.639416,204.300824 L109.639416,218.550653 L87.819675,218.550653 C85.0293053,218.550653 82.7678039,220.814128 82.7678039,223.602524 L82.7678039,248.552058 L10.1037422,248.552058 L10.1037422,62.6530683 L57.6011972,62.6530683 C60.3915669,62.6530683 62.6530683,60.3895931 62.6530683,57.6011972 L62.6530683,10.1037422 L184.113074,10.1037422 L184.113074,218.550653 L167.345203,218.550653 L167.345203,114.582751 C167.345203,111.792381 165.083702,109.53088 162.293332,109.53088 L87.819675,109.53088 C85.0293053,109.53088 82.7678039,111.792381 82.7678039,114.582751 L82.7678039,144.582182 C82.7678039,147.372552 85.0293053,149.634053 87.819675,149.634053 L109.639416,149.634053 L109.639416,163.885856 C109.639416,166.674251 111.900918,168.937727 114.691288,168.937727 C117.481657,168.937727 119.743159,166.674251 119.743159,163.885856 L119.743159,144.582182 C119.743159,141.793786 117.481657,139.530311 114.691288,139.530311 L92.871546,139.530311 L92.871546,119.634622 L157.241461,119.634622 L157.241461,223.602524 C157.241461,226.392893 159.502963,228.654395 162.293332,228.654395 L184.113074,228.654395 L184.113074,248.552058 Z" id="Shape" fill="#F5F8FA"></path>
                    <path d="M125.986328,90.9706736 C141.969351,90.9706736 154.972656,77.9673682 154.972656,61.9843451 C154.972656,46.0013225 141.969351,33 125.986328,33 C110.003305,33 97,46.0013225 97,61.9843451 C97,77.9673682 110.003305,90.9706736 125.986328,90.9706736 Z M125.986328,43.1484856 C136.372716,43.1484856 144.822187,51.5979579 144.822187,61.9843451 C144.822187,72.3687504 136.372716,80.8182227 125.986328,80.8182227 C115.59994,80.8182227 107.150469,72.3687504 107.150469,61.9843451 C107.150469,51.5979579 115.59994,43.1484856 125.986328,43.1484856 Z" id="Shape" fill="#F5F8FA"></path>
                    <path d="M96.80457,178.713569 C94.0220938,178.713569 91.7526989,180.982964 91.7526989,183.76544 C91.7526989,186.547916 94.0220938,188.817311 96.80457,188.817311 C99.5870456,188.817311 101.858414,186.547916 101.858414,183.76544 C101.858414,180.982964 99.5870456,178.713569 96.80457,178.713569 Z" id="Shape" fill="#F9F7FA"></path>
                </g>
            </g>
        </g>
    </g>
</svg>