<?xml version="1.0" encoding="UTF-8"?>
<svg width="374px" height="872px" viewBox="0 0 374 872" version="1.1" xmlns="http://www.w3.org/2000/svg" xmlns:xlink="http://www.w3.org/1999/xlink">
    <!-- Generator: Sketch 49.1 (51147) - http://www.bohemiancoding.com/sketch -->
    <title>il-datos</title>
    <desc>Created with Sketch.</desc>
    <defs></defs>
    <g id="Page-1" stroke="none" stroke-width="1" fill="none" fill-rule="evenodd">
        <g id="Mis-datos" transform="translate(-14.000000, -511.000000)" fill="#FFBE54">
            <g id="il-datos" transform="translate(-19.000000, 456.000000)">
                <g id="star" transform="translate(171.509678, 171.324598) rotate(51.000000) translate(-171.509678, -171.324598) translate(47.509678, 52.324598)" fill-rule="nonzero">
                    <path d="M242.276039,107.745713 C247.150739,102.985503 248.871513,95.9992244 246.768896,89.5048669 C244.66132,83.0105095 239.171703,78.3745221 232.427458,77.3906791 L172.46319,68.6603149 C169.909303,68.2876471 167.702547,66.6826911 166.561976,64.3622129 L139.753604,9.91793229 C136.743489,3.80121153 130.633996,0 123.825285,0 C117.021532,0 110.91204,3.80121153 107.901925,9.91793229 L81.0885938,64.3622129 C79.9480231,66.6826911 77.7363076,68.2876471 75.1824208,68.6603149 L15.2181522,77.395648 C8.47886665,78.3745221 2.98924993,83.0105095 0.881673499,89.5048669 C-1.22094393,95.9992244 0.49983024,102.985503 5.37453054,107.745713 L48.7608509,150.120526 C50.6105592,151.929207 51.4585488,154.532913 51.0221565,157.076992 L40.7818145,216.917502 C39.6313257,223.640429 42.3339826,230.303729 47.8434353,234.318604 C53.347929,238.338447 60.5136889,238.860182 66.548796,235.675115 L120.175458,207.421927 C122.461559,206.219452 125.189011,206.219452 127.475111,207.421927 L181.106733,235.675115 C183.725086,237.05647 186.561636,237.73721 189.383309,237.73721 C193.048013,237.73721 196.697839,236.589393 199.812093,234.318604 C205.321546,230.303729 208.024203,223.640429 206.873714,216.917502 L196.628413,157.081961 C196.192021,154.532913 197.04001,151.934176 198.889719,150.125495 L242.276039,107.745713 Z M186.867014,158.773589 L197.108051,218.626791 C197.623822,221.638836 196.458377,224.51668 193.988626,226.315954 C191.513916,228.110258 188.434166,228.328954 185.731326,226.917369 L132.096068,198.650872 C129.512252,197.293961 126.665591,196.60805 123.828849,196.60805 C120.992107,196.60805 118.150405,197.293961 115.56163,198.655842 L61.9362911,226.917369 C59.2235324,228.328954 56.1437825,228.110258 53.6740314,226.315954 C51.2042803,224.51668 50.0437948,221.643806 50.5546068,218.626791 L60.795643,158.773589 C61.7825516,152.998019 59.8732059,147.10316 55.6875233,143.017515 L12.293302,100.625225 C10.1062332,98.4879657 9.36233226,95.4759212 10.3095661,92.5682545 C11.2518406,89.6556174 13.6174456,87.6575284 16.6376834,87.2151655 L76.6010583,78.4822245 C82.3886075,77.6422319 87.3925812,74.0039207 89.9763971,68.7452687 L116.791546,14.2849192 C118.140487,11.5412747 120.773896,9.90602278 123.82389,9.90602278 C126.878843,9.90602278 129.507293,11.5412747 130.861193,14.2849192 L157.676342,68.7452687 C160.260158,74.0039207 165.259172,77.6422319 171.046721,78.4822245 L231.015055,87.2151655 C234.035293,87.6575284 236.400898,89.6556174 237.343173,92.5682545 C238.285447,95.4759212 237.546506,98.4879657 235.359437,100.625225 L191.970175,143.012545 C187.784492,147.10316 185.875147,152.993049 186.867014,158.773589 Z" id="Shape"></path>
                </g>
                <g id="startup" opacity="0.798233696" transform="translate(273.000000, 263.000000)" fill-rule="nonzero">
                    <path d="M54.415,48.5865733 C53.633,47.8044756 52.367,47.8044756 51.585,48.5865733 C50.805,49.3666708 50.805,50.6328291 51.585,51.4149269 C52.367,52.1950244 53.633,52.1950244 54.415,51.4149269 C55.195,50.6328291 55.195,49.3666708 54.415,48.5865733 Z" id="Shape"></path>
                    <path d="M79.0685529,22.931383 C75.1599569,19.0229723 68.832592,19.0227723 64.9237959,22.931383 C61.0254014,26.8297921 61.0252013,33.1747835 64.924396,37.0763932 C68.8241907,40.9738021 75.1691583,40.9754024 79.0685529,37.0759931 C82.9767489,33.1677825 82.9775491,26.8401938 79.0685529,22.931383 Z M76.2397216,34.2469511 C73.9007649,36.5861166 70.0933842,36.5861166 67.7532274,34.2473511 C65.4138706,31.9065854 65.4136706,28.0991905 67.7528273,25.760225 C70.0977849,23.4152586 73.8943639,23.4148586 76.2397216,25.760225 C78.5846792,28.1049914 78.5850792,31.9017846 76.2397216,34.2469511 Z" id="Shape"></path>
                    <path d="M102.415682,0.584437936 C102.023808,0.192763889 101.489071,-0.0195342189 100.933185,0.0014162523 C100.482051,0.0175780443 89.7404291,0.449357279 76.9715972,4.96248782 C66.7397712,8.57514717 58.2113208,13.7475192 51.6230863,20.3359436 C50.1467743,21.8122534 48.7101685,23.3777525 47.335616,25.0041076 C40.8214067,21.1695728 35.6013398,22.3719303 32.3013365,24.1379553 C24.7030883,28.204342 20,39.2454398 20,47.1427698 C20.0005986,47.9496622 20.4868498,48.6773419 21.2322886,48.9860122 C21.4791054,49.0883702 21.7384926,49.1380527 21.9954854,49.1380527 C22.5148583,49.1380527 23.0250529,48.9351325 23.4067511,48.5536344 C27.4138837,44.5465076 32.3564064,44.7971151 33.9709917,45.0094132 L34.6697408,45.7081613 C33.2945898,48.9804254 32.1868071,52.2343329 31.3743267,55.3990512 C31.0810196,56.5443436 31.1799858,57.7562785 31.6159558,58.8648577 C29.6948945,59.7501647 27.8414735,61.0500916 26.2276863,62.6638765 C21.0916209,67.8001339 20.048685,80.317342 20.006784,80.8476883 C19.9608924,81.4297123 20.1719936,82.0027576 20.5848183,82.4155816 C20.9605306,82.7910939 21.4687299,83 21.9954854,83 C22.0477619,83 22.1002379,82.9980047 22.1527139,82.9938146 C22.6830609,82.9521132 35.2006864,81.9091788 40.3367518,76.7731209 C41.9499404,75.1599346 43.2496696,73.3067158 44.134978,71.3860564 C45.3086051,71.8475654 46.5165512,71.9044309 47.6027848,71.626089 C50.766111,70.8138093 54.0196242,69.7064272 57.2922921,68.3310787 L57.9910412,69.0298268 C58.2031401,70.6446093 58.453748,75.5871247 54.4468149,79.5938524 C53.8763627,80.1645034 53.7055662,81.0226746 54.0144365,81.7681123 C54.3231072,82.5137495 55.0505884,82.9998005 55.8576815,82.9998005 C63.755023,82.9998005 74.7959374,78.296719 78.8623301,70.6984819 C80.6283576,67.3988825 81.8307169,62.1788232 77.9961765,55.6644238 C79.6217359,54.290472 81.1874367,52.8538682 82.6643473,51.3769598 C89.2527813,44.7885354 94.4249613,36.2600974 98.0376259,26.0290845 C102.550963,13.2596725 102.982543,2.51786713 102.998705,2.06693318 C103.018658,1.51324216 102.807357,0.976311511 102.415682,0.584437936 Z M24.4610602,42.8511156 C25.7005317,36.8526965 29.3006261,30.2704575 34.1850859,27.6562377 C37.449174,25.909567 41.0169447,26.0807623 44.8103822,28.1572533 C41.5786177,32.4076051 38.7690557,36.9867795 36.4271886,41.8223477 C36.3974589,41.8039911 36.0383074,41.3524586 35.3710838,41.2020143 C35.096732,41.139961 29.8174051,40.0044454 24.4610602,42.8511156 Z M37.5150185,73.9511922 C34.7715004,76.6947063 28.3357058,78.1416855 24.2679165,78.7324888 C24.8589202,74.6645059 26.306101,68.2289202 29.0494196,65.4856056 C30.5857897,63.9492377 32.3671809,62.7843915 34.1577505,62.1283425 L40.8722865,68.8428688 C40.2162365,70.6334357 39.0515881,72.4148243 37.5150185,73.9511922 Z M46.6115268,67.7604277 C46.0340911,67.9082782 45.3652712,67.6911914 44.868046,67.194765 C42.2867447,64.6134674 41.2769305,63.6036547 40.9600791,63.2870033 C40.3790518,62.7059769 38.9542182,61.2811454 35.8070538,58.133786 C35.3094295,57.6351648 35.0923424,56.9665455 35.239794,56.3901082 C35.8788841,53.9011922 36.7147093,51.3476291 37.7311079,48.769524 L54.2311245,65.2695165 C51.6526166,66.2861132 49.0994488,67.1217377 46.6115268,67.7604277 Z M75.3444415,68.8155334 C72.730218,73.6997866 66.1481689,77.3000751 60.1499405,78.5393454 C62.062422,74.9404535 62.4840259,70.3590843 61.7852768,67.5810518 C61.6230601,66.9357773 61.2020548,66.6113443 61.1785104,66.5732344 C66.0136867,64.2313708 70.5926682,61.4218128 74.8434252,58.190053 C76.9199193,61.983884 77.0909153,65.5520486 75.3444415,68.8155334 Z M79.8430131,48.5552306 C78.045061,50.3529805 76.1090351,52.0898744 74.0886086,53.7174267 C69.2316837,57.6281813 63.8859138,60.9407501 58.1825886,63.5777161 L39.4229108,44.8184646 C42.0598806,39.1147488 45.3724543,33.7689866 49.2828155,28.9126674 C50.9117669,26.8908472 52.6484637,24.9546246 54.4456177,23.1576727 C60.3566521,17.2464474 67.9854282,12.5419692 77.1262318,9.15557498 L93.8451312,25.87445 C90.4591311,35.0150408 85.7546461,42.6438057 79.8430131,48.5552306 Z M95.2807394,21.6661987 L81.3344893,7.71996889 C88.9327374,5.35994819 95.54292,4.47623737 98.8423247,4.15858832 C98.5244757,7.45858682 97.640564,14.0687598 95.2807394,21.6661987 Z" id="Shape"></path>
                    <path d="M49.3932497,82.6062913 C48.5840078,81.7976269 47.2724848,81.798041 46.4638642,82.6067054 L40.606336,88.4651218 C39.7977154,89.2739933 39.7979225,90.5852514 40.6067503,91.3937088 C41.4159922,92.2021661 42.7275152,92.2021661 43.5361358,91.3932946 L49.393664,85.5348782 C50.2022846,84.7260067 50.2020775,83.4147486 49.3932497,82.6062913 Z" id="Shape"></path>
                    <path d="M20.3938123,53.6068311 C19.585355,52.797792 18.2743039,52.797792 17.4652253,53.6064168 L11.606809,59.4639753 C10.7979375,60.2726001 10.7977304,61.5841298 11.6061877,62.3931689 C12.4144379,63.2017936 13.725489,63.2026221 14.5347747,62.3935831 L20.393191,56.5360246 C21.2020625,55.7273998 21.2022696,54.4158701 20.3938123,53.6068311 Z" id="Shape"></path>
                    <path d="M33.432568,86.56755 C32.6763472,85.810849 31.4493049,85.810849 30.6925029,86.5673562 L17.5676257,99.6919038 C16.8108237,100.448605 16.8108237,101.675604 17.567432,102.432305 C18.3236528,103.189006 19.5506951,103.189393 20.3074971,102.432498 L33.4323743,89.3079509 C34.1891763,88.5512499 34.1891763,87.324251 33.432568,86.56755 Z" id="Shape"></path>
                    <path d="M17.432568,86.56755 C16.6761535,85.810849 15.4491112,85.810849 14.6925029,86.5673562 L1.56762575,99.6919038 C0.810823712,100.448605 0.810823712,101.675604 1.567432,102.432305 C2.32365277,103.189006 3.55069509,103.189393 4.30749713,102.432498 L17.4323743,89.3079509 C18.1891763,88.5512499 18.1891763,87.324251 17.432568,86.56755 Z" id="Shape"></path>
                    <path d="M16.4323095,68.5672851 C15.6758088,67.8108727 14.4486266,67.8108727 13.6919321,68.5674788 L0.567496675,81.6923185 C-0.189197851,82.4491184 -0.189197851,83.6757697 0.567690451,84.4325696 C1.32438498,85.1891757 2.55137339,85.1891757 3.30806791,84.4323759 L16.4325033,71.3075361 C17.1891979,70.5507363 17.1891979,69.3240849 16.4323095,68.5672851 Z" id="Shape"></path>
                    <path d="M62.3995035,40.6004965 C61.5986365,39.7998345 60.3007645,39.7998345 59.4996924,40.6004965 L56.6004965,43.4996924 C55.7998345,44.3003544 55.7998345,45.5986365 56.6004965,46.3995035 C57.4013635,47.2001655 58.6994405,47.2001655 59.5003076,46.3995035 L62.3995035,43.5003076 C63.2001655,42.6996456 63.2001655,41.4013635 62.3995035,40.6004965 Z" id="Shape"></path>
                </g>
                <g id="trophy" opacity="0.395493659" transform="translate(171.433184, 509.978359) rotate(21.000000) translate(-171.433184, -509.978359) translate(142.933184, 476.978359)" fill-rule="nonzero">
                    <path d="M55.0302886,6.33142415 C54.125423,5.26605631 52.8058433,4.6552779 51.4099296,4.6552779 L46.828223,4.6552779 L46.828223,3.22033975 C46.828223,1.44468393 45.3851769,0 43.6118196,0 L12.5413092,0 C10.7676958,0 9.32503389,1.44468393 9.32503389,3.22021151 L9.32503389,4.65514966 L4.74281498,4.65514966 C3.34690129,4.65514966 2.02719355,5.26605631 1.12245603,6.33129591 C0.226940062,7.3855074 -0.160109315,8.77017783 0.0608238999,10.1300991 C1.26474983,17.5420227 5.92355892,24.090034 12.5355457,27.6817394 C13.139686,29.1360408 13.8238745,30.5135302 14.585806,31.7968958 C17.0195294,35.897177 20.0450977,38.7308913 23.3753618,40.1013278 C23.7128452,43.5179938 21.4421641,46.7547475 18.0225022,47.5260748 C18.0152018,47.5277418 18.0100787,47.5303065 18.0029063,47.5319736 C17.3354959,47.6916249 16.8386844,48.2912469 16.8386844,49.0083313 L16.8386844,55.9795147 L14.0227785,55.9795147 C11.5122087,55.9795147 9.46976116,58.0244619 9.46976116,60.5381042 L9.46976116,64.136093 C9.46976116,64.9753843 10.1492108,65.6556656 10.9874763,65.6556656 L45.3105079,65.6556656 C46.1487733,65.6556656 46.828223,64.9753843 46.828223,64.136093 L46.828223,60.5381042 C46.828223,58.0244619 44.7857755,55.9795147 42.2752057,55.9795147 L39.4590437,55.9795147 L39.4590437,49.0084595 C39.4590437,48.2899646 38.960439,47.6894449 38.2912355,47.5312042 C38.2849597,47.5296654 38.2789401,47.5276136 38.2726643,47.5260748 C34.8271308,46.7496181 32.5522231,43.480293 32.925184,40.0379802 C36.1973009,38.6453593 39.1698453,35.8369071 41.5677071,31.7971522 C42.3296385,30.5136584 43.013699,29.1360408 43.6179673,27.6814829 C50.2295699,24.0896493 54.8881228,17.5417662 56.0920488,10.1300991 C56.312982,8.77017783 55.9259326,7.38563563 55.0302886,6.33142415 Z M3.05680637,9.64216884 C2.9779108,9.15654679 3.11200766,8.67990111 3.43450611,8.30007209 C3.76174343,7.91485724 4.23844686,7.69403834 4.7426869,7.69403834 L9.32490582,7.69403834 L9.32490582,10.4897954 C9.32490582,14.873602 9.88370676,19.1199417 10.9427773,23.0032511 C6.7807798,19.7103309 3.91517994,14.9268191 3.05680637,9.64216884 Z M42.2752057,59.0187881 C43.1120623,59.0187881 43.7929208,59.7004799 43.7929208,60.5383607 L43.7929208,62.6167769 L12.5050633,62.6167769 L12.5050633,60.5383607 C12.5050633,59.7004799 13.1859219,59.0187881 14.0227785,59.0187881 L42.2752057,59.0187881 Z M36.4236134,50.5280321 L36.4236134,55.979643 L19.8743708,55.979643 L19.8743708,50.5280321 L36.4236134,50.5280321 Z M23.8546267,47.4890152 C24.2297649,47.0755889 24.5727557,46.6274111 24.8795007,46.1476878 C25.8909265,44.5654089 26.4218067,42.767825 26.445629,40.9318992 C26.9847061,41.0053773 27.5287781,41.0447451 28.077461,41.0447451 C28.6744289,41.0447451 29.2658895,40.9988374 29.8515867,40.9118947 C29.8861675,43.3789881 30.8452098,45.714257 32.4578302,47.488887 L23.8546267,47.488887 L23.8546267,47.4890152 Z M43.7926647,10.4899236 C43.7926647,17.9760947 42.0756614,24.9917753 38.9581336,30.2442388 C35.9877666,35.2492108 32.1234205,38.0056 28.0772048,38.0056 C24.0303487,38.0056 20.1657465,35.249339 17.1949952,30.2444953 C14.0773394,24.9919036 12.3603361,17.9762229 12.3603361,10.4901801 L12.3603361,3.22021151 C12.3603361,3.12018901 12.441537,3.03901691 12.5411811,3.03901691 L43.6115635,3.03901691 C43.7114637,3.03901691 43.7926647,3.12031725 43.7926647,3.22021151 L43.7926647,10.4899236 Z M53.0960663,9.64216884 C52.2376927,14.9264344 49.372349,19.709818 45.2104796,23.0029946 C46.2694221,19.1196853 46.828223,14.873602 46.828223,10.4899236 L46.828223,7.69416657 L51.4099296,7.69416657 C51.9142977,7.69416657 52.3910012,7.9151137 52.7181104,8.30020032 C53.0406089,8.67990111 53.1748338,9.15654679 53.0960663,9.64216884 Z" id="Shape"></path>
                    <path d="M37.0713062,16.3194255 C36.8885119,15.760187 36.4026329,15.3524959 35.8178222,15.2677233 L31.132261,14.590064 L29.036875,10.364214 C28.7751975,9.83679783 28.235463,9.5027937 27.6444936,9.5027937 C27.0533933,9.5027937 26.5136588,9.83679783 26.2521123,10.364214 L24.1567263,14.590064 L19.4711651,15.2677233 C18.8862234,15.3522351 18.4003444,15.7600566 18.2176811,16.3195559 C18.0351489,16.8791856 18.187412,17.4932003 18.6106561,17.903891 L22.0011952,21.1931992 L21.2007004,25.837826 C21.1007204,26.4176707 21.340122,27.0035147 21.8184009,27.349387 C22.2964178,27.6951289 22.9304977,27.7406453 23.4535908,27.4670254 L27.6444936,25.2742837 L31.8352655,27.4670254 C32.0624808,27.5858374 32.3105306,27.6443958 32.5575322,27.6443958 C32.879355,27.6443958 33.1998674,27.5448858 33.4703243,27.3492566 C33.9486033,27.0033843 34.1880048,26.4175403 34.0880248,25.8376956 L33.28753,21.1930688 L36.6780691,17.9037606 C37.1015753,17.4932003 37.2538384,16.8790552 37.0713062,16.3194255 Z M30.5356571,19.5469149 C30.1696754,19.9019165 30.0026054,20.4134215 30.0890887,20.9148842 L30.4955603,23.2741714 L28.3668914,22.1602592 C28.1408555,22.0418384 27.8925435,21.9828888 27.6443626,21.9828888 C27.3961817,21.9828888 27.1480008,22.0420992 26.9218338,22.1602592 L24.7931649,23.2741714 L25.1996365,20.9148842 C25.2861198,20.4135519 25.1190498,19.9020469 24.7530681,19.5469149 L23.0311329,17.8762421 L25.4109965,17.5319348 C25.9166618,17.4589 26.3539267,17.1426329 26.5800937,16.6865562 L27.6444936,14.5401134 L28.7087626,16.6865562 C28.9350606,17.1426329 29.3720634,17.4587695 29.8778598,17.5319348 L32.2577234,17.8762421 L30.5356571,19.5469149 Z" id="Shape"></path>
                </g>
                <g id="music-player" opacity="0.197067482" transform="translate(332.958254, 715.943797) rotate(-46.000000) translate(-332.958254, -715.943797) translate(248.958254, 625.943797)" fill-rule="nonzero">
                    <path d="M155.699892,10.1403244 C155.070079,9.58708169 154.239075,9.33534164 153.399325,9.43486677 L63.0095022,21.1759056 C61.5545177,21.3661742 60.466924,22.6073112 60.466924,24.0796978 L60.466924,41.6927196 L60.466924,54.0221276 L60.466924,130.232037 C55.4021781,124.406889 47.503274,120.645424 38.6013344,120.645424 C23.3021279,120.645424 10.9012275,131.713205 10.9012275,145.362785 C10.9012275,159.012364 23.3021279,170.080145 38.6013344,170.080145 C53.9005408,170.080145 66.3014413,159.012364 66.3014413,145.362785 C66.3014413,144.390951 66.2227146,143.43668 66.100251,142.491192 C66.216883,142.175053 66.3014413,141.844278 66.3014413,141.487159 L66.3014413,56.5922179 L150.859662,45.6063992 L150.859662,100.957011 C145.792001,95.1347903 137.893097,91.3733256 128.991157,91.3733256 C113.69195,91.3733256 101.29105,102.441106 101.29105,116.090686 C101.29105,129.740265 113.69195,140.808046 128.991157,140.808046 C144.290363,140.808046 156.691264,129.740265 156.691264,116.090686 C156.691264,115.821382 156.656274,115.560861 156.647527,115.294485 C156.653358,115.21545 156.691264,115.148124 156.691264,115.06909 L156.691264,42.2752344 L156.691264,29.9487536 L156.691264,12.338659 C156.691264,11.4956225 156.329705,10.693567 155.699892,10.1403244 Z" id="Shape" transform="translate(83.796246, 89.746859) rotate(-8.000000) translate(-83.796246, -89.746859) "></path>
                </g>
                <g id="edit" opacity="0.598731884" transform="translate(282.224469, 450.224469) rotate(-31.000000) translate(-282.224469, -450.224469) translate(250.724469, 418.724469)" fill-rule="nonzero">
                    <path d="M59.6023289,2.98022972 C55.6264238,-0.993409905 49.1596311,-0.993409905 45.183726,2.98022972 L4.33498256,43.8289732 C4.31572604,43.8482297 4.30439868,43.8720172 4.28740763,43.8924064 C4.26362016,43.9195921 4.24323091,43.9490432 4.22170891,43.9784944 C4.16167388,44.0623169 4.11523168,44.1518031 4.08011685,44.2492184 C4.06992222,44.2786696 4.05519665,44.3047225 4.04726749,44.3341736 C4.04386928,44.345501 4.03707287,44.3568284 4.03367466,44.3681557 L0.0294511489,61.1892927 C0.0113273649,61.265186 0.00679641897,61.3422121 0.00453094598,61.4181055 C0.00453094598,61.432831 0,61.4464239 0,61.4611494 C0.00113273649,61.5902814 0.0294511489,61.7160152 0.0736278721,61.837218 C0.0838225006,61.8655364 0.0951498655,61.8904566 0.107609967,61.9176422 C0.163114055,62.0388451 0.232210981,62.1555169 0.32962632,62.2529323 C0.437236287,62.3605422 0.564102774,62.443232 0.70116389,62.4998688 C0.838225006,62.5565056 0.984348013,62.584824 1.13047102,62.584824 C1.21769173,62.584824 1.30604518,62.5746294 1.39213315,62.5542402 L18.2132701,58.5500167 C18.243854,58.5432202 18.2710397,58.5262292 18.3004908,58.5160346 C18.3390038,58.5035745 18.3752514,58.4888489 18.4126317,58.4718578 C18.4941887,58.4344775 18.5700821,58.3880353 18.6403117,58.3325312 C18.6674974,58.3110093 18.6958158,58.2951509 18.7218688,58.2713635 C18.7309307,58.2623016 18.742258,58.2577706 18.7513199,58.2487087 L59.6011961,17.3988326 C63.5771012,13.4229275 63.5771012,6.95500207 59.6023289,2.98022972 Z M58.0006395,4.58191912 C60.8188878,7.40130025 61.059028,11.8280345 58.7369182,14.9317325 L47.6508261,3.8456404 C50.7556568,1.52353058 55.1823911,1.76367072 58.0006395,4.58191912 Z M52.3935938,21.4030561 L41.1795025,10.1889648 L42.7811919,8.58727536 L53.9952832,19.8013667 L52.3935938,21.4030561 Z M5.61950575,56.9630528 C5.17660578,56.5201529 4.46071631,56.5201529 4.01781635,56.9630528 L3.16033482,57.8205343 L6.05334383,45.6685372 L11.0623046,45.1123636 L10.4177775,50.9142399 C10.4132466,50.9572839 10.4291049,50.9969297 10.4291049,51.038841 C10.4291049,51.0818849 10.4132466,51.120398 10.4177775,51.163442 C10.4223085,51.2008223 10.441565,51.2314062 10.4494942,51.2676537 C10.463087,51.3333524 10.4823435,51.3933875 10.506131,51.4545553 C10.5355821,51.5281831 10.570697,51.5950146 10.613741,51.6595806 C10.6488558,51.7116864 10.6839706,51.7581286 10.7270146,51.8034381 C10.781386,51.8612077 10.8402882,51.9099153 10.9048542,51.9552248 C10.9558274,51.9903396 11.004535,52.023189 11.0611719,52.0503746 C11.1359325,52.0854895 11.2140913,52.1058787 11.2956483,52.1251353 C11.3386923,52.1353299 11.3738071,52.1591174 11.4179839,52.164781 C11.4587624,52.169312 11.4995409,52.1715775 11.5414521,52.1715775 C11.5414521,52.1715775 11.5425849,52.1715775 11.5425849,52.1715775 C11.5425849,52.1715775 11.5437176,52.1715775 11.5437176,52.1715775 L11.5448503,52.1715775 C11.5448503,52.1715775 11.5459831,52.1715775 11.5459831,52.1715775 C11.5867616,52.1715775 11.6286728,52.169312 11.6694514,52.164781 L17.4713277,51.520254 L16.9151541,56.5292147 L4.76202422,59.4222238 L5.61950575,58.5647422 C6.06127298,58.122975 6.06127298,57.4059528 5.61950575,56.9630528 Z M19.8353488,50.7567896 L45.183726,25.4072796 C45.626626,24.9643796 45.626626,24.2484901 45.183726,23.8055902 C44.740826,23.3626902 44.0249366,23.3626902 43.5820366,23.8055902 L18.2336593,49.1551002 L12.8271081,49.7554505 L13.4274584,44.3488992 L38.7781011,19.000522 C39.2210011,18.557622 39.2210011,17.8417325 38.7781011,17.3988326 C38.3352012,16.9559326 37.6193117,16.9559326 37.1764117,17.3988326 L11.825769,42.7472098 L8.22026874,43.1481985 L39.5778131,11.7906542 L50.7919044,23.0047455 L19.43436,54.3622898 L19.8353488,50.7567896 Z M55.5969726,18.1996773 L44.3828813,6.98558596 L45.9857035,5.38276382 L57.1997947,16.5968551 L55.5969726,18.1996773 Z" id="Shape"></path>
                </g>
                <g id="business-affiliate-network" opacity="0.324501812" transform="translate(189.000000, 593.000000)" fill-rule="nonzero">
                    <path d="M21,18.0793349 L17.5595668,14.7419477 C17.9602888,13.9946793 18.2081829,13.1485986 18.2081829,12.2358195 C18.2081829,9.34308789 15.9253911,7 13.1058965,7 C10.2864019,7 8,9.34185273 8,12.2358195 C8,15.1297862 10.2864019,17.4741093 13.1058965,17.4741093 C14.0998797,17.4741093 15.0192539,17.1702613 15.8038508,16.6663183 L19.2394705,20 C19.7593261,19.2947268 20.345367,18.6487411 21,18.0793349 Z" id="Shape"></path>
                    <path d="M36.1554831,18 L40.627728,10.1659745 C41.0680069,10.2970931 41.5247668,10.3914494 42.0038939,10.3914494 C44.7668206,10.3914494 47,8.06562734 47,5.19449929 C47,2.32459664 44.7668206,0 42.0038939,0 C39.245676,0 37.0136738,2.32337123 37.0136738,5.19449929 C37.0136738,6.61964736 37.5657883,7.90754987 38.4581183,8.84743686 L34,16.659405 C34.7663678,17.0209 35.4891787,17.4718497 36.1554831,18 Z" id="Shape"></path>
                    <path d="M52.7377109,24 C50.4728654,24 48.5544518,25.367229 47.8106785,27.2735638 L41.2570302,26.6589595 C41.2570302,26.706146 41.2644803,26.7509732 41.2644803,26.7969801 C41.2644803,27.6085879 41.1701118,28.4013212 41,29.1669223 L47.551165,29.7815265 C47.9472646,32.1691636 50.1115331,34 52.7377109,34 C55.6457527,34 58,31.7633597 58,29.0005898 C58,26.2389996 55.6457527,24 52.7377109,24 Z" id="Shape"></path>
                    <path d="M34.152692,43.0565304 L32.7613473,37 C31.9760629,37.2725204 31.1589426,37.4675134 30.3064491,37.5650099 L31.7001521,43.6227149 C30.1024639,44.4555466 29,46.1012407 29,48.0229792 C29,50.7740254 31.2355845,53 34.0029456,53 C36.7644112,53 38.9999957,50.7728507 38.9999957,48.0229792 C39.003533,45.3224433 36.8434113,43.136407 34.152692,43.0565304 Z" id="Shape"></path>
                    <path d="M17.1791531,29 L9.31768929,31.7650754 C8.41068936,30.3103015 6.84916572,29.3454774 5.07225952,29.3454774 C2.2686964,29.3454774 0,31.7286432 0,34.6708543 C0,37.6168342 2.2686964,40 5.07225952,40 C7.8734295,40 10.1481088,37.6168342 10.1481088,34.6708543 C10.1481088,34.5477387 10.1229808,34.4346734 10.1134082,34.3140704 L18,31.5414573 C17.6446188,30.7361809 17.3622283,29.888191 17.1791531,29 Z" id="Shape"></path>
                    <ellipse id="Oval" cx="30" cy="26.5" rx="9" ry="8.5"></ellipse>
                </g>
                <g id="world" opacity="0.132869112" transform="translate(218.380245, 884.064781) rotate(112.000000) translate(-218.380245, -884.064781) translate(180.880245, 840.564781)">
                    <path d="M32.2588896,59.2140576 C21.6473393,59.2140576 12.358744,53.8011992 7.20647629,45.6913193 L12.4368932,45.6913193 C14.7367137,45.6913193 16.6011313,43.8968888 16.6011313,41.6847613 C16.6011313,39.4715586 14.7367137,37.6782032 12.4368932,37.6782032 L8.21683431,37.6782032 C5.91143175,37.6782032 4.05259627,35.8837727 4.05259627,33.6716451 C4.05259627,31.4595176 5.91143175,29.6661622 8.21683431,29.6661622 C10.5166548,29.6661622 12.3866544,27.8711941 12.3866544,25.6590666 C12.3866544,23.446939 10.5166548,21.6530461 8.21683431,21.6530461 L4.58847677,21.6530461 C5.6434915,18.7565836 7.18414793,16.0794524 9.10996847,13.7039016 L17.9185042,13.7039016 C20.2183246,13.7039016 22.0827422,11.909471 22.0827422,9.69626833 C22.0827422,7.85883166 20.7988618,6.31383664 19.040504,5.84184443 C23.014951,3.91086944 27.5029502,2.81636357 32.2588896,2.81636357 C36.886441,2.81636357 41.2683805,3.85173602 45.1590962,5.68971026 L28.8091589,5.68971026 C26.5037563,5.68971026 24.6393387,7.48414081 24.6393387,9.69841864 C24.6393387,11.909471 26.5037563,13.7039016 28.8091589,13.7039016 C29.3450394,13.7039016 29.8530094,13.8022781 30.3219049,13.9780656 C31.8737255,14.5624113 32.9733969,16.0111801 32.9733969,17.709922 C32.9733969,19.4075888 31.8737255,20.8585079 30.3219049,21.4407033 C29.8530094,21.6181036 29.3450394,21.7175553 28.8091589,21.7175553 L21.4575483,21.7175553 C19.1577278,21.7175553 17.2933103,23.5087603 17.2933103,25.7225006 C17.2933103,27.9357033 19.1577278,29.7295962 21.4575483,29.7295962 L31.1313077,29.7295962 C33.4311282,29.7295962 35.2955457,31.5224141 35.2955457,33.7356167 C35.2955457,35.9477443 33.4311282,37.7421748 31.1313077,37.7421748 C31.0364122,37.7421748 30.9415167,37.7443251 30.8466212,37.7529263 C30.6679944,37.7620651 30.4893675,37.7862561 30.3219049,37.8190483 C28.4072485,38.1802997 26.9614876,39.8000179 26.9614876,41.7487329 C26.9614876,43.69476 28.4072485,45.3155533 30.3219049,45.6768048 C30.4893675,45.7106721 30.6679944,45.7343255 30.8466212,45.7440018 C30.9415167,45.7504528 31.0364122,45.7547534 31.1313077,45.7547534 L35.1783219,45.7547534 C37.4781424,45.7547534 39.3425599,47.5497215 39.3425599,49.7613114 C39.3425599,51.9745141 41.2069775,53.7678695 43.5123801,53.7678695 C45.8122005,53.7678695 47.6766181,51.9745141 47.6766181,49.7613114 C47.6766181,47.5497215 45.8122005,45.7547534 43.5123801,45.7547534 C41.2069775,45.7547534 39.3425599,43.961398 39.3425599,41.7487329 C39.3425599,39.5355302 41.2069775,37.7421748 43.5123801,37.7421748 L54.8942586,37.7421748 C57.194079,37.7421748 59.0584966,35.9477443 59.0584966,33.7356167 C59.0584966,31.5224141 57.194079,29.7295962 54.8942586,29.7295962 C52.588856,29.7295962 50.7244384,27.9357033 50.7244384,25.7225006 C50.7244384,23.5087603 52.588856,21.7175553 54.8942586,21.7175553 L59.9460487,21.7175553 C61.0066455,24.630145 61.5871827,27.7561527 61.5871827,31.0149418 C61.5871827,46.5890722 48.4581105,59.2140576 32.2588896,59.2140576 Z M32.2588896,3.41060513e-13 C14.4687735,3.41060513e-13 -4.54747351e-13,13.9135564 -4.54747351e-13,31.0149418 C-4.54747351e-13,48.1168647 14.4687735,62.0309587 32.2588896,62.0309587 C50.0434236,62.0309587 64.5121971,48.1168647 64.5121971,31.0149418 C64.5121971,13.9135564 50.0434236,3.41060513e-13 32.2588896,3.41060513e-13 Z" id="Fill-266"></path>
                    <path d="M38.3076645,79.3235271 C37.1738558,75.7158197 34.1136733,71.9559121 32.2588505,71.9559121 C30.4040277,71.9559121 27.3383412,75.7158197 26.1990287,79.3235271 C18.2018251,80.5467654 12.4061917,84.0022726 12.4061917,86.8433422 L52.1060053,86.8433422 C52.1060053,84.0022726 46.3103719,80.5467654 38.3076645,79.3235271" id="Fill-267"></path>
                    <path d="M62.5185072,2.48123835 L59.1970089,5.67944833 C66.0005447,12.237891 69.7427661,20.9571707 69.7427661,30.2314984 C69.7427661,39.5052913 66.0005447,48.224571 59.1970089,54.7814095 C52.3990089,61.3393174 43.3534618,64.9508723 33.7377241,64.9508723 C24.1219863,64.9508723 15.0764392,61.3393174 8.27843922,54.7814095 L4.9624767,57.9822931 C12.6462095,65.3946968 22.8653528,69.4746738 33.7377241,69.4746738 C44.6045595,69.4746738 54.8292386,65.3946968 62.5185072,57.9822931 C70.2022401,50.5693546 74.4371505,40.7132426 74.4371505,30.2314984 C74.4371505,19.74815 70.2022401,9.89310736 62.5185072,2.48123835" id="Fill-268"></path>
                </g>
                <g id="bulb" opacity="0.193500906" transform="translate(173.955988, 743.955988) rotate(-42.000000) translate(-173.955988, -743.955988) translate(144.955988, 714.955988)">
                    <path d="M40.4053686,43.9677225 C39.9545109,43.444524 38.8765673,43.0749455 37.624632,43.0749455 L24.877614,43.0749455 C23.2231272,43.0749455 21.8705541,43.7205947 21.8705541,44.5109583 L21.8705541,45.094269 L40.4053686,43.9677225" id="Fill-63"></path>
                    <path d="M19.8112567,55.2798217 C20.1425255,55.8664491 20.8414617,56.2387319 21.5919286,56.152242 L22.1955739,56.0845542 C22.5305234,57.09235 23.5476412,57.8444364 24.7921484,57.8444364 L36.4474922,57.8444364 C37.9598773,57.8444364 39.196205,56.7501507 39.196205,55.4151973 L39.196205,54.1742547 L40.1028999,54.0727231 C40.8852667,53.9862331 41.4795057,53.4334496 41.6169208,52.7528114 L19.8112567,55.2798217" id="Fill-64"></path>
                    <path d="M21.5633,50.4024241 L22.0149378,50.3533682 L22.0149378,51.3625165 L39.2046339,49.5649711 L39.2046339,48.5593268 L40.1132374,48.4647191 C40.8710217,48.3876314 41.4538066,47.9040812 41.6169208,47.3013954 L19.8112567,49.6525708 C20.1567473,50.1606489 20.8383024,50.4760078 21.5633,50.4024241" id="Fill-65"></path>
                    <path d="M40.7001798,51.6292379 L40.2314512,51.6827909 L22.4074407,53.641302 L21.4636092,53.7484081 C20.4615584,53.8593394 19.7425295,54.6855863 19.8653424,55.5883375 L19.8751164,55.6763175 L22.4074407,55.3894262 L42.7476271,53.0828203 L42.7476271,53.0675195 C42.6226894,52.1685935 41.7026555,51.5221318 40.7001798,51.6292379" id="Fill-66"></path>
                    <path d="M42.7387064,46.5034578 C42.6138175,45.6151118 41.694142,44.9789658 40.6920568,45.0881269 L40.2077936,45.1408254 L22.406445,47.0643204 L21.4629811,47.1697173 C20.4613207,47.2788785 19.7425721,48.0919409 19.8653371,48.9802869 L19.8848775,49.1346182 L40.2235109,46.8610547 L42.7476271,46.5787414 L42.7387064,46.5034578" id="Fill-67"></path>
                    <path d="M25.8202868,30.9648053 L26.9791463,42.6565699 L31.6216965,42.6565699 L32.7813927,30.9648053 C32.800219,30.8298698 32.8583711,30.7068403 32.9466453,30.6155604 C35.0062357,28.4883419 35.8421206,27.5676055 35.8421206,26.1507827 C35.8421206,24.7855529 34.8861661,23.6743193 33.7101538,23.6743193 C32.9968486,23.6743193 32.3333283,24.0870632 31.9358855,24.7815842 C31.8396625,24.9482693 31.6781752,25.0474865 31.5041371,25.0474865 C31.3317724,25.0474865 31.1711219,24.9482693 31.0753173,24.7815842 C30.6782928,24.0870632 30.0147725,23.6743193 29.3002122,23.6743193 C28.5864886,23.6743193 27.9229683,24.0870632 27.5255255,24.7815842 C27.4305576,24.9482693 27.268652,25.0474865 27.095869,25.0474865 C26.9226676,25.0474865 26.7611803,24.9482693 26.6649573,24.7815842 C26.2679329,24.0870632 25.6039942,23.6743193 24.8898523,23.6743193 C23.7155134,23.6743193 22.7587222,24.7855529 22.7587222,26.1507827 C22.7587222,27.5676055 23.5950255,28.4883419 25.6541975,30.6155604 C25.7424717,30.7068403 25.8006238,30.8298698 25.8202868,30.9648053" id="Fill-68"></path>
                    <path d="M22.9490422,44 C23.4723436,43.7500861 24.0621283,43.6095096 24.6882138,43.6095096 L27.223554,43.6095096 L26.1406505,32.5078672 C24.2493421,30.5319858 23.1130072,29.301941 23.1130072,27.3690134 C23.1130072,25.3736074 24.4985527,23.7491673 26.1997921,23.7491673 C27.0122757,23.7491673 27.7794853,24.1240381 28.3496921,24.7722522 C28.9207147,24.1240381 29.6875164,23.7491673 30.4995921,23.7491673 C31.3120757,23.7491673 32.0796932,24.1240381 32.6482685,24.7722522 C33.2201068,24.1240381 33.9860928,23.7491673 34.7989843,23.7491673 C36.5014473,23.7491673 37.8865849,25.3736074 37.8865849,27.3690134 C37.8865849,29.301941 36.7510657,30.5319858 34.8589416,32.5078672 L33.7760381,43.6095096 L36.3121941,43.6095096 C36.9366481,43.6095096 37.5268407,43.7461812 38.0509578,43.9921902 C38.0876664,42.4692776 38.1260065,40.5636844 39.9500158,38.3691283 C42.7129493,35.04215 46,29.7744344 46,24.8347307 C46,16.638337 39.0563655,10 30.4995921,10 C21.9424109,10 15,16.638337 15,24.8347307 C15,29.7744344 18.2858271,35.04215 21.0467212,38.3691283 C22.8727699,40.5675893 22.9111099,42.4731825 22.9490422,44" id="Fill-69"></path>
                    <path d="M32.2478868,4.97103186 C32.2478868,5.74413637 31.2650819,6.37466013 30.0691139,6.37466013 C28.8690465,6.37466013 27.886754,5.74413637 27.886754,4.97103186 L27.886754,1.45720849 C27.886754,0.680935518 28.8690465,0.0472432958 30.0691139,0.0472432958 C31.2650819,0.0472432958 32.2478868,0.680935518 32.2478868,1.45720849 L32.2478868,4.97103186" id="Fill-70"></path>
                    <path d="M7.57690406,23.8538966 C8.64621188,23.8538966 9.51363158,24.3110061 9.51363158,24.871025 C9.51363158,25.4310439 8.64621188,25.8905466 7.57690406,25.8905466 L2.7298414,25.8905466 C1.66534044,25.8905466 0.791365926,25.4310439 0.791365926,24.871025 C0.791365926,24.3110061 1.66534044,23.8538966 2.7298414,23.8538966 L7.57690406,23.8538966" id="Fill-71"></path>
                    <path d="M14.357982,9.98342949 C15.0399211,10.6363556 15.0612935,11.6878704 14.4090383,12.314224 C13.751638,12.9443736 12.6568942,12.9215971 11.9761425,12.2648749 L8.86922319,9.28874644 C8.18807566,8.6358203 8.16274537,7.58430552 8.82133309,6.95415587 C9.4720051,6.32780231 10.5699152,6.3505788 11.2510627,7.00730102 L14.357982,9.98342949" id="Fill-72"></path>
                    <path d="M50.7010403,25.8905466 C49.6367526,25.8905466 48.763827,25.4328993 48.763827,24.8722216 C48.763827,24.3139399 49.6367526,23.8538966 50.7010403,23.8538966 L55.5488794,23.8538966 C56.6153516,23.8538966 57.4860927,24.3139399 57.4860927,24.8722216 C57.4860927,25.4328993 56.6153516,25.8905466 55.5488794,25.8905466 L50.7010403,25.8905466" id="Fill-74"></path>
                    <path d="M42.6212971,12.3169942 C41.9631165,11.6867414 41.9844886,10.6388512 42.6687906,9.9820215 L45.7764479,7.00540585 C46.4563963,6.34857612 47.5523085,6.3295926 48.2085102,6.95604871 C48.8599626,7.58250481 48.8385905,8.63419171 48.1566632,9.29102144 L45.0521722,12.2676371 C44.3690575,12.9206701 43.2727495,12.9434503 42.6212971,12.3169942 Z" id="Fill-73"></path>
                </g>
            </g>
        </g>
    </g>
</svg>