<?xml version="1.0" encoding="UTF-8"?>
<svg width="420px" height="420px" viewBox="0 0 420 420" version="1.1" xmlns="http://www.w3.org/2000/svg" xmlns:xlink="http://www.w3.org/1999/xlink">
    <!-- Generator: Sketch 49.1 (51147) - http://www.bohemiancoding.com/sketch -->
    <title>Group 2</title>
    <desc>Created with Sketch.</desc>
    <defs></defs>
    <g id="Page-1" stroke="none" stroke-width="1" fill="none" fill-rule="evenodd">
        <g id="sesion-expirada" transform="translate(-140.000000, -271.000000)">
            <g id="Group-2" transform="translate(140.000000, 271.000000)">
                <circle id="Oval-8" fill="#FF5B9B" cx="210" cy="210" r="210"></circle>
                <g id="error" transform="translate(106.000000, 72.000000)" fill="#F9F7FA" fill-rule="nonzero">
                    <path d="M5.41039241,217 C8.39878912,217 10.8207848,214.583523 10.8207848,211.601938 L10.8207848,10.7961248 L197.179215,10.7961248 L197.179215,21.5943581 C197.179215,24.5738359 199.601211,26.9924205 202.589608,26.9924205 C205.578004,26.9924205 208,24.5738359 208,21.5943581 L208,5.3980624 C208,2.4164761 205.578004,0 202.589608,0 L5.41039241,0 C2.42199571,0 0,2.4164761 0,5.3980624 L0,211.601938 C0,214.583523 2.42199571,217 5.41039241,217 Z" id="Shape"></path>
                    <path d="M202.589608,59 C199.601211,59 197.179215,61.4164766 197.179215,64.3980624 L197.179215,209.053483 L146.310959,209.053483 C143.322563,209.053483 140.900567,211.469959 140.900567,214.451546 L140.900567,265.203875 L10.8207848,265.203875 L10.8207848,254.405642 C10.8207848,251.426164 8.39878912,249.00758 5.41039241,249.00758 C2.42199571,249.00758 0,251.426164 0,254.405642 L0,270.601938 C0,273.583524 2.42199571,276 5.41039241,276 L146.310959,276 C146.338434,276 146.365909,275.995783 146.395497,275.995783 C146.543438,275.993674 146.691378,275.987348 146.839318,275.974697 C146.930196,275.966262 147.01896,275.947285 147.107725,275.934633 C147.192262,275.921981 147.278913,275.913547 147.361337,275.896678 C147.452214,275.879809 147.540979,275.852396 147.631856,275.831311 C147.712167,275.810225 147.794591,275.793356 147.874901,275.770161 C147.959438,275.744857 148.039749,275.711119 148.122173,275.681599 C148.206711,275.652078 148.291248,275.626775 148.373672,275.593037 C148.447642,275.561407 148.519498,275.523453 148.591355,275.489715 C148.68012,275.449651 148.768884,275.411695 148.853421,275.367415 C148.921051,275.331568 148.986568,275.289396 149.052084,275.249332 C149.138735,275.198725 149.225386,275.152336 149.30781,275.095403 C149.386007,275.044796 149.457864,274.985755 149.531834,274.93093 C149.601577,274.880324 149.671321,274.833934 149.736837,274.77911 C149.876324,274.667353 150.00947,274.547162 150.136276,274.418536 L206.414924,218.268144 C206.586112,218.097346 206.740394,217.913896 206.884107,217.724121 C206.922149,217.677731 206.958077,217.629233 206.991892,217.580735 C207.127152,217.388851 207.256071,217.194858 207.36597,216.988213 C207.37231,216.975561 207.376537,216.962909 207.382878,216.950258 C207.484323,216.754157 207.573086,216.551729 207.64917,216.345084 C207.670305,216.290261 207.691439,216.233328 207.71046,216.176395 C207.78443,215.957099 207.849947,215.735694 207.896442,215.507963 C207.896442,215.503746 207.896442,215.499529 207.898555,215.493203 C207.940824,215.271798 207.966185,215.044067 207.980979,214.816336 C207.98732,214.755187 207.989433,214.694037 207.991547,214.632887 C207.99366,214.571737 208,214.512695 208,214.451546 L208,64.3980624 C208,61.4164766 205.578004,59 202.589608,59 Z M151.721352,257.570678 L151.721352,219.849608 L189.526469,219.849608 L151.721352,257.570678 Z" id="Shape"></path>
                    <path d="M50.7593279,166.808823 C64.2178704,155.972689 83.4407556,149.756303 103.500332,149.756303 C123.559909,149.756303 142.782794,155.972689 156.241336,166.808823 C157.235696,167.611345 158.429768,168 159.615432,168 C161.185805,168 162.745668,167.315126 163.809401,165.995799 C165.674089,163.682773 165.308298,160.296218 162.993732,158.432773 C147.65789,146.084034 125.971178,139 103.500332,139 C81.0294858,139 59.3427751,146.084034 44.0069321,158.432773 C41.6902636,160.296218 41.3265756,163.682773 43.1912629,165.995799 C45.0559501,168.306722 48.4447615,168.67437 50.7593279,166.808823 Z" id="Shape"></path>
                    <path d="M164.41219,58.5878095 C162.297228,56.4707302 158.865442,56.4707302 156.748363,58.5878095 L144.501058,70.8351143 L132.251637,58.5878095 C130.136675,56.4707302 126.704889,56.4707302 124.58781,58.5878095 C122.47073,60.702772 122.47073,64.1345576 124.58781,66.251637 L136.835114,78.4989411 L124.58781,90.7483628 C122.47073,92.8633252 122.47073,96.2951108 124.58781,98.4121902 C126.702772,100.52927 130.134557,100.52927 132.251637,98.4121902 L144.501058,86.164886 L156.748363,98.4121902 C157.806903,99.4707299 159.19359,100 160.580277,100 C161.966964,100 163.353651,99.4707299 164.41219,98.4121902 C166.52927,96.2951108 166.52927,92.8633252 164.41219,90.7483628 L152.164886,78.4989411 L164.41219,66.251637 C166.52927,64.1345576 166.52927,60.702772 164.41219,58.5878095 Z" id="Shape"></path>
                    <path d="M43.587878,98.4140524 C45.7029315,100.529002 49.1348649,100.529002 51.2520355,98.4119355 L63.4998679,86.1647067 L75.7476997,98.4119355 C76.806285,99.4704687 78.1930314,99.999735 79.5797782,99.999735 C80.9665251,99.999735 82.355389,99.4704687 83.4118573,98.4119355 C85.5290279,96.2969861 85.5290279,92.8652216 83.4139744,90.7481552 L71.1661425,78.5009258 L83.4139744,66.2515801 C85.5290279,64.1366306 85.5290279,60.7048662 83.4118573,58.5877998 C81.2968037,56.4728503 77.8648703,56.4707334 75.7476997,58.5877998 L63.4998679,70.8350286 L51.2520355,58.5877998 C49.1348649,56.4707334 45.7029315,56.4707334 43.587878,58.5877998 C41.4707073,60.7048662 41.4707073,64.1366306 43.587878,66.2515801 L55.8357098,78.5009258 L43.587878,90.7481552 C41.4707073,92.8652216 41.4707073,96.2969861 43.587878,98.4140524 Z" id="Shape"></path>
                    <path d="M5.5,238 C8.5292966,238 11,235.531445 11,232.5 C11,229.470703 8.5292966,227 5.5,227 C2.4707034,227 0,229.470703 0,232.5 C0,235.531445 2.4707034,238 5.5,238 Z" id="Shape"></path>
                    <path d="M202.5,38 C199.470703,38 197,40.4685551 197,43.5 C197,46.5292971 199.470703,49 202.5,49 C205.529297,49 208,46.5292971 208,43.5 C208,40.4685551 205.529297,38 202.5,38 Z" id="Shape"></path>
                </g>
            </g>
        </g>
    </g>
</svg>