<?xml version="1.0" encoding="UTF-8"?>
<svg width="11px" height="11px" viewBox="0 0 11 11" version="1.1" xmlns="http://www.w3.org/2000/svg" xmlns:xlink="http://www.w3.org/1999/xlink">
    <!-- Generator: Sketch 49.1 (51147) - http://www.bohemiancoding.com/sketch -->
    <title>checked-symbol</title>
    <desc>Created with Sketch.</desc>
    <defs></defs>
    <g id="Symbols" stroke="none" stroke-width="1" fill="none" fill-rule="evenodd">
        <g id="2unid-UNIDADES-LAST" transform="translate(-220.000000, -98.000000)" fill="#FFBE54" fill-rule="nonzero">
            <g id="checked-symbol" transform="translate(220.000000, 98.000000)">
                <path d="M10.2625646,2.73920152 C9.77072369,1.89659411 9.10357283,1.22944629 8.26093649,0.737632658 C7.41814964,0.245844108 6.49813013,0 5.50017559,0 C4.50232138,0 3.58202594,0.245844108 2.7393896,0.737632658 C1.89670309,1.22937104 1.22955223,1.89651886 0.737711273,2.73920152 C0.245845229,3.58193435 0,4.5022256 0,5.5 C0,6.49782457 0.24592048,7.41796531 0.737636022,8.26074831 C1.2294519,9.10335573 1.89660276,9.77050354 2.73928927,10.2623673 C3.58202594,10.7541308 4.50224613,11 5.50007525,11 C6.49790437,11 7.4182249,10.7541308 8.2609114,10.2623673 C9.10354775,9.77067913 9.77067352,9.10335573 10.2624643,8.26074831 C10.7541799,7.41804056 11,6.4977744 11,5.5 C11.0000251,4.50212526 10.7541799,3.58180894 10.2625646,2.73920152 Z M9.06637372,4.6621083 L5.17777494,8.55071443 C5.08704724,8.64151696 4.9773061,8.68686806 4.84832578,8.68686806 C4.72421169,8.68686806 4.61682842,8.64151696 4.52607563,8.55071443 L1.93352595,5.95832706 C1.84768956,5.87231549 1.80467104,5.76510829 1.80467104,5.63607839 C1.80467104,5.50243311 1.84753906,5.39254197 1.93352595,5.30658056 L2.58522525,4.6621083 C2.67605329,4.57140609 2.78333622,4.52605499 2.90755065,4.52605499 C3.03176507,4.52605499 3.13919851,4.57143118 3.22987604,4.6621083 L4.84840103,6.28057574 L7.77027446,3.36588953 C7.86100216,3.27516225 7.96838543,3.22978606 8.0925246,3.22978606 C8.21656344,3.22978606 8.3241223,3.27516225 8.41477475,3.36588953 L9.06647405,4.01046213 C9.15256127,4.09634829 9.19540421,4.20613909 9.19540421,4.33978437 C9.19540421,4.46873903 9.15256127,4.57617197 9.06637372,4.6621083 Z" id="Shape"></path>
            </g>
        </g>
    </g>
</svg>