<?xml version="1.0" encoding="UTF-8"?>
<svg width="33px" height="39px" viewBox="0 0 33 39" version="1.1" xmlns="http://www.w3.org/2000/svg" xmlns:xlink="http://www.w3.org/1999/xlink">
    <!-- Generator: Sketch 49.1 (51147) - http://www.bohemiancoding.com/sketch -->
    <title>artis</title>
    <desc>Created with Sketch.</desc>
    <defs></defs>
    <g id="Symbols" stroke="none" stroke-width="1" fill="none" fill-rule="evenodd" fill-opacity="0.5">
        <g id="2unid-Art" transform="translate(-7.000000, -6.000000)" fill="#FF8227">
            <g id="artis" transform="translate(7.000000, 6.000000)">
                <path d="M29.4220175,0.359598846 C29.3907426,0.340844433 29.3603055,0.323177233 29.3284722,0.306597245 C26.7974443,-1.04344866 22.3072712,2.19100801 19.2979058,7.53139494 C18.7891312,8.43405297 18.3574267,9.33834182 18,10.2255071 L26.7767805,15 C27.3715609,14.2120429 27.940372,13.3485245 28.4633879,12.4197734 C31.4353352,7.14679358 31.8491683,1.79172928 29.4220175,0.359598846" id="Fill-290"></path>
                <path d="M20.9864119,22.6936798 C20.9632897,22.4150968 20.9088062,22.1434913 20.8280112,21.8819644 L18.2064266,20.483364 L15.6356046,19.1134489 C15.5718191,19.0795951 15.5120201,19.0408313 15.4540816,19 C13.7943294,19.4460429 12.6095134,20.8619578 12.6049953,22.5820399 C12.6049953,22.6223543 12.5991483,22.7722413 12.5869227,22.9738134 C12.5170245,23.610833 11.9873389,24.0796173 11.2849009,24.0633365 C10.8822549,24.0548085 10.5146908,23.8837306 10.2539675,23.6203947 C10.0828098,23.4456989 9.95949109,23.4472494 10.0123799,23.6671698 C10.4261884,25.3944878 11.7247552,26.8390879 13.4217157,27.540714 C13.5625753,27.599635 13.7074216,27.6515786 13.8538625,27.699129 C14.402418,27.8792517 14.9852581,27.9846895 15.5890943,27.998386 C18.6608984,28.0694531 21.0826217,25.7847107 20.9978402,22.8965441 C20.995714,22.8283197 20.9911958,22.7603537 20.9864119,22.6936798" id="Fill-291"></path>
                <path d="M26.4429148,25.1457345 C25.3381696,25.3514743 24.2734237,24.6418056 24.0633589,23.5588662 C23.8524777,22.4753924 24.5770926,21.4311961 25.6823821,21.2257236 C26.7873994,21.0194494 27.8529616,21.7296524 28.0635707,22.8125919 C28.2733634,23.8949969 27.5476601,24.9397275 26.4429148,25.1457345 Z M26.622504,32.1331387 C26.5095805,33.3689134 25.3958558,34.2827187 24.1354666,34.170497 C22.8734449,34.0609472 21.9428466,32.9681216 22.0557701,31.7328813 C22.1686936,30.4960378 23.2826904,29.5833013 24.5433516,29.6944542 C25.8040129,29.8050727 26.7351553,30.8968296 26.622504,32.1331387 Z M19.8990679,33.8685672 C19.7861445,35.1056779 18.6732361,36.0168112 17.4114864,35.9072614 C16.1508251,35.7977117 15.2196827,34.7048861 15.3323341,33.4677754 C15.4455296,32.2322679 16.5576217,31.3195313 17.8199156,31.4312187 C19.0800327,31.5407684 20.0114472,32.6341284 19.8990679,33.8685672 Z M13.1231157,32.334069 C13.0093759,33.5693093 11.8967396,34.4804427 10.6355341,34.3708929 C9.37487288,34.2613431 8.44318625,33.1685175 8.55692603,31.9338116 C8.66903318,30.6980369 9.78248578,29.7853004 11.0436913,29.8953845 C12.3048967,30.006003 13.2360391,31.0977599 13.1231157,32.334069 Z M8.52209662,27.2255767 C8.40862894,28.4613515 7.29490424,29.374088 6.03478719,29.262935 C4.77330961,29.1523165 3.84243929,28.0605597 3.95509065,26.824785 C4.06828622,25.5890102 5.18201093,24.6768081 6.4429443,24.7874267 C7.70360556,24.8975108 8.63447588,25.9887333 8.52209662,27.2255767 Z M2.95238468,20.1104536 C3.06476394,18.8752133 4.17821654,17.9619424 5.43914991,18.0725609 C6.70008328,18.182645 7.63095359,19.2744019 7.51884644,20.510711 C7.40619508,21.7470201 6.29138196,22.6597566 5.03208122,22.5491381 C3.77005943,22.4390539 2.83918911,21.3467627 2.95238468,20.1104536 Z M6.07152133,14.0213574 C6.18362848,12.7853155 7.29789739,11.8733806 8.55774234,11.9829303 C9.81921992,12.0935489 10.7506344,13.1853057 10.6374389,14.4213476 C10.5250596,15.6571223 9.4107907,16.570126 8.15040154,16.4597747 C6.88919607,16.3496906 5.95832575,15.2576665 6.07152133,14.0213574 Z M32.808261,24.2231118 C32.0901766,20.5256739 29.685587,18.204555 26.4584248,17.5542035 C26.3713513,17.6033673 26.279652,17.6466528 26.1822385,17.678449 C26.1585654,17.8531942 26.1016955,18.0244659 26.0108125,18.1837138 C25.7667346,18.6120267 25.3207549,18.8818931 24.8013069,18.9219723 L23.3643218,20.745575 C23.0647345,21.1268616 22.5988912,21.3753525 22.0870622,21.4349369 C22.0998511,21.5265846 22.1104632,21.6190339 22.1180821,21.7109488 C22.1243405,21.801795 22.1297826,21.885694 22.1325036,21.9698603 C22.1806662,23.6334135 21.5638047,25.1981046 20.395387,26.3785701 C19.1815277,27.6052602 17.5200562,28.2807279 15.7170902,28.2807279 C15.7170902,28.2807279 15.6055272,28.2796592 15.5500179,28.2785904 C14.8466271,28.2622915 14.1470458,28.140718 13.4714097,27.916809 C13.2836575,27.8553543 13.1119594,27.791762 12.9506013,27.7233602 C10.8913126,26.863261 9.36426079,25.1061897 8.87011858,23.0255459 C8.75420196,22.5392519 8.91447166,22.2076635 9.06957136,22.0163522 C9.27392202,21.7625174 9.58058406,21.6174307 9.91146343,21.6174307 C10.2518665,21.6174307 10.5683243,21.7657237 10.8518574,22.0585689 C10.9389309,22.1472775 11.0640991,22.2025868 11.1908999,22.2055259 L11.1914441,22.2055259 C11.362598,22.2055259 11.461372,22.1293755 11.4831404,21.9907015 C11.492392,21.8330567 11.497562,21.7146895 11.4981062,21.6716712 C11.5032762,19.6818736 12.7155028,17.9582016 14.5698966,17.2097898 C14.4362932,16.8220905 14.4237763,16.39832 14.5649987,16.0100863 L15.3701566,13.8046627 C15.1005008,13.3472256 15.0700251,12.7930642 15.337232,12.3236034 C15.4381828,12.147255 15.5726026,11.9981604 15.732328,11.8803276 C15.6732813,11.5567551 15.7233486,11.2195556 15.8964072,10.9170914 C16.0686495,10.6135584 16.342659,10.3893822 16.6732662,10.2702134 C16.6732662,10.2702134 18.8397642,6.19309205 18.9050693,6.08006876 C17.5788308,5.95395294 15.8436189,5.94860905 13.698073,6.27271602 C4.50637486,7.66159319 -1.43584847,16.6174195 0.301540299,25.5732458 C1.28193368,30.6242912 4.48977647,34.6941983 8.75202513,36.9787115 C8.95419895,37.0882613 9.15936592,37.1951391 9.36670974,37.2940011 C12.5310158,38.8303696 16.2210282,39.4048379 19.9913114,38.7047882 C32.4493549,36.3988994 33.5943716,28.2769872 32.808261,24.2231118 Z" id="Fill-292"></path>
                <path d="M27,15.6878542 L18.3000996,11 L17.908396,12.0401637 C17.6511979,11.9801195 17.3961476,12.0543984 17.2863417,12.2443661 C17.1531786,12.4731555 17.278019,12.7860587 17.5615276,12.9623094 L17.3931944,13.4105711 C17.1236464,13.336551 16.8508768,13.4077241 16.735433,13.6054562 C16.5979743,13.8430452 16.73597,14.1719947 17.0414934,14.3446221 L17.0256534,14.3862907 L16.0427701,17.0290158 C15.9053114,17.4004104 16.110157,17.8724827 16.4999813,18.0782379 L19.0971989,19.4501981 L21.8165722,20.8884141 C22.2063965,21.0941693 22.7296523,21.0072086 22.9793332,20.694823 L24.7483084,18.4918189 C25.047657,18.6191541 25.3786854,18.5565217 25.5083584,18.3331674 C25.6178958,18.1444937 25.5526566,17.8988815 25.3687519,17.7190075 L25.6745438,17.337778 C25.9867791,17.4977236 26.3505614,17.4387145 26.488557,17.2021607 C26.6058801,17.0000289 26.5221163,16.7329353 26.3068001,16.5502144 L27,15.6878542" id="Fill-293"></path>
            </g>
        </g>
    </g>
</svg>