<svg xmlns="http://www.w3.org/2000/svg">

    <symbol id="icon-home" viewBox="0 0 25 23">
       <path d="M24.5803689,10.5470483 L20.7914951,6.74850511 L20.7914951,2.36055029 C20.7914951,1.56714653 20.1501924,0.924156591 19.3576476,0.924156591 C18.5669196,0.924156591 17.9256169,1.56714653 17.9256169,2.36055029 L17.9256169,3.87536356 L15.1045006,1.04694647 C13.7097126,-0.350642181 11.2846417,-0.348163111 9.89303295,1.04947614 L0.41943559,10.5470483 C-0.139811863,11.108836 -0.139811863,12.0178454 0.41943559,12.578773 C0.978935366,13.140409 1.88739707,13.140409 2.44669499,12.578773 L11.919384,3.08094794 C12.2279743,2.77318905 12.7718806,2.77318905 13.0788561,3.08003726 L22.5531599,12.578773 C22.8340957,12.8596163 23.200367,12.9993043 23.5665373,12.9993043 C23.9334646,12.9993043 24.3003414,12.8594645 24.5804193,12.578773 C25.1398686,12.017896 25.1398686,11.1088866 24.5803689,10.5470483 Z" id="Shape"></path>
       <path d="M12.4961061,5.20989109 C12.2219799,4.9300363 11.7781206,4.9300363 11.5047986,5.20989109 L3.20531823,13.684958 C3.0742865,13.8187503 3,14.0014183 3,14.192044 L3,20.3734413 C3,21.8239527 4.15139043,23 5.57137831,23 L9.68045693,23 L9.68045693,16.4998321 L14.3195431,16.4998321 L14.3195431,23 L18.428672,23 C19.8486096,23 21,21.8239527 21,20.3734927 L21,14.192044 C21,14.0014183 20.9263669,13.8187503 20.7946818,13.684958 L12.4961061,5.20989109 Z" id="Shape"></path>
    </symbol>

    <symbol id="icon-novedades" viewBox="0 0 22 22">
        <path d="M21.2142709,5.50001151 L17.2857176,5.50001151 L17.2857176,0.785729084 C17.2857176,0.351775703 16.9339419,0 16.4999885,0 L0.785729084,0 C0.351775703,0 0,0.351775703 0,0.785729084 L0,18.8571297 C0,20.5928972 1.40710281,22 3.1428703,22 L18.8571297,22 C20.5928972,22 22,20.5928972 22,18.8571297 L22,6.28569456 C22,5.85178721 21.6482243,5.50001151 21.2142709,5.50001151 Z M6.28569456,3.92855334 L10.999977,3.92855334 C11.4339304,3.92855334 11.7857061,4.28032905 11.7857061,4.71428243 C11.7857061,5.14823581 11.4339304,5.50001151 10.999977,5.50001151 L6.28569456,5.50001151 C5.85174117,5.50001151 5.49996547,5.14823581 5.49996547,4.71428243 C5.49996547,4.28032905 5.85178721,3.92855334 6.28569456,3.92855334 Z M13.3571182,18.8571297 L3.92855334,18.8571297 C3.49459996,18.8571297 3.14282426,18.505354 3.14282426,18.0714006 C3.14282426,17.6374472 3.49459996,17.2856715 3.92855334,17.2856715 L13.3571182,17.2856715 C13.7910716,17.2856715 14.1428473,17.6374472 14.1428473,18.0714006 C14.1428473,18.505354 13.7910716,18.8571297 13.3571182,18.8571297 Z M13.3571182,15.7142594 L3.92855334,15.7142594 C3.49459996,15.7142594 3.14282426,15.3624837 3.14282426,14.9285303 C3.14282426,14.4945769 3.49459996,14.1428012 3.92855334,14.1428012 L13.3571182,14.1428012 C13.7910716,14.1428012 14.1428473,14.4945769 14.1428473,14.9285303 C14.1428473,15.3624837 13.7910716,15.7142594 13.3571182,15.7142594 Z M13.3571182,12.5714351 L3.92855334,12.5714351 C3.49459996,12.5714351 3.14282426,12.2196594 3.14282426,11.7857061 C3.14282426,11.3517527 3.49459996,10.999977 3.92855334,10.999977 L13.3571182,10.999977 C13.7910716,10.999977 14.1428473,11.3517527 14.1428473,11.7857061 C14.1428473,12.2196594 13.7910716,12.5714351 13.3571182,12.5714351 Z M13.3571182,9.42856485 L3.92855334,9.42856485 C3.49459996,9.42856485 3.14282426,9.07678915 3.14282426,8.64283577 C3.14282426,8.20888239 3.49459996,7.85710668 3.92855334,7.85710668 L13.3571182,7.85710668 C13.7910716,7.85710668 14.1428473,8.20888239 14.1428473,8.64283577 C14.1428473,9.07678915 13.7910716,9.42856485 13.3571182,9.42856485 Z M20.4285418,18.8571297 C20.4285418,19.7249904 19.7249904,20.4285418 18.8571297,20.4285418 C17.989269,20.4285418 17.2857176,19.7249904 17.2857176,18.8571297 L17.2857176,7.07142364 L20.4285879,7.07142364 L20.4285879,18.8571297 L20.4285418,18.8571297 Z" id="Shape"></path>
    </symbol>
    
    <symbol id="icon-monitor" viewBox="0 0 22 22">
        <path d="M3.87039852,17 L2.76888386,17 C1.24209599,17 0,18.1215747 0,19.5 L0,21.3202577 C0,21.6957091 0.337042315,22 0.752904272,22 L4,22 C3.91627865,21.7872265 3.87039852,21.5585215 3.87039852,21.3202577 L3.87039852,17 Z" id="Shape"></path>
        <path d="M8.87039852,14 L7.76907997,14 C6.24229205,14 5,15.0384544 5,16.3147241 L5,21.3706337 C5,21.7182602 5.33704232,22 5.75290427,22 L9,22 C8.91647471,21.8029952 8.87039852,21.5912397 8.87039852,21.3706337 L8.87039852,14 Z" id="Shape"></path>
        <path d="M21.8673437,6.47418213 L17.0428812,0.260833719 C16.9153244,0.0968475234 16.7140486,0 16.4999291,0 C16.2858095,0 16.0843578,0.0968475234 15.9569769,0.260833719 L11.1326904,6.47418213 C10.9808538,6.6697235 10.9574537,6.93038938 11.0721669,7.14775084 C11.187056,7.3651123 11.420353,7.50241087 11.6756426,7.50241087 L13.4121746,7.50241087 L13.4121746,21.3554688 C13.4121746,21.7114715 13.7146162,22 14.0877858,22 L18.9120723,22 C19.2852419,22 19.5876835,21.7114715 19.5876835,21.3554688 L19.5876835,7.50241087 L21.3243915,7.50241087 C21.5795051,7.50241087 21.812978,7.3651123 21.9276912,7.14775084 C22.0425803,6.93038938 22.0191802,6.6697235 21.8673437,6.47418213 Z" id="Shape"></path>
        <path d="M12.8705946,11 L11.76908,11 C10.242292,11 9,12.004454 9,13.2391317 L9,21.3911439 C9,21.7274418 9.33723837,22 9.75290427,22 L13,22 C12.9164747,21.8094154 12.8705946,21.6045606 12.8705946,21.3911439 L12.8705946,11 Z" id="Shape"></path>
    </symbol>

     <symbol id="icon-notificacion" viewBox="0 0 21 24">
        <g  transform="translate(-938.000000, -26.000000)" >
            <g transform="translate(904.000000, 26.000000)">
                <path d="M44.5,24 C45.8588235,24 46.9705882,22.92 46.9705882,21.6 L42.0294118,21.6 C42.0294118,22.92 43.1411765,24 44.5,24 Z M52.5294118,16.8 L52.5294118,10.2 C52.5294118,6.48 49.9352941,3.48 46.3529412,2.64 L46.3529412,1.8 C46.3529412,0.84 45.4882353,0 44.5,0 C43.5117647,0 42.6470588,0.84 42.6470588,1.8 L42.6470588,2.64 C39.0647059,3.48 36.4705882,6.48 36.4705882,10.2 L36.4705882,16.8 L34,19.2 L34,20.4 L55,20.4 L55,19.2 L52.5294118,16.8 Z" id="Shape"></path>
            </g>
        </g>
    </symbol>

    <symbol id="icon-salir" viewBox="0 0 25 25">
        <path d="M23.4375,0 L1.5625,0 C0.699609375,0 0,0.699609375 0,1.5625 L0,4.6875 C0,5.55039062 0.699609375,6.25 1.5625,6.25 C2.42539062,6.25 3.125,5.55039062 3.125,4.6875 L3.125,3.125 L21.875,3.125 L21.875,21.875 L3.125,21.875 L3.125,20.3125 C3.125,19.4496094 2.42539062,18.75 1.5625,18.75 C0.699609375,18.75 0,19.4496094 0,20.3125 L0,23.4375 C0,24.3003906 0.699609375,25 1.5625,25 L23.4375,25 C24.3003906,25 25,24.3003906 25,23.4375 L25,1.5625 C25,0.699609375 24.3003906,0 23.4375,0 Z" id="Shape"></path>
        <path d="M7.08017188,8.17769378 C6.56603385,7.91660253 5.94061719,7.94477413 5.45507812,8.25203682 L0.705078125,11.2520081 C0.264416667,11.5303492 0,11.9983447 0,12.5000431 C0,13.0017414 0.264416667,13.4697838 0.705078125,13.748078 L5.45507812,16.7480493 C5.72023698,16.9153914 6.02641406,17 6.33333333,17 C6.58923958,17 6.84667969,16.9410318 7.08017188,16.8223923 C7.59505208,16.5616292 7.91666667,16.0533684 7.91666667,15.5000144 L7.91666667,14.0000287 L17.4166667,14.0000287 C18.2910625,14.0000287 19,13.3284101 19,12.5000431 C19,11.671676 18.2910625,11.0000574 17.4166667,11.0000574 L7.91666667,11.0000574 L7.91666667,9.50007175 C7.91666667,8.94671767 7.59505208,8.43845691 7.08017188,8.17769378 Z" id="Shape"></path>
    </symbol>
    
    <symbol id="icon-btn-arrow" viewBox="0 0 19 13">
         <path d="M19,6.4996061 C19,7.37250052 7.52291452,13.5099635 6.46858908,12.9659225 C5.41426365,12.4218814 6.46858908,0.570530247 6.46858908,0.0332897186 C6.46858908,-0.50395081 19,5.62671167 19,6.4996061 Z" id="Triangle"></path>
                <rect id="Rectangle-5" x="0" y="4" width="10" height="5" rx="1"></rect>
    </symbol>

    <symbol id="icon-nat" viewBox="0 0 28 26">
        <g id="2unid-Art" transform="translate(-7.000000, -9.000000)" fill="">
            <g id="atom" transform="translate(7.000000, 9.000000)">
                <path d="M12.7998992,13.5191248 C12.3262769,13.5191248 11.9423723,13.1200449 11.9423723,12.6281964 C11.9423723,12.1363478 12.3262769,11.7372679 12.7998992,11.7372679 C13.2733535,11.7372679 13.656922,12.1363478 13.656922,12.6281964 C13.656922,13.1200449 13.2733535,13.5191248 12.7998992,13.5191248 Z M14.000168,10.4 C12.343078,10.4 11,11.7967798 11,13.5191248 C11,15.2432202 12.343078,16.64 14.000168,16.64 C15.656922,16.64 17,15.2432202 17,13.5191248 C17,11.7967798 15.656922,10.4 14.000168,10.4 Z" id="Fill-212"></path>
                <path d="M24.1997327,15.6 C23.8841167,15.6 23.6282023,15.3325714 23.6282023,15.0057143 C23.6282023,14.677 23.8841167,14.4114286 24.1997327,14.4114286 C24.5158833,14.4114286 24.7716195,14.677 24.7716195,15.0057143 C24.7716195,15.3325714 24.5158833,15.6 24.1997327,15.6 Z M25.0004455,13.52 C23.8955224,13.52 23,14.4504286 23,15.6 C23,16.7495714 23.8955224,17.68 25.0004455,17.68 C26.104834,17.68 27,16.7495714 27,15.6 C27,14.4504286 26.104834,13.52 25.0004455,13.52 Z" id="Fill-213"></path>
                <path d="M10.1999644,2.08 C9.88415612,2.08 9.62840848,1.81442857 9.62840848,1.48571429 C9.62840848,1.157 9.88415612,0.891428571 10.1999644,0.891428571 C10.5157726,0.891428571 10.7715202,1.157 10.7715202,1.48571429 C10.7715202,1.81442857 10.5157726,2.08 10.1999644,2.08 Z M11.0003564,0 C9.89538407,0 9,0.930428571 9,2.08 C9,3.22957143 9.89538407,4.16 11.0003564,4.16 C12.1049724,4.16 13,3.22957143 13,2.08 C13,0.930428571 12.1049724,0 11.0003564,0 Z" id="Fill-214"></path>
                <path d="M5.19962579,20.8009282 C4.88439435,20.8009282 4.6281463,20.5336189 4.6281463,20.2069076 C4.6281463,19.87834 4.88439435,19.6128871 5.19962579,19.6128871 C5.51539181,19.6128871 5.77128347,19.87834 5.77128347,20.2069076 C5.77128347,20.5336189 5.51539181,20.8009282 5.19962579,20.8009282 Z M5.9999109,18.72 C4.8952644,18.72 4,19.6518697 4,20.8009282 C4,21.9499866 4.8952644,22.88 5.9999109,22.88 C7.1045574,22.88 8,21.9499866 8,20.8009282 C8,19.6518697 7.1045574,18.72 5.9999109,18.72 Z" id="Fill-215"></path>
                <path d="M17.7953047,9.47090784 C17.5344911,9.43075155 17.2701399,9.39250747 17,9.36 C17.3383181,9.96425649 17.6677922,10.5933716 17.9837594,11.243521 C19.0509728,13.4368191 19.8626789,15.6530637 20.3926676,17.68 C20.5999357,17.6188095 20.8031838,17.5537945 21,17.4868674 C20.4592378,15.4178626 19.6264673,13.1595495 18.5168033,10.87829 C18.2823605,10.3964146 18.0411642,9.92792462 17.7953047,9.47090784" id="Fill-216"></path>
                <path d="M22.1130849,8.77023337 C22.2598693,8.18664802 22.3794173,7.61397081 22.4622234,7.06492789 C22.8954477,4.19426973 22.3763098,2.17808234 21.0002285,1.3890604 C20.5967998,1.15817149 20.1326831,1.04 19.6203085,1.04 C18.1297976,1.04 16.2866749,2.03809457 14.4066276,3.74521808 C14.57224,3.90338607 14.7380351,4.06700813 14.9034646,4.23608426 C16.6348995,2.66349445 18.3093023,1.73448475 19.6203085,1.73448475 C20.0083825,1.73448475 20.3545963,1.82174985 20.6503587,1.99082598 C21.7440216,2.61804388 22.1523858,4.42879469 21.7707097,6.96130059 C21.6915594,7.4867092 21.5789577,8.03211607 21.4391195,8.5902491 C19.2962129,8.05393235 16.7535335,7.74486846 14.0000914,7.74486846 C13.2164489,7.74486846 12.4509032,7.7721388 11.7054649,7.81940739 C12.3313552,6.98129884 12.9744283,6.20318504 13.6207916,5.50870029 C13.4549965,5.33780614 13.289567,5.17418407 13.1241374,5.01419806 C12.330624,5.86503278 11.5444225,6.83222096 10.7867369,7.89212831 C4.53532841,8.46662355 0,10.6918836 0,13.42619 C0,15.3751106 2.30065872,17.0622358 5.88070011,18.0821467 L5.88015172,18.0839647 L5.98215137,18.111235 C6.1254627,18.1512315 6.27133316,18.18941 6.41848319,18.2275885 L6.56837515,18.267585 L6.56874074,18.265767 C8.71018495,18.8020837 11.2501224,19.1093296 14.0000914,19.1093296 C14.7839166,19.1093296 15.5492796,19.0820593 16.2945351,19.0347907 C15.6688276,19.8728992 15.0257545,20.649195 14.3792084,21.3454978 C14.5450035,21.5163919 14.7106158,21.680014 14.8758626,21.84 C15.6691932,20.9891653 16.4552119,20.0219771 17.2125319,18.9638878 C19.5696743,18.747543 21.6831509,18.2948553 23.4012417,17.6694555 C23.2745647,17.471291 23.1738446,17.2549462 23.1056621,17.0222393 C21.5954092,17.5621921 19.7605123,17.9730653 17.7397129,18.2039542 C18.1573996,17.5840084 18.5650326,16.9404283 18.9560313,16.2677598 C19.2209013,15.8114361 19.4718789,15.3532943 19.7115233,14.8969705 C19.596728,14.6224491 19.4766316,14.3461096 19.351417,14.0697701 C19.0415793,14.6860799 18.7079784,15.3060257 18.3500656,15.9205174 C17.8673038,16.7513539 17.3571228,17.5440119 16.8310386,18.2930373 C15.9152353,18.3712123 14.9683569,18.4148449 14.0000914,18.4148449 C11.3513909,18.4148449 8.85550703,18.105781 6.7553745,17.5803723 C7.0001371,16.7277196 7.30778119,15.8350704 7.68159711,14.9187868 C7.53810298,14.6424473 7.39917873,14.3642898 7.26610392,14.0879504 C6.76725618,15.2314868 6.36784896,16.3422988 6.06587151,17.3985701 C2.83186118,16.4786505 0.699556722,15.0260502 0.699556722,13.42619 C0.699556722,11.2082021 4.80330598,9.27382571 10.2602871,8.65024386 C9.84260039,9.27018967 9.43496739,9.91376978 9.04415154,10.5864382 C8.77781912,11.04458 8.5266587,11.5009038 8.28829393,11.9572275 C8.40345483,12.231749 8.52391678,12.5099065 8.64986258,12.788064 C8.95768947,12.1717542 9.29055929,11.5518084 9.64993439,10.9336806 C10.1326962,10.1028442 10.64306,9.31018617 11.169327,8.55934271 C12.0851303,8.48298575 13.0320087,8.4393532 14.0000914,8.4393532 C16.6533618,8.4393532 19.1534499,8.75023512 21.2555932,9.27564374 C21.0080887,10.1392046 20.6960575,11.0336719 20.3226072,11.9426833 C20.4642734,12.2172048 20.6017352,12.4917262 20.7331649,12.7644297 C21.2236041,11.6354375 21.6237425,10.5246255 21.9295586,9.45380998 C25.1661281,10.3737296 27.3006261,11.8263299 27.3006261,13.42619 C27.3006261,13.6934394 27.2392069,13.9552347 27.1260568,14.2115759 C27.3231099,14.3533817 27.4991415,14.5224578 27.6488507,14.7151683 C27.8762477,14.3024771 28,13.8716056 28,13.42619 C28,11.4790875 25.6967822,9.79014422 22.1130849,8.77023337" id="Fill-217"></path>
                <path d="M6.60705958,9.36 C6.39977487,9.42308824 6.19667122,9.48617647 6,9.555 C6.54064485,11.6235294 7.37364316,13.8813235 8.48323551,16.1620588 C8.71753638,16.6438235 8.95875211,17.1122059 9.20463134,17.5691176 C9.46546595,17.6092647 9.72983839,17.6475 10,17.68 C9.66149393,17.0739706 9.33215406,16.4469118 9.01616145,15.7969118 C7.94886227,13.6041176 7.13709094,11.3883824 6.60705958,9.36" id="Fill-218"></path>
                <path d="M20.9845908,18.9040243 C21.6223556,21.9238625 21.3790699,24.2756926 20.1083038,25.0393933 C19.8233826,25.2105359 19.4887105,25.2970273 19.1141671,25.2970273 C17.1756445,25.2970273 14.4146436,23.0942568 11.8933999,19.7174115 C11.5920715,19.7026896 11.2939187,19.6824469 11,19.6585238 C13.7574725,23.5138322 16.8552626,26 19.1141671,26 C19.6086773,26 20.0566122,25.8822245 20.4459751,25.6466734 C22.0023681,24.7118301 22.36121,22.0894843 21.6500538,18.72 C21.4332314,18.7844085 21.2102343,18.8451365 20.9845908,18.9040243" id="Fill-219"></path>
                <path d="M5.91535911,8.13602224 C5.34044479,5.11694718 5.55975512,2.7657114 6.70513075,2.00220369 C6.96260966,1.83110437 7.26382341,1.74279505 7.60145636,1.74279505 C7.64519119,1.74279505 7.68972121,1.7464746 7.73441026,1.74831438 C7.79500289,1.50730351 7.88517617,1.27917109 8,1.07127622 C7.86434249,1.05103867 7.73138858,1.04 7.60145636,1.04 C7.15552005,1.04 6.75172823,1.15958554 6.40105435,1.3932373 C4.99788174,2.32784433 4.67424394,4.9513672 5.31563521,8.32 C5.51109017,8.25560778 5.71195235,8.19489512 5.91535911,8.13602224" id="Fill-220"></path>
                <path d="M16.0242305,7.21550388 C16.3533407,7.23162791 16.6787899,7.25379845 17,7.28 C15.8328918,5.64341085 14.6100968,4.23457364 13.406378,3.12 C13.299051,3.35581395 13.1624356,3.57550388 13,3.77100775 C14.0058288,4.71829457 15.0320825,5.88325581 16.0242305,7.21550388" id="Fill-221"></path>
                <path d="M8.79074015,25.3216619 C8.4029953,25.3216619 8.05707502,25.2382015 7.76138076,25.0730563 C7.24359618,24.7818327 6.89073558,24.2544337 6.69311904,23.544132 C6.48911009,23.5956289 6.27688233,23.624041 6.0569837,23.624041 C6.03762385,23.624041 6.01917721,23.6222652 6,23.6222652 C6.24199808,24.5598634 6.7084608,25.2666135 7.41217296,25.660831 C7.81525958,25.8863517 8.27898269,26 8.79074015,26 C10.2798046,26 12.121547,25.0268867 14,23.3594536 C13.8343455,23.204963 13.6686909,23.0451451 13.5034017,22.88 C11.7736176,24.4142516 10.1006347,25.3216619 8.79074015,25.3216619" id="Fill-222"></path>
            </g>
        </g>
    </symbol>
    <symbol id="icon-len" viewBox="0 0 82 64">
        <g id="Artboard" transform="translate(-333.000000, -125.000000)" fill="" fill-rule="nonzero">
            <g id="letters" transform="translate(333.000000, 125.000000)">
                <path d="M76.7201495,0.000318781458 L72.0232655,0.000318781458 C71.3506119,0.000318781458 70.8054422,0.543044213 70.8054422,1.21232588 C70.8054422,1.88160756 71.3506119,2.42433299 72.0232655,2.42433299 L76.7201495,2.42433299 C78.2882332,2.42433299 79.564033,3.69403953 79.564033,5.25463416 L79.564033,10.6677027 L79.564033,53.3322973 C79.564033,54.8919356 78.2883934,56.1606858 76.7201495,56.1606858 L49.6134898,56.1606858 C49.0273202,56.1606858 48.4440334,56.2123284 47.8850903,56.3133821 C45.6715794,56.7035706 43.67572,57.8602691 42.218464,59.5115571 L42.218464,9.78388111 C42.218464,9.5640813 42.2283936,9.34619417 42.247292,9.1308573 C42.2479326,9.12432228 42.2484131,9.11778726 42.2490537,9.11109285 C42.5471033,5.83306312 45.0042109,3.12246438 48.3099832,2.5376598 C48.7377588,2.46242737 49.1762649,2.42401421 49.6131695,2.42401421 L67.9633205,2.42401421 C68.6359741,2.42401421 69.1811438,1.88128877 69.1811438,1.2120071 C69.1811438,0.542725432 68.6359741,0 67.9633205,0 L49.6134898,0 C49.0345272,0 48.4530021,0.0506862518 47.8846098,0.15094302 C44.8706411,0.684105009 42.3891899,2.54578872 40.9974375,5.06719066 C39.3214089,2.04912721 36.09107,0 32.3879516,0 L5.27953016,0 C2.36838137,0.000318781458 0,2.35738888 0,5.25463416 L0,40.0848556 C0,40.7541373 0.545169745,41.2968627 1.21782337,41.2968627 C1.89047699,41.2968627 2.43564674,40.7541373 2.43564674,40.0848556 L2.43564674,5.25463416 C2.43564674,3.69403953 3.71128628,2.42433299 5.27953016,2.42433299 L32.3879516,2.42433299 C36.4655138,2.42433299 39.7829774,5.72579316 39.7829774,9.78388111 L39.7829774,59.4847794 C37.9544806,57.4024989 35.2914129,56.1605264 32.3879516,56.1605264 L5.27953016,56.1605264 C3.71144644,56.1605264 2.43564674,54.8916168 2.43564674,53.3321379 L2.43564674,44.1249324 C2.43564674,43.4556508 1.89047699,42.9129253 1.21782337,42.9129253 C0.545169745,42.9129253 0,43.4558102 0,44.1252512 L0,53.3324567 L0,58.7456846 C0,61.6429299 2.36838137,64 5.27953016,64 L76.7204698,64 C79.6316186,64 82,61.6430893 82,58.7456846 L82,53.3324567 L82,10.6678621 L82,5.25463416 C81.9996797,2.35738888 79.6312983,0.000318781458 76.7201495,0.000318781458 Z M5.27953016,61.575667 C3.71128628,61.575667 2.43564674,60.3059605 2.43564674,58.7453658 L2.43564674,57.7539555 C3.25708493,58.2788292 4.232753,58.5845406 5.27953016,58.5845406 L32.3879516,58.5845406 C34.7909266,58.5845406 36.9749688,59.7162148 38.3451002,61.575667 L5.27953016,61.575667 Z M79.5638728,58.7455252 C79.564033,60.3061199 78.2883934,61.5758264 76.7201495,61.5758264 L43.6653099,61.5758264 C44.7796727,60.0824947 46.4443303,59.0294001 48.3152683,58.6993019 C48.7359971,58.6232725 49.1727415,58.5847 49.6134898,58.5847 L76.7201495,58.5847 C77.7667665,58.5847 78.7424346,58.2788292 79.564033,57.7541149 L79.564033,58.7455252 L79.5638728,58.7455252 Z" id="Shape"></path>
                <path d="M32.9497606,44.4679449 L28.9367601,31.047387 C28.935665,31.0439425 28.9347264,31.0403415 28.9336314,31.036897 L23.7860153,13.8211698 C23.2813593,12.1338538 21.760039,11 20.0000005,11 C18.2401183,11 16.718798,12.1336972 16.2139856,13.8210132 L11.0659002,31.0378364 C11.0651181,31.0403415 11.0644923,31.04269 11.0637102,31.0453516 L7.05024034,44.4677883 C6.86189385,45.0976549 7.21950189,45.7611833 7.84883574,45.9495327 C8.47801315,46.1385083 9.14098029,45.7802844 9.32948322,45.1504178 L13.0864013,32.5853386 L26.9131303,32.5853386 L30.6702048,45.1504178 C30.8246052,45.6664606 31.2973486,45.999947 31.8095134,45.999947 C31.9224587,45.999947 32.0374377,45.9838207 32.1510088,45.9496892 C32.780499,45.7611833 33.1381071,45.0978115 32.9497606,44.4679449 Z M13.7984888,30.2041204 L18.4930721,14.5037993 C18.6940897,13.8321294 19.2994892,13.3809051 20.0000005,13.3809051 C20.7005118,13.3809051 21.3059112,13.8319729 21.5067724,14.5036427 L26.2015122,30.2041204 L13.7984888,30.2041204 Z" id="Shape"></path>
                <path d="M61.5,24 C55.1587775,24 50,29.272277 50,35.7530142 C50,42.2335891 55.1587775,47.5058661 61.5,47.5058661 C65.1903341,47.5058661 68.477728,45.7180205 70.5836304,42.947753 L70.5836304,46.7652336 C70.5836304,47.4470832 71.1246442,48 71.7918152,48 C72.459145,48 73,47.4470832 73,46.7652336 L73,35.7530142 C73,29.2724394 67.8412225,24 61.5,24 Z M61.5001589,45.036171 C56.4913717,45.036171 52.4165285,40.8716762 52.4165285,35.7528519 C52.4165285,30.6340275 56.4913717,26.4693704 61.5001589,26.4693704 C66.5089461,26.4693704 70.5837893,30.6338651 70.5837893,35.7528519 C70.5836304,40.8718386 66.5087872,45.036171 61.5001589,45.036171 Z" id="Shape"></path>
            </g>
        </g>
    </symbol>

    <symbol id="icon-mat" viewBox="0 0 65 65">
            
        <path d="M64.5888917,3.82841557 L62.0890156,0.703694551 C61.733449,0.258864305 61.1943963,0 60.6250929,0 L36.8750311,0 C35.8395736,0 35,0.839573486 35,1.87503096 L35,28.1249689 C35,29.1604264 35.8395736,30 36.8750311,30 L63.124969,30 C64.1604265,30 65,29.1604264 65,28.1249689 L65,4.99975198 C65,4.57426233 64.8551946,4.16117037 64.5888917,3.82841557 Z M55,16.874783 L51.875279,16.874783 L51.875279,19.9999999 C51.875279,21.0354574 51.0357054,21.875031 50.0002479,21.875031 C48.9647905,21.875031 48.125217,21.0354574 48.125217,19.9999999 L48.125217,16.874783 L45.0000001,16.874783 C43.9645426,16.874783 43.124969,16.0352095 43.124969,14.9997521 C43.124969,13.9642946 43.9645426,13.124721 45.0000001,13.124721 L48.125217,13.124721 L48.125217,9.99999996 C48.125217,8.96454248 48.9647905,8.124969 50.0002479,8.124969 C51.0357054,8.124969 51.875279,8.96454248 51.875279,9.99999996 L51.875279,13.124721 L55,13.124721 C56.0354575,13.124721 56.875031,13.9642946 56.875031,14.9997521 C56.875031,16.0352095 56.0354575,16.874783 55,16.874783 Z" id="Shape"></path>
        <path d="M28.1249689,35 L1.87503096,35 C0.839573486,35 0,35.8395736 0,36.8750311 L0,60.000248 C0,60.4971485 0.197867624,60.9742127 0.549466898,61.3258121 L3.67418791,64.4505331 C4.02578731,64.8021324 4.50285147,65 4.99975198,65 L28.1249689,65 C29.1604264,65 30,64.1604265 30,63.124969 L30,36.8750311 C30,35.8395736 29.1604264,35 28.1249689,35 Z M19.8611455,52.2100173 C20.5936028,52.9419787 20.5936028,54.1291843 19.8611455,54.8616415 C19.1391023,55.5836846 17.9320605,55.5836846 17.2095215,54.8616415 L14.9997521,52.6518721 L12.7899827,54.8616415 C12.0679395,55.5836846 10.8608976,55.5836846 10.1383585,54.8616415 C9.40639721,54.1291843 9.40639721,52.9419787 10.1383585,52.2100173 L12.3481279,50.0002479 L10.1383585,47.7904785 C9.40639721,47.0580213 9.40639721,45.8708157 10.1383585,45.1388545 C10.8708157,44.4063972 12.0580213,44.4063972 12.7899827,45.1388545 L14.9997521,47.3486239 L17.2095215,45.1388545 C17.9419787,44.4063972 19.1291843,44.4063972 19.8611455,45.1388545 C20.5936028,45.8708157 20.5936028,47.0580213 19.8611455,47.7904785 L17.6513761,50.0002479 L19.8611455,52.2100173 Z" id="Shape"></path>
        <path d="M28.1249689,0 L4.99975198,0 C4.50285147,0 4.02578731,0.197867624 3.67418791,0.549466898 L0.549466898,3.67418791 C0.197867624,4.02578731 0,4.50285147 0,4.99975198 L0,28.1249689 C0,29.1604264 0.839573486,30 1.87503096,30 L28.1249689,30 C29.1604264,30 30,29.1604264 30,28.1249689 L30,1.87503096 C30,0.839573486 29.1604264,0 28.1249689,0 Z M19.9999999,16.874783 L9.99999996,16.874783 C8.96454248,16.874783 8.124969,16.0352095 8.124969,14.9997521 C8.124969,13.9642946 8.96454248,13.124721 9.99999996,13.124721 L19.9999999,13.124721 C21.0354574,13.124721 21.875031,13.9642946 21.875031,14.9997521 C21.875031,16.0352095 21.0354574,16.874783 19.9999999,16.874783 Z" id="Shape"></path>
        <path d="M63.124969,35 L36.8750311,35 C35.8395736,35 35,35.8395736 35,36.8750311 L35,63.124969 C35,64.1604265 35.8395736,65 36.8750311,65 L60.000248,65 C60.4971485,65 60.9742127,64.8021324 61.3258121,64.4505331 L64.4505331,61.3258121 C64.8021324,60.9742127 65,60.4971485 65,60.000248 L65,36.8750311 C65,35.8395736 64.1604265,35 63.124969,35 Z M55,55.6248451 L45.0000001,55.6248451 C43.9645426,55.6248451 43.124969,54.7857675 43.124969,53.749814 C43.124969,52.7143565 43.9645426,51.875279 45.0000001,51.875279 L55,51.875279 C56.0354575,51.875279 56.875031,52.7143565 56.875031,53.749814 C56.875031,54.7857675 56.0354575,55.6248451 55,55.6248451 Z M55,48.125217 L45.0000001,48.125217 C43.9645426,48.125217 43.124969,47.2856435 43.124969,46.250186 C43.124969,45.2147285 43.9645426,44.3751549 45.0000001,44.3751549 L55,44.3751549 C56.0354575,44.3751549 56.875031,45.2147285 56.875031,46.250186 C56.875031,47.2856435 56.0354575,48.125217 55,48.125217 Z" id="Shape"></path>
            
    </symbol>
    <symbol id="icon-soc" viewBox="0 0 71 71">
       
        <path d="M63.0803105,67.6845137 L61.9138027,67.2167734 C67.7800391,60.6911523 71,52.3092695 71,43.5 C71,36.293084 68.8211875,29.3586582 64.8514277,23.5293086 C64.8033086,23.4345957 64.7436797,23.3493125 64.6743438,23.2748457 C62.9352598,20.7683516 60.8650273,18.4694492 58.4893008,16.448584 C58.0176777,16.0474063 57.3103125,16.1045391 56.9091348,16.5761621 C56.507957,17.0477852 56.5650898,17.7554277 57.0365742,18.1564668 C58.9424805,19.7776797 60.6388535,21.5898438 62.1104395,23.5510801 C59.7374863,24.4785176 56.889166,25.2639551 53.7094199,25.8845117 C52.831627,23.2691602 51.7527598,20.8307539 50.4844668,18.6307246 C48.7750586,15.6652266 46.8088301,13.2772969 44.6659336,11.5210176 C48.0011309,12.4745254 51.1782422,13.9519355 54.0938184,15.9214922 C54.6069043,16.2677559 55.3035918,16.1331055 55.6502715,15.6200195 C55.9968125,15.1070723 55.8618848,14.4102461 55.3487988,14.0635664 C49.4775703,10.0967188 42.6138672,8 35.5,8 C26.0174785,8 17.1028184,11.6925547 10.3978945,18.3978945 C3.69255469,25.1028184 0,34.0177559 0,43.5 C0,52.3206406 3.22439844,60.7036328 9.10020313,67.2316113 L7.94839453,67.6827109 C7.52419727,67.8359434 3.91720312,69.2746641 3.91720312,73.860959 L3.91720312,77.8778672 C3.91720312,78.4971758 4.41891797,79 5.03822656,79 L11.4870234,79 L12.4908691,79 L13.6866367,79 L19.4223828,79 L21.5393477,79 C21.5934297,79 21.6462637,78.9948691 21.6982656,78.9873809 C21.7504062,78.9948691 21.8031016,79 21.8571836,79 L26.4186562,79 C27.0379648,79 27.5396797,78.4982852 27.5396797,77.8789766 C27.5396797,77.259668 27.0378262,76.7579531 26.4186562,76.7579531 L22.978207,76.7579531 L22.978207,72.8536465 C22.978207,68.7345371 26.2136992,67.5497246 26.3443281,67.5036855 C26.3616621,67.4978613 26.3788574,67.4916211 26.3960527,67.4848262 L31.8552871,65.3467832 C31.8670742,65.359541 31.878168,65.3728535 31.8906484,65.3850566 L34.7919414,68.2109121 C35.0014746,68.4147598 35.2822852,68.5288867 35.5741895,68.5288867 C35.5800137,68.5288867 35.5859766,68.5288867 35.5918008,68.528748 C35.890084,68.5241719 36.1745,68.4006152 36.3812598,68.1856738 L39.1670391,65.2951973 L44.6189238,67.481498 C44.6387539,67.489541 44.6517891,67.4945332 44.6720352,67.5011895 C44.8097363,67.5495859 48.0456445,68.7348145 48.0456445,72.8536465 L48.0456445,76.7579531 L39.8459766,76.7579531 L31.177459,76.7579531 L29.9223398,76.7579531 C29.3030312,76.7579531 28.8013164,77.2598066 28.8013164,77.8789766 C28.8013164,78.4982852 29.3031699,79 29.9223398,79 L31.177459,79 L39.8459766,79 L49.1668066,79 L49.1669453,79 L49.167084,79 L50.5973457,79 L51.6010527,79 L52.7970977,79 L58.5325664,79 L65.9854863,79 C66.6047949,79 67.1065098,78.4902422 67.1065098,77.8710723 L67.1065098,73.860959 C67.1067871,69.2922754 63.5269727,67.8468984 63.0803105,67.6845137 Z M59.6882578,66.3242812 L58.5831816,65.8810859 L58.5831816,65.2431953 C59.8044648,64.5269551 60.7431348,63.3797227 61.1891035,62.0113086 C62.8200234,61.8824824 64.1082852,60.5169805 64.1082852,58.8536113 C64.1082852,57.8643262 63.652332,56.9801543 62.940252,56.3980098 L62.940252,54.4055723 C62.940252,50.564084 60.057541,47.3853086 56.3422441,46.9135469 C56.3845391,46.1534863 56.4137988,45.3877402 56.4279434,44.6210234 L68.7371523,44.6210234 C68.4677129,52.7356855 65.2802012,60.4004961 59.6882578,66.3242812 Z M55.6409805,63.8005918 L54.6185527,63.8005918 C52.637625,63.8005918 51.0261191,62.1890859 51.0261191,60.2084355 L51.0261191,57.2422441 C52.4864727,57.0837422 55.0731191,56.573291 57.0659727,54.9089512 C57.5123574,55.6745586 58.203082,56.5025684 59.2334141,56.9861172 L59.2334141,60.2082969 C59.2332754,62.1890859 57.6217695,63.8005918 55.6409805,63.8005918 Z M56.3412734,65.9990957 L56.3412734,66.620623 L55.0921172,67.9166504 L53.9183984,66.7735781 L53.9183984,65.998957 C54.1481777,66.0265527 54.3815625,66.0425 54.6186914,66.0425 L55.6411191,66.0425 C55.878248,66.0426387 56.1113555,66.0266914 56.3412734,65.9990957 Z M49.9087012,55.073 C49.9074531,55.073 49.9062051,55.073 49.904957,55.073 C49.8664062,55.073 49.8281328,55.0750801 49.7905527,55.0788242 C49.7784883,55.0800723 49.7667012,55.0825684 49.7546367,55.0842324 C49.7293984,55.0875605 49.7041602,55.0906113 49.6794766,55.0957422 C49.6625586,55.0990703 49.646334,55.1042012 49.6296934,55.1085 C49.610418,55.1133535 49.5910039,55.1175137 49.5722832,55.1233379 C49.5600801,55.127082 49.5485703,55.1322129 49.5365059,55.136373 L49.5365059,54.4057109 C49.5365059,51.4761289 51.9198594,49.0929141 54.8494414,49.0929141 L55.3855469,49.0929141 C58.3149902,49.0929141 60.6979277,51.4761289 60.6979277,54.4057109 L60.6979277,55.1272207 C60.6768496,55.1204258 60.6554941,55.1151562 60.6338613,55.109748 C60.6235996,55.1068359 60.6133379,55.1035078 60.6029375,55.100873 C59.0401055,54.745457 58.5289609,52.6596934 58.5252168,52.6438848 C58.4280078,52.2142793 58.088123,51.8814668 57.6564375,51.7932715 C57.224752,51.7047988 56.7816953,51.877584 56.5234883,52.2345254 C54.4934707,55.0408281 49.9680527,55.073 49.9087012,55.073 Z M61.4753223,59.6090957 L61.4753223,58.0984043 C61.7113418,58.2668906 61.8660996,58.5424316 61.8660996,58.8538887 C61.8660996,59.1653457 61.7113418,59.4406094 61.4753223,59.6090957 Z M63.4261582,25.4377109 C66.6734375,30.4543047 68.5328887,36.294332 68.736875,42.3788379 L56.4273887,42.3788379 C56.3364199,37.332707 55.6312734,32.4657402 54.3739355,28.0333711 C57.820625,27.348748 60.8937324,26.4738672 63.4261582,25.4377109 Z M54.1850645,42.3791152 L42.7112148,42.3791152 C42.7099668,42.3789766 42.7088574,42.3791152 42.707748,42.3791152 C41.1783359,40.6884277 39.0283672,39.5714258 36.6210234,39.3856055 L36.6210234,29.7451367 C42.1222754,29.6903613 47.4310508,29.2328828 52.1608711,28.437877 C53.3985176,32.724502 54.093125,37.4579277 54.1850645,42.3791152 Z M44.295957,54.0855176 C44.295957,54.7449023 43.850543,55.3008379 43.2449629,55.4718203 L43.2449629,52.6987988 C43.850543,52.8700586 44.295957,53.4261328 44.295957,54.0855176 Z M36.6208848,10.3043105 C41.0822363,10.7807871 45.2795566,14.0908848 48.5419512,19.7503613 C49.6868262,21.7362812 50.6698711,23.9303477 51.4802695,26.2838867 C46.9603984,27.0239785 41.8879199,27.4499785 36.6208848,27.5028125 L36.6208848,10.3043105 Z M35.9100527,41.5974219 C39.7286602,41.5974219 42.8351875,44.7042266 42.8351875,48.5229727 L42.8351875,49.8929121 C42.8276992,49.8869492 42.8197949,49.8816797 42.812168,49.8757168 C42.7959434,49.862959 42.7794414,49.8504785 42.7623848,49.8386914 C42.7492109,49.8295391 42.7356211,49.8210801 42.7220312,49.8124824 C42.705252,49.8018047 42.6886113,49.7912656 42.6711387,49.7815586 C42.6551914,49.7725449 42.6386895,49.7646406 42.6223262,49.756459 C42.6066562,49.7486934 42.591125,49.7407891 42.5750391,49.7335781 C42.5553477,49.7248418 42.5349629,49.7176309 42.5148555,49.7100039 C42.5008496,49.7047344 42.4869824,49.6993262 42.4728379,49.6946113 C42.4502344,49.687123 42.4269375,49.6811602 42.4037793,49.6751973 C42.3935176,49.6722852 42.3833945,49.6688184 42.3728555,49.6663223 C40.2432715,49.1820801 39.5686328,46.4054531 39.5629473,46.3813242 C39.4657383,45.9517187 39.1258535,45.6189062 38.694168,45.5307109 C38.2626211,45.4419609 37.8194258,45.6150234 37.5612187,45.9719648 C34.9360215,49.6012852 29.1369023,49.6384492 29.0603555,49.6384492 C29.0602168,49.6384492 29.0600781,49.6384492 29.0600781,49.6384492 C29.0585527,49.6384492 29.0574434,49.6384492 29.0560566,49.6384492 C29.0175059,49.6384492 28.9792324,49.6403906 28.9416523,49.6441348 C28.9298652,49.6455215 28.9184941,49.6478789 28.906707,49.649543 C28.8813301,49.6530098 28.8555371,49.6560605 28.8305762,49.6610527 C28.8146289,49.6643809 28.7990977,49.669373 28.7831504,49.6732559 C28.7631816,49.678248 28.7427969,49.6826855 28.7233828,49.6886484 C28.7052168,49.694334 28.6877441,49.7016836 28.6699941,49.7082012 C28.6537695,49.7141641 28.6368516,49.7194336 28.6207656,49.7260898 C28.6002422,49.7348262 28.5806895,49.7450879 28.5611367,49.7546562 C28.5483789,49.7608965 28.5354824,49.7663047 28.523002,49.7730996 C28.5027559,49.783916 28.4838965,49.7963965 28.4644824,49.8083223 C28.4533887,49.8153945 28.4417402,49.8216348 28.4306465,49.8289844 C28.4126191,49.8411875 28.3955625,49.8547773 28.3780898,49.8680898 C28.3668574,49.8765488 28.355209,49.8843145 28.3442539,49.8933281 C28.3339922,49.9017871 28.3244238,49.9113555 28.3143008,49.9202305 L28.3143008,48.522834 C28.3143008,44.7040879 31.4208281,41.5974219 35.2394355,41.5974219 L35.9100527,41.5974219 Z M16.8149355,42.3789766 C16.906875,37.456957 17.6017598,32.7225605 18.8396836,28.4355195 C23.5761602,29.2316348 28.8906211,29.690084 34.3789766,29.7452754 L34.3789766,39.3971152 C32.0289043,39.6171875 29.9339883,40.7268398 28.4356387,42.3864648 C28.3948691,42.3820273 28.3534063,42.3791152 28.3113887,42.3791152 L16.8149355,42.3791152 L16.8149355,42.3789766 Z M27.9350332,52.6872891 L27.9350332,55.4837461 C27.3064336,55.3282949 26.8386934,54.7614043 26.8386934,54.0855176 C26.8385547,53.4097695 27.3064336,52.8428789 27.9350332,52.6872891 Z M34.3789766,10.3043105 L34.3789766,27.5028125 C29.1244219,27.4495625 24.0479219,27.0218984 19.5208398,26.2804199 C20.3310996,23.9282676 21.3137285,21.7355879 22.4580488,19.7503613 C25.7204434,14.0908848 29.9177637,10.7807871 34.3789766,10.3043105 Z M26.3217246,11.5308633 C24.1836816,13.2864492 22.2216133,15.6706348 20.5153945,18.6305859 C19.2475176,20.8300605 18.1690664,23.2673574 17.2914121,25.8820156 C14.1156875,25.262291 11.2719434,24.4786562 8.90342773,23.5548242 C13.1969863,17.843623 19.2846816,13.5543633 26.3217246,11.5308633 Z M7.58396484,25.4429805 C10.1100117,26.4752539 13.1836738,27.3468066 16.6270352,28.0307363 C15.3688652,32.4636602 14.6637187,37.3317363 14.5724727,42.3789766 L2.263125,42.3789766 C2.47043945,36.1517773 4.39728516,30.3529355 7.58396484,25.4429805 Z M14.8077988,65.9992344 C15.0375781,66.0268301 15.2709629,66.0426387 15.5080918,66.0426387 L16.5306582,66.0426387 C16.7675098,66.0426387 17.0008945,66.0268301 17.2305352,65.9990957 L17.2305352,66.6204844 L15.9816562,67.9165117 L14.8077988,66.7734395 L14.8077988,65.9992344 Z M16.5306582,63.8005918 L15.5080918,63.8005918 C13.5271641,63.8005918 11.9156582,62.1890859 11.9156582,60.2082969 L11.9156582,57.2434922 C13.3757344,57.0855449 15.9614102,56.5742617 17.9555117,54.9089512 C18.4020352,55.6746973 19.0926211,56.5028457 20.1228145,56.9863945 L20.1228145,60.2084355 C20.1226758,62.1890859 18.5113086,63.8005918 16.5306582,63.8005918 Z M19.4151719,52.6437461 C19.3179629,52.2141406 18.9780781,51.8813281 18.5463926,51.7931328 C18.114707,51.7046602 17.6715117,51.8774453 17.413582,52.2343867 C15.3820391,55.0423535 10.8530156,55.0731387 10.7983789,55.0731387 C10.7969922,55.0731387 10.7958828,55.0731387 10.7946348,55.0731387 C10.756084,55.0731387 10.7178105,55.0750801 10.6802305,55.0788242 C10.6684434,55.0802109 10.6570723,55.0825684 10.6452852,55.0842324 C10.6199082,55.0875605 10.5941152,55.09075 10.5691543,55.0957422 C10.553207,55.0990703 10.5376758,55.1040625 10.5217285,55.1079453 C10.5017598,55.1129375 10.4815137,55.117375 10.4619609,55.1233379 C10.4498965,55.127082 10.4385254,55.1322129 10.4265996,55.136373 L10.4265996,54.4057109 C10.4265996,51.4761289 12.8098145,49.0927754 15.7393965,49.0927754 L16.2756406,49.0927754 C19.205084,49.0927754 21.5880215,51.4761289 21.5880215,54.4057109 L21.5880215,55.1273594 L21.5877441,55.1273594 C21.56625,55.1202871 21.5439238,55.1150176 21.5220137,55.109332 C21.512168,55.1068359 21.5025996,55.1033691 21.4926152,55.1010117 C19.9300605,54.7455957 19.418916,52.659416 19.4151719,52.6437461 Z M2.26298633,44.6210234 L14.5721953,44.6210234 C14.5862012,45.3931484 14.6160156,46.1643027 14.6585879,46.9292168 C11.0030586,47.4549219 8.18413672,50.6066562 8.18413672,54.4055723 L8.18413672,56.3892734 C7.46512305,56.9711406 7.00403906,57.8591953 7.00403906,58.8536113 C7.00403906,60.5293223 8.31213086,61.9020352 9.96052344,62.01325 C10.4064922,63.380832 11.3447461,64.5270938 12.5656133,65.2431953 L12.5656133,65.8745684 L11.341002,66.3540957 C5.73019922,60.4257344 2.53256445,52.7531582 2.26298633,44.6210234 Z M9.67333398,58.0734434 L9.67333398,59.6337793 C9.41679102,59.4684824 9.24608594,59.180877 9.24608594,58.8538887 C9.24608594,58.526623 9.41679102,58.2390176 9.67333398,58.0734434 Z M20.7358828,72.8537852 L20.7358828,76.7579531 L19.4221055,76.7579531 L13.686498,76.7579531 L12.4907305,76.7579531 L11.4870234,76.7579531 L6.15938867,76.7579531 L6.15938867,73.860959 C6.15938867,70.7354336 8.60278711,69.8296289 8.69777734,69.7959316 C8.71511133,69.7901074 8.73244531,69.7838672 8.74950195,69.7770723 L12.9777461,68.1211914 L15.2245078,70.3094336 C15.4339023,70.5134199 15.7145742,70.6274082 16.0066172,70.6274082 C16.0124414,70.6274082 16.0184043,70.6274082 16.0243672,70.6272695 C16.3226504,70.6226934 16.6069277,70.4991367 16.8136875,70.2841953 L18.9359219,68.0818086 L21.5591777,69.1336348 C21.0617617,70.151625 20.7358828,71.3845566 20.7358828,72.8537852 Z M31.5520117,63.0577266 L25.6018789,65.3878301 C24.8441758,65.6485332 23.7955391,66.2499531 22.8653281,67.2417344 L19.4724434,65.8810859 L19.4724434,65.2434727 C20.6940039,64.5270937 21.6325352,63.3798613 22.0785039,62.0113086 C23.7095625,61.8824824 24.9979629,60.5169805 24.9979629,58.8536113 C24.9979629,57.8643262 24.5418711,56.9801543 23.829791,56.3980098 L23.829791,54.4055723 C23.829791,50.4507891 20.7748496,47.1982402 16.9013281,46.8786016 C16.8586172,46.1307441 16.8290801,45.3763691 16.8147969,44.6208848 L26.9461641,44.6208848 C26.3864844,45.8055586 26.0719766,47.1277949 26.0719766,48.5226953 L26.0719766,51.1386016 C25.1765723,51.8112988 24.5962305,52.881707 24.5962305,54.0855176 C24.5962305,56.0976465 26.2182754,57.7373027 28.2234707,57.7680879 C28.7495918,59.5450293 29.9614453,61.0296504 31.5517344,61.9142383 L31.5517344,63.0577266 L31.5520117,63.0577266 Z M22.3648613,59.6092344 L22.3648613,58.0979883 C22.6010195,58.2666133 22.755916,58.5421543 22.755916,58.85375 C22.755916,59.1653457 22.6010195,59.440748 22.3648613,59.6092344 Z M37.3860762,63.8401133 C37.3860762,63.8416387 37.3860762,63.8431641 37.3860762,63.8442734 L37.3860762,63.9122227 L35.5492285,65.8182676 L33.7940586,64.1087207 L33.7940586,62.6981504 C34.1705527,62.7609687 34.5566152,62.7952207 34.9508594,62.7952207 L36.2296914,62.7952207 C36.6236582,62.7952207 37.009582,62.7609687 37.3860762,62.6984277 L37.3860762,63.8401133 Z M36.2296914,60.5533125 L34.9508594,60.5533125 C32.3185898,60.5533125 30.1770801,58.4119414 30.1770801,55.7796719 L30.1770801,51.8216992 C31.9662246,51.656957 35.5040215,51.0350137 38.0881719,48.7151719 C38.6335684,49.7473066 39.547832,50.9455703 41.0030547,51.5670977 L41.0030547,55.7795332 C41.002916,58.4119414 38.8616836,60.5533125 36.2296914,60.5533125 Z M48.165457,67.2493613 C47.2353848,66.255084 46.1855,65.651584 45.4261328,65.3894941 L39.6279844,63.0641055 L39.6279844,61.9142383 C41.2186895,61.0295117 42.4302656,59.5444746 42.956248,57.7669785 C44.9402266,57.7120645 46.5377266,56.0822539 46.5377266,54.0856562 C46.5377266,52.8887793 45.963625,51.8237793 45.076957,51.1503887 L45.076957,48.522834 C45.076957,47.1280723 44.7625879,45.8056973 44.2027695,44.6210234 L54.1847871,44.6210234 C54.1702266,45.3795586 54.1405508,46.1369844 54.0972852,46.8884473 C50.2829766,47.2668828 47.294043,50.4936387 47.294043,54.4055723 L47.294043,56.3895508 C46.575168,56.9712793 46.1142227,57.859334 46.1142227,58.85375 C46.1142227,60.5295996 47.4223145,61.9023125 49.070707,62.0133887 C49.5166758,63.3809707 50.4550684,64.5272324 51.6759355,65.243334 L51.6759355,65.874707 L48.165457,67.2493613 Z M48.7840723,58.0734434 L48.7840723,59.6337793 C48.5273906,59.4684824 48.3568242,59.180877 48.3568242,58.8538887 C48.3568242,58.526623 48.5275293,58.2388789 48.7840723,58.0734434 Z M64.8648789,76.7579531 L58.5328437,76.7579531 L52.797375,76.7579531 L51.6013301,76.7579531 L50.597623,76.7579531 L50.2881074,76.7579531 L50.2881074,72.8536465 C50.2881074,71.3903809 49.9651406,70.1616094 49.4709141,69.1461152 L52.0884844,68.1210527 L54.3349687,70.3092949 C54.5443633,70.5132812 54.8250352,70.6274082 55.1172168,70.6274082 C55.123041,70.6274082 55.1290039,70.6274082 55.1348281,70.6272695 C55.4331113,70.6226934 55.7173887,70.4991367 55.9242871,70.2841953 L58.0466602,68.0818086 L62.2658906,69.7736055 C62.285582,69.7816484 62.2965371,69.7858086 62.3169219,69.7927422 C62.4209258,69.8296289 64.8648789,70.7355723 64.8648789,73.8610977 L64.8648789,76.7579531 Z" id="Shape"></path>
            
    </symbol>

    <symbol id="icon-close" viewBox="0 0 427 427">
        <g  fill="" fill-rule="nonzero">
         <path d="M213.333,0 C95.514,0 0,95.514 0,213.333 C0,331.152 95.514,426.666 213.333,426.666 C331.152,426.666 426.666,331.152 426.666,213.333 C426.666,95.514 331.153,0 213.333,0 Z M303.844,303.842 L303.844,303.842 C288.848996,318.838109 264.536395,318.839004 249.540286,303.844 C249.540238,303.843952 249.540191,303.843905 249.540143,303.843857 L213.333,267.639 L177.438332,303.533668 C162.270765,318.701235 137.67928,318.701235 122.511713,303.533668 C122.511039,303.532993 122.510365,303.532319 122.509691,303.531645 C122.509691,303.531645 122.509691,303.531645 122.509691,303.531645 C122.509691,303.531645 122.509691,303.531645 122.509691,303.531645 L122.509691,303.531645 C107.686771,288.706542 107.687656,264.672344 122.511668,249.848332 L159.027,213.333 L122.821143,177.124857 C107.826394,162.129162 107.826778,137.817222 122.822,122.822 L122.822,122.822 C137.817222,107.826778 162.129162,107.826394 177.124857,122.821143 L213.333,159.027 L249.541143,122.821143 C264.536838,107.826394 288.848778,107.826778 303.844,122.822 L303.844,122.822 C318.839222,137.817222 318.839606,162.129162 303.844857,177.124857 L267.639,213.333 L303.843,249.537 C318.838797,264.532797 318.839245,288.84565 303.844,303.842 Z" id="Shape"></path>
        </g>

    </symbol>
    <symbol id="icon-closes" viewBox="0 0 427 427">
        <ellipse id="Path" fill="#FFFFFF" cx="213" cy="213.5" rx="140" ry="138.5"></ellipse>
            <path d="M213.333,0 C95.514,0 0,95.514 0,213.333 C0,331.152 95.514,426.666 213.333,426.666 C331.152,426.666 426.666,331.152 426.666,213.333 C426.666,95.514 331.153,0 213.333,0 Z M303.844,303.842 C288.848996,318.838109 264.536395,318.839004 249.540286,303.844 C249.540238,303.843952 249.540191,303.843905 249.540143,303.843857 L213.333,267.639 L177.438332,303.533668 C162.270765,318.701235 137.67928,318.701235 122.511713,303.533668 C122.511039,303.532993 122.510365,303.532319 122.509691,303.531645 C122.509691,303.531645 122.509691,303.531645 122.509691,303.531645 C122.509691,303.531645 122.509691,303.531645 122.509691,303.531645 C107.686771,288.706542 107.687656,264.672344 122.511668,249.848332 L159.027,213.333 L122.821143,177.124857 C107.826394,162.129162 107.826778,137.817222 122.822,122.822 C137.817222,107.826778 162.129162,107.826394 177.124857,122.821143 L213.333,159.027 L249.541143,122.821143 C264.536838,107.826394 288.848778,107.826778 303.844,122.822 C318.839222,137.817222 318.839606,162.129162 303.844857,177.124857 L267.639,213.333 L303.843,249.537 C318.838797,264.532797 318.839245,288.84565 303.844,303.842 Z" id="Shape" fill="#3CAEEF" fill-rule="nonzero"></path>

    </symbol>

    <symbol id="icon-checked" viewBox="0 0 11 11">
            <path d="M10.2625646,2.73920152 C9.77072369,1.89659411 9.10357283,1.22944629 8.26093649,0.737632658 C7.41814964,0.245844108 6.49813013,0 5.50017559,0 C4.50232138,0 3.58202594,0.245844108 2.7393896,0.737632658 C1.89670309,1.22937104 1.22955223,1.89651886 0.737711273,2.73920152 C0.245845229,3.58193435 0,4.5022256 0,5.5 C0,6.49782457 0.24592048,7.41796531 0.737636022,8.26074831 C1.2294519,9.10335573 1.89660276,9.77050354 2.73928927,10.2623673 C3.58202594,10.7541308 4.50224613,11 5.50007525,11 C6.49790437,11 7.4182249,10.7541308 8.2609114,10.2623673 C9.10354775,9.77067913 9.77067352,9.10335573 10.2624643,8.26074831 C10.7541799,7.41804056 11,6.4977744 11,5.5 C11.0000251,4.50212526 10.7541799,3.58180894 10.2625646,2.73920152 Z M9.06637372,4.6621083 L5.17777494,8.55071443 C5.08704724,8.64151696 4.9773061,8.68686806 4.84832578,8.68686806 C4.72421169,8.68686806 4.61682842,8.64151696 4.52607563,8.55071443 L1.93352595,5.95832706 C1.84768956,5.87231549 1.80467104,5.76510829 1.80467104,5.63607839 C1.80467104,5.50243311 1.84753906,5.39254197 1.93352595,5.30658056 L2.58522525,4.6621083 C2.67605329,4.57140609 2.78333622,4.52605499 2.90755065,4.52605499 C3.03176507,4.52605499 3.13919851,4.57143118 3.22987604,4.6621083 L4.84840103,6.28057574 L7.77027446,3.36588953 C7.86100216,3.27516225 7.96838543,3.22978606 8.0925246,3.22978606 C8.21656344,3.22978606 8.3241223,3.27516225 8.41477475,3.36588953 L9.06647405,4.01046213 C9.15256127,4.09634829 9.19540421,4.20613909 9.19540421,4.33978437 C9.19540421,4.46873903 9.15256127,4.57617197 9.06637372,4.6621083 Z" id="Shape"></path>
    </symbol>

    <symbol id="icon-collapse" viewBox="0 0 41 19">
        <path d="M7.08017188,5.17769378 C6.56603385,4.91660253 5.94061719,4.94477413 5.45507812,5.25203682 L0.705078125,8.25200812 C0.264416667,8.5303492 0,8.99834473 0,9.50004305 C0,10.0017414 0.264416667,10.4697838 0.705078125,10.748078 L5.45507812,13.7480493 C5.72023698,13.9153914 6.02641406,14 6.33333333,14 C6.58923958,14 6.84667969,13.9410318 7.08017188,13.8223923 C7.59505208,13.5616292 7.91666667,13.0533684 7.91666667,12.5000144 L7.91666667,11.0000287 L17.4166667,11.0000287 C18.2910625,11.0000287 19,10.3284101 19,9.50004305 C19,8.67167598 18.2910625,8.0000574 17.4166667,8.0000574 L7.91666667,8.0000574 L7.91666667,6.50007175 C7.91666667,5.94671767 7.59505208,5.43845691 7.08017188,5.17769378 Z" id="Shape" fill="#F9F7FA" fill-rule="nonzero"></path>
                <path d="M39.3928571,9.5 L23.6071429,9.5" id="Line-Copy" stroke="#F9F7FA" stroke-width="3" stroke-linecap="round"></path>
                <path d="M39.3928571,1.5 L23.6071429,1.5" id="Line-Copy-2" stroke="#F9F7FA" stroke-width="3" stroke-linecap="round"></path>
                <path d="M39.3928571,17.5 L23.6071429,17.5" id="Line-Copy-3" stroke="#F9F7FA" stroke-width="3" stroke-linecap="round"></path>
    </symbol>
    
    <symbol id="icon-go-back" viewBox="0 0 49 33">
        <!-- <g id="Page-1" stroke="none" stroke-width="1" fill="none" fill-rule="evenodd"> -->
        <g id="Intro-unidad" transform="translate(-117.000000, -559.000000)" fill="" fill-rule="nonzero" stroke="#F9F7FA" stroke-width="3">
            <path d="M163.036775,589.999853 C162.650472,589.999853 162.296221,589.777768 162.144399,589.413277 C162.033063,589.148809 159.249663,582.874476 148.843117,581.631816 C146.675439,581.367348 144.079285,581.231723 140.926451,581.207989 L140.926451,589.028442 C140.926451,589.389542 140.732456,589.716737 140.41363,589.889658 C140.096491,590.055798 139.716937,590.032064 139.421727,589.833713 L119.428475,576.308551 C119.15857,576.127153 119,575.821998 119,575.501585 C119,575.177781 119.15857,574.882797 119.428475,574.692923 L139.430162,561.166066 C139.725371,560.960934 140.101552,560.947371 140.422065,561.116902 C140.742578,561.289823 140.933198,561.617017 140.933198,561.967946 L140.933198,569.2459 C145.282051,569.815524 164,573.195967 164,589.036918 C164,589.496347 163.6778,589.898134 163.225709,589.989681 C163.163293,589.999853 163.097503,589.999853 163.036775,589.999853 Z" id="Shape-Copy"></path>
        </g>
        <!-- </g> -->
    </symbol>

    <symbol id="icon-unlock" viewBox="0 0 519 511">
        <g id="Page-1" stroke="none" stroke-width="1" fill="none" fill-rule="evenodd">
            <g id="unlock" fill="#FFFFFF" fill-rule="nonzero">
                <path d="M194.918057,191 C194.918057,155.51223 194.918057,130.565615 194.918057,116.160156 C194.918057,94.5234375 189.937589,42.9296875 119.908247,42.9296875 C73.22202,42.9296875 47.9583333,67.3398437 44.1171875,116.160156 L0.0704011903,116.160156 C0.0704011903,49.7695313 30.8671875,0.25 121.253995,0.25 C211.640802,0.25 240.70712,62.1914063 240.70712,95.6953125 C240.70712,118.005889 240.70712,149.774118 240.70712,191 L241.667969,191 L471,191 C497.453125,191 519,212.523438 519,239 L519,463 C519,489.476562 497.453125,511 471,511 L183,511 C156.546875,511 135,489.476562 135,463 L135,239 C135,212.523438 156.546875,191 183,191 L194.918057,191 Z" id="Combined-Shape"></path>
            </g>
        </g>
    </symbol>

    <symbol id="icon-forbidden" viewBox="0 0 512 512">
		<path  d="M258 12C122.1 12 12 122.1 12 258s110.1 246 246 246 246-110.1 246-246S393.9 12 258 12zm-96.7 99.4c28.7-19 62.3-29.1 96.7-29.1 34.4 0 68.1 10.1 96.8 29.2L111.5 354.8c-53.5-81-31.2-190 49.8-243.4zm193.4 293.2c-28.7 19-62.3 29.1-96.7 29.1-34.4 0-68.1-10.1-96.8-29.2l243.4-243.4c53.4 81.1 31.1 190.1-49.9 243.5z"/>
    </symbol>

    <symbol id="icon-lock" viewBox="-64 0 512 512">
        <path d="m336 192h-16v-64c0-70.59375-57.40625-128-128-128s-128 57.40625-128 128v64h-16c-26.453125 0-48 21.523438-48 48v224c0 26.476562 21.546875 48 48 48h288c26.453125 0 48-21.523438 48-48v-224c0-26.476562-21.546875-48-48-48zm-229.332031-64c0-47.0625 38.269531-85.332031 85.332031-85.332031s85.332031 38.269531 85.332031 85.332031v64h-170.664062zm0 0"/>
    </symbol>

    <symbol id="icon-bin" viewBox="0 0 17 20">
        <g id="Page-1" stroke="none" stroke-width="1" fill="none" fill-rule="evenodd">
        <g id="Bandeja-de-entrda" transform="translate(-997.000000, -342.000000)" fill="#FF5B9B" fill-rule="nonzero">
            <g id="rubbish-bin" transform="translate(997.000000, 342.000000)">
                <path d="M1.73683079,19.0437843 C1.76161583,19.5782244 2.24871447,20 2.84108234,20 L13.1589177,20 C13.7512855,20 14.2383842,19.5782244 14.2631692,19.0437843 L15,5 L1,5 L1.73683079,19.0437843 Z M10.3340143,8.48822873 C10.3340143,8.26445318 10.5349829,8.08295714 10.7829408,8.08295714 L11.5009543,8.08295714 C11.748751,8.08295714 11.9498808,8.26440464 11.9498808,8.48822873 L11.9498808,16.5117713 C11.9498808,16.7355954 11.7489122,16.9170429 11.5009543,16.9170429 L10.7829408,16.9170429 C10.5350904,16.9170429 10.3340143,16.7356924 10.3340143,16.5117713 L10.3340143,8.48822873 Z M7.19212055,8.48822873 C7.19212055,8.26445318 7.39308907,8.08295714 7.64099324,8.08295714 L8.35900676,8.08295714 C8.60680341,8.08295714 8.80787945,8.26440464 8.80787945,8.48822873 L8.80787945,16.5117713 C8.80787945,16.7355954 8.6069647,16.9170429 8.35900676,16.9170429 L7.64099324,16.9170429 C7.39314283,16.9170429 7.19212055,16.7356924 7.19212055,16.5117713 L7.19212055,8.48822873 Z M4.05011924,8.48822873 C4.05011924,8.26445318 4.25108775,8.08295714 4.49899193,8.08295714 L5.21705921,8.08295714 C5.46490962,8.08295714 5.6659319,8.26440464 5.6659319,8.48822873 L5.6659319,16.5117713 C5.6659319,16.7355954 5.46496338,16.9170429 5.21705921,16.9170429 L4.49899193,16.9170429 C4.25114152,16.9170429 4.05011924,16.7356924 4.05011924,16.5117713 L4.05011924,8.48822873 Z" id="Shape"></path>
                <path d="M16.279687,1.13028065 L11.3360508,1.13028065 L11.3360508,0.231234054 C11.3360508,0.10355848 11.2284506,0 11.0956673,0 L5.90433272,0 C5.77160528,0 5.66400505,0.10355848 5.66400505,0.231234054 L5.66400505,1.13022694 L0.720312957,1.13022694 C0.322465684,1.13022694 0,1.44047267 0,1.82317712 L0,4 L17,4 L17,1.82323083 C17,1.44052639 16.6775343,1.13028065 16.279687,1.13028065 Z" id="Shape"></path>
            </g>
        </g>
    </g>
    </symbol>


   
        
</svg>