<?xml version="1.0" encoding="UTF-8"?>
<svg width="82px" height="64px" viewBox="0 0 82 64" version="1.1" xmlns="http://www.w3.org/2000/svg" xmlns:xlink="http://www.w3.org/1999/xlink">
    <!-- Generator: Sketch 49.1 (51147) - http://www.bohemiancoding.com/sketch -->
    <title>letters</title>
    <desc>Created with Sketch.</desc>
    <defs></defs>
    <g id="Page-1" stroke="none" stroke-width="1" fill="none" fill-rule="evenodd">
        <g id="Artboard" transform="translate(-333.000000, -125.000000)" fill="#585759" fill-rule="nonzero">
            <g id="letters" transform="translate(333.000000, 125.000000)">
                <path d="M76.7201495,0.000318781458 L72.0232655,0.000318781458 C71.3506119,0.000318781458 70.8054422,0.543044213 70.8054422,1.21232588 C70.8054422,1.88160756 71.3506119,2.42433299 72.0232655,2.42433299 L76.7201495,2.42433299 C78.2882332,2.42433299 79.564033,3.69403953 79.564033,5.25463416 L79.564033,10.6677027 L79.564033,53.3322973 C79.564033,54.8919356 78.2883934,56.1606858 76.7201495,56.1606858 L49.6134898,56.1606858 C49.0273202,56.1606858 48.4440334,56.2123284 47.8850903,56.3133821 C45.6715794,56.7035706 43.67572,57.8602691 42.218464,59.5115571 L42.218464,9.78388111 C42.218464,9.5640813 42.2283936,9.34619417 42.247292,9.1308573 C42.2479326,9.12432228 42.2484131,9.11778726 42.2490537,9.11109285 C42.5471033,5.83306312 45.0042109,3.12246438 48.3099832,2.5376598 C48.7377588,2.46242737 49.1762649,2.42401421 49.6131695,2.42401421 L67.9633205,2.42401421 C68.6359741,2.42401421 69.1811438,1.88128877 69.1811438,1.2120071 C69.1811438,0.542725432 68.6359741,0 67.9633205,0 L49.6134898,0 C49.0345272,0 48.4530021,0.0506862518 47.8846098,0.15094302 C44.8706411,0.684105009 42.3891899,2.54578872 40.9974375,5.06719066 C39.3214089,2.04912721 36.09107,0 32.3879516,0 L5.27953016,0 C2.36838137,0.000318781458 0,2.35738888 0,5.25463416 L0,40.0848556 C0,40.7541373 0.545169745,41.2968627 1.21782337,41.2968627 C1.89047699,41.2968627 2.43564674,40.7541373 2.43564674,40.0848556 L2.43564674,5.25463416 C2.43564674,3.69403953 3.71128628,2.42433299 5.27953016,2.42433299 L32.3879516,2.42433299 C36.4655138,2.42433299 39.7829774,5.72579316 39.7829774,9.78388111 L39.7829774,59.4847794 C37.9544806,57.4024989 35.2914129,56.1605264 32.3879516,56.1605264 L5.27953016,56.1605264 C3.71144644,56.1605264 2.43564674,54.8916168 2.43564674,53.3321379 L2.43564674,44.1249324 C2.43564674,43.4556508 1.89047699,42.9129253 1.21782337,42.9129253 C0.545169745,42.9129253 0,43.4558102 0,44.1252512 L0,53.3324567 L0,58.7456846 C0,61.6429299 2.36838137,64 5.27953016,64 L76.7204698,64 C79.6316186,64 82,61.6430893 82,58.7456846 L82,53.3324567 L82,10.6678621 L82,5.25463416 C81.9996797,2.35738888 79.6312983,0.000318781458 76.7201495,0.000318781458 Z M5.27953016,61.575667 C3.71128628,61.575667 2.43564674,60.3059605 2.43564674,58.7453658 L2.43564674,57.7539555 C3.25708493,58.2788292 4.232753,58.5845406 5.27953016,58.5845406 L32.3879516,58.5845406 C34.7909266,58.5845406 36.9749688,59.7162148 38.3451002,61.575667 L5.27953016,61.575667 Z M79.5638728,58.7455252 C79.564033,60.3061199 78.2883934,61.5758264 76.7201495,61.5758264 L43.6653099,61.5758264 C44.7796727,60.0824947 46.4443303,59.0294001 48.3152683,58.6993019 C48.7359971,58.6232725 49.1727415,58.5847 49.6134898,58.5847 L76.7201495,58.5847 C77.7667665,58.5847 78.7424346,58.2788292 79.564033,57.7541149 L79.564033,58.7455252 L79.5638728,58.7455252 Z" id="Shape"></path>
                <path d="M32.9497606,44.4679449 L28.9367601,31.047387 C28.935665,31.0439425 28.9347264,31.0403415 28.9336314,31.036897 L23.7860153,13.8211698 C23.2813593,12.1338538 21.760039,11 20.0000005,11 C18.2401183,11 16.718798,12.1336972 16.2139856,13.8210132 L11.0659002,31.0378364 C11.0651181,31.0403415 11.0644923,31.04269 11.0637102,31.0453516 L7.05024034,44.4677883 C6.86189385,45.0976549 7.21950189,45.7611833 7.84883574,45.9495327 C8.47801315,46.1385083 9.14098029,45.7802844 9.32948322,45.1504178 L13.0864013,32.5853386 L26.9131303,32.5853386 L30.6702048,45.1504178 C30.8246052,45.6664606 31.2973486,45.999947 31.8095134,45.999947 C31.9224587,45.999947 32.0374377,45.9838207 32.1510088,45.9496892 C32.780499,45.7611833 33.1381071,45.0978115 32.9497606,44.4679449 Z M13.7984888,30.2041204 L18.4930721,14.5037993 C18.6940897,13.8321294 19.2994892,13.3809051 20.0000005,13.3809051 C20.7005118,13.3809051 21.3059112,13.8319729 21.5067724,14.5036427 L26.2015122,30.2041204 L13.7984888,30.2041204 Z" id="Shape"></path>
                <path d="M61.5,24 C55.1587775,24 50,29.272277 50,35.7530142 C50,42.2335891 55.1587775,47.5058661 61.5,47.5058661 C65.1903341,47.5058661 68.477728,45.7180205 70.5836304,42.947753 L70.5836304,46.7652336 C70.5836304,47.4470832 71.1246442,48 71.7918152,48 C72.459145,48 73,47.4470832 73,46.7652336 L73,35.7530142 C73,29.2724394 67.8412225,24 61.5,24 Z M61.5001589,45.036171 C56.4913717,45.036171 52.4165285,40.8716762 52.4165285,35.7528519 C52.4165285,30.6340275 56.4913717,26.4693704 61.5001589,26.4693704 C66.5089461,26.4693704 70.5837893,30.6338651 70.5837893,35.7528519 C70.5836304,40.8718386 66.5087872,45.036171 61.5001589,45.036171 Z" id="Shape"></path>
            </g>
        </g>
    </g>
</svg>