<?xml version="1.0" encoding="UTF-8"?>
<svg width="49px" height="33px" viewBox="0 0 49 33" version="1.1" xmlns="http://www.w3.org/2000/svg" xmlns:xlink="http://www.w3.org/1999/xlink">
    <!-- Generator: Sketch 49.1 (51147) - http://www.bohemiancoding.com/sketch -->
    <title>Shape Copy</title>
    <desc>Created with Sketch.</desc>
    <defs></defs>
    <g id="Page-1" stroke="none" stroke-width="1" fill="none" fill-rule="evenodd">
        <g id="Intro-unidad" transform="translate(-117.000000, -559.000000)" fill="#42B3E5" fill-rule="nonzero" stroke="#F9F7FA" stroke-width="3">
            <path d="M163.036775,589.999853 C162.650472,589.999853 162.296221,589.777768 162.144399,589.413277 C162.033063,589.148809 159.249663,582.874476 148.843117,581.631816 C146.675439,581.367348 144.079285,581.231723 140.926451,581.207989 L140.926451,589.028442 C140.926451,589.389542 140.732456,589.716737 140.41363,589.889658 C140.096491,590.055798 139.716937,590.032064 139.421727,589.833713 L119.428475,576.308551 C119.15857,576.127153 119,575.821998 119,575.501585 C119,575.177781 119.15857,574.882797 119.428475,574.692923 L139.430162,561.166066 C139.725371,560.960934 140.101552,560.947371 140.422065,561.116902 C140.742578,561.289823 140.933198,561.617017 140.933198,561.967946 L140.933198,569.2459 C145.282051,569.815524 164,573.195967 164,589.036918 C164,589.496347 163.6778,589.898134 163.225709,589.989681 C163.163293,589.999853 163.097503,589.999853 163.036775,589.999853 Z" id="Shape-Copy"></path>
        </g>
    </g>
</svg>