<?xml version="1.0" encoding="UTF-8"?>
<svg width="71px" height="71px" viewBox="0 0 71 71" version="1.1" xmlns="http://www.w3.org/2000/svg" xmlns:xlink="http://www.w3.org/1999/xlink">
    <!-- Generator: Sketch 49.1 (51147) - http://www.bohemiancoding.com/sketch -->
    <title>Shape</title>
    <desc>Created with Sketch.</desc>
    <defs></defs>
    <g id="Page-1" stroke="none" stroke-width="1" fill="none" fill-rule="evenodd">
        <g id="Artboard" transform="translate(-539.000000, -241.000000)" fill="#585759" fill-rule="nonzero">
            <g id="team" transform="translate(539.000000, 233.000000)">
                <path d="M63.0803105,67.6845137 L61.9138027,67.2167734 C67.7800391,60.6911523 71,52.3092695 71,43.5 C71,36.293084 68.8211875,29.3586582 64.8514277,23.5293086 C64.8033086,23.4345957 64.7436797,23.3493125 64.6743438,23.2748457 C62.9352598,20.7683516 60.8650273,18.4694492 58.4893008,16.448584 C58.0176777,16.0474063 57.3103125,16.1045391 56.9091348,16.5761621 C56.507957,17.0477852 56.5650898,17.7554277 57.0365742,18.1564668 C58.9424805,19.7776797 60.6388535,21.5898438 62.1104395,23.5510801 C59.7374863,24.4785176 56.889166,25.2639551 53.7094199,25.8845117 C52.831627,23.2691602 51.7527598,20.8307539 50.4844668,18.6307246 C48.7750586,15.6652266 46.8088301,13.2772969 44.6659336,11.5210176 C48.0011309,12.4745254 51.1782422,13.9519355 54.0938184,15.9214922 C54.6069043,16.2677559 55.3035918,16.1331055 55.6502715,15.6200195 C55.9968125,15.1070723 55.8618848,14.4102461 55.3487988,14.0635664 C49.4775703,10.0967188 42.6138672,8 35.5,8 C26.0174785,8 17.1028184,11.6925547 10.3978945,18.3978945 C3.69255469,25.1028184 0,34.0177559 0,43.5 C0,52.3206406 3.22439844,60.7036328 9.10020313,67.2316113 L7.94839453,67.6827109 C7.52419727,67.8359434 3.91720312,69.2746641 3.91720312,73.860959 L3.91720312,77.8778672 C3.91720312,78.4971758 4.41891797,79 5.03822656,79 L11.4870234,79 L12.4908691,79 L13.6866367,79 L19.4223828,79 L21.5393477,79 C21.5934297,79 21.6462637,78.9948691 21.6982656,78.9873809 C21.7504062,78.9948691 21.8031016,79 21.8571836,79 L26.4186562,79 C27.0379648,79 27.5396797,78.4982852 27.5396797,77.8789766 C27.5396797,77.259668 27.0378262,76.7579531 26.4186562,76.7579531 L22.978207,76.7579531 L22.978207,72.8536465 C22.978207,68.7345371 26.2136992,67.5497246 26.3443281,67.5036855 C26.3616621,67.4978613 26.3788574,67.4916211 26.3960527,67.4848262 L31.8552871,65.3467832 C31.8670742,65.359541 31.878168,65.3728535 31.8906484,65.3850566 L34.7919414,68.2109121 C35.0014746,68.4147598 35.2822852,68.5288867 35.5741895,68.5288867 C35.5800137,68.5288867 35.5859766,68.5288867 35.5918008,68.528748 C35.890084,68.5241719 36.1745,68.4006152 36.3812598,68.1856738 L39.1670391,65.2951973 L44.6189238,67.481498 C44.6387539,67.489541 44.6517891,67.4945332 44.6720352,67.5011895 C44.8097363,67.5495859 48.0456445,68.7348145 48.0456445,72.8536465 L48.0456445,76.7579531 L39.8459766,76.7579531 L31.177459,76.7579531 L29.9223398,76.7579531 C29.3030312,76.7579531 28.8013164,77.2598066 28.8013164,77.8789766 C28.8013164,78.4982852 29.3031699,79 29.9223398,79 L31.177459,79 L39.8459766,79 L49.1668066,79 L49.1669453,79 L49.167084,79 L50.5973457,79 L51.6010527,79 L52.7970977,79 L58.5325664,79 L65.9854863,79 C66.6047949,79 67.1065098,78.4902422 67.1065098,77.8710723 L67.1065098,73.860959 C67.1067871,69.2922754 63.5269727,67.8468984 63.0803105,67.6845137 Z M59.6882578,66.3242812 L58.5831816,65.8810859 L58.5831816,65.2431953 C59.8044648,64.5269551 60.7431348,63.3797227 61.1891035,62.0113086 C62.8200234,61.8824824 64.1082852,60.5169805 64.1082852,58.8536113 C64.1082852,57.8643262 63.652332,56.9801543 62.940252,56.3980098 L62.940252,54.4055723 C62.940252,50.564084 60.057541,47.3853086 56.3422441,46.9135469 C56.3845391,46.1534863 56.4137988,45.3877402 56.4279434,44.6210234 L68.7371523,44.6210234 C68.4677129,52.7356855 65.2802012,60.4004961 59.6882578,66.3242812 Z M55.6409805,63.8005918 L54.6185527,63.8005918 C52.637625,63.8005918 51.0261191,62.1890859 51.0261191,60.2084355 L51.0261191,57.2422441 C52.4864727,57.0837422 55.0731191,56.573291 57.0659727,54.9089512 C57.5123574,55.6745586 58.203082,56.5025684 59.2334141,56.9861172 L59.2334141,60.2082969 C59.2332754,62.1890859 57.6217695,63.8005918 55.6409805,63.8005918 Z M56.3412734,65.9990957 L56.3412734,66.620623 L55.0921172,67.9166504 L53.9183984,66.7735781 L53.9183984,65.998957 C54.1481777,66.0265527 54.3815625,66.0425 54.6186914,66.0425 L55.6411191,66.0425 C55.878248,66.0426387 56.1113555,66.0266914 56.3412734,65.9990957 Z M49.9087012,55.073 C49.9074531,55.073 49.9062051,55.073 49.904957,55.073 C49.8664062,55.073 49.8281328,55.0750801 49.7905527,55.0788242 C49.7784883,55.0800723 49.7667012,55.0825684 49.7546367,55.0842324 C49.7293984,55.0875605 49.7041602,55.0906113 49.6794766,55.0957422 C49.6625586,55.0990703 49.646334,55.1042012 49.6296934,55.1085 C49.610418,55.1133535 49.5910039,55.1175137 49.5722832,55.1233379 C49.5600801,55.127082 49.5485703,55.1322129 49.5365059,55.136373 L49.5365059,54.4057109 C49.5365059,51.4761289 51.9198594,49.0929141 54.8494414,49.0929141 L55.3855469,49.0929141 C58.3149902,49.0929141 60.6979277,51.4761289 60.6979277,54.4057109 L60.6979277,55.1272207 C60.6768496,55.1204258 60.6554941,55.1151562 60.6338613,55.109748 C60.6235996,55.1068359 60.6133379,55.1035078 60.6029375,55.100873 C59.0401055,54.745457 58.5289609,52.6596934 58.5252168,52.6438848 C58.4280078,52.2142793 58.088123,51.8814668 57.6564375,51.7932715 C57.224752,51.7047988 56.7816953,51.877584 56.5234883,52.2345254 C54.4934707,55.0408281 49.9680527,55.073 49.9087012,55.073 Z M61.4753223,59.6090957 L61.4753223,58.0984043 C61.7113418,58.2668906 61.8660996,58.5424316 61.8660996,58.8538887 C61.8660996,59.1653457 61.7113418,59.4406094 61.4753223,59.6090957 Z M63.4261582,25.4377109 C66.6734375,30.4543047 68.5328887,36.294332 68.736875,42.3788379 L56.4273887,42.3788379 C56.3364199,37.332707 55.6312734,32.4657402 54.3739355,28.0333711 C57.820625,27.348748 60.8937324,26.4738672 63.4261582,25.4377109 Z M54.1850645,42.3791152 L42.7112148,42.3791152 C42.7099668,42.3789766 42.7088574,42.3791152 42.707748,42.3791152 C41.1783359,40.6884277 39.0283672,39.5714258 36.6210234,39.3856055 L36.6210234,29.7451367 C42.1222754,29.6903613 47.4310508,29.2328828 52.1608711,28.437877 C53.3985176,32.724502 54.093125,37.4579277 54.1850645,42.3791152 Z M44.295957,54.0855176 C44.295957,54.7449023 43.850543,55.3008379 43.2449629,55.4718203 L43.2449629,52.6987988 C43.850543,52.8700586 44.295957,53.4261328 44.295957,54.0855176 Z M36.6208848,10.3043105 C41.0822363,10.7807871 45.2795566,14.0908848 48.5419512,19.7503613 C49.6868262,21.7362812 50.6698711,23.9303477 51.4802695,26.2838867 C46.9603984,27.0239785 41.8879199,27.4499785 36.6208848,27.5028125 L36.6208848,10.3043105 Z M35.9100527,41.5974219 C39.7286602,41.5974219 42.8351875,44.7042266 42.8351875,48.5229727 L42.8351875,49.8929121 C42.8276992,49.8869492 42.8197949,49.8816797 42.812168,49.8757168 C42.7959434,49.862959 42.7794414,49.8504785 42.7623848,49.8386914 C42.7492109,49.8295391 42.7356211,49.8210801 42.7220312,49.8124824 C42.705252,49.8018047 42.6886113,49.7912656 42.6711387,49.7815586 C42.6551914,49.7725449 42.6386895,49.7646406 42.6223262,49.756459 C42.6066562,49.7486934 42.591125,49.7407891 42.5750391,49.7335781 C42.5553477,49.7248418 42.5349629,49.7176309 42.5148555,49.7100039 C42.5008496,49.7047344 42.4869824,49.6993262 42.4728379,49.6946113 C42.4502344,49.687123 42.4269375,49.6811602 42.4037793,49.6751973 C42.3935176,49.6722852 42.3833945,49.6688184 42.3728555,49.6663223 C40.2432715,49.1820801 39.5686328,46.4054531 39.5629473,46.3813242 C39.4657383,45.9517187 39.1258535,45.6189062 38.694168,45.5307109 C38.2626211,45.4419609 37.8194258,45.6150234 37.5612187,45.9719648 C34.9360215,49.6012852 29.1369023,49.6384492 29.0603555,49.6384492 C29.0602168,49.6384492 29.0600781,49.6384492 29.0600781,49.6384492 C29.0585527,49.6384492 29.0574434,49.6384492 29.0560566,49.6384492 C29.0175059,49.6384492 28.9792324,49.6403906 28.9416523,49.6441348 C28.9298652,49.6455215 28.9184941,49.6478789 28.906707,49.649543 C28.8813301,49.6530098 28.8555371,49.6560605 28.8305762,49.6610527 C28.8146289,49.6643809 28.7990977,49.669373 28.7831504,49.6732559 C28.7631816,49.678248 28.7427969,49.6826855 28.7233828,49.6886484 C28.7052168,49.694334 28.6877441,49.7016836 28.6699941,49.7082012 C28.6537695,49.7141641 28.6368516,49.7194336 28.6207656,49.7260898 C28.6002422,49.7348262 28.5806895,49.7450879 28.5611367,49.7546562 C28.5483789,49.7608965 28.5354824,49.7663047 28.523002,49.7730996 C28.5027559,49.783916 28.4838965,49.7963965 28.4644824,49.8083223 C28.4533887,49.8153945 28.4417402,49.8216348 28.4306465,49.8289844 C28.4126191,49.8411875 28.3955625,49.8547773 28.3780898,49.8680898 C28.3668574,49.8765488 28.355209,49.8843145 28.3442539,49.8933281 C28.3339922,49.9017871 28.3244238,49.9113555 28.3143008,49.9202305 L28.3143008,48.522834 C28.3143008,44.7040879 31.4208281,41.5974219 35.2394355,41.5974219 L35.9100527,41.5974219 Z M16.8149355,42.3789766 C16.906875,37.456957 17.6017598,32.7225605 18.8396836,28.4355195 C23.5761602,29.2316348 28.8906211,29.690084 34.3789766,29.7452754 L34.3789766,39.3971152 C32.0289043,39.6171875 29.9339883,40.7268398 28.4356387,42.3864648 C28.3948691,42.3820273 28.3534063,42.3791152 28.3113887,42.3791152 L16.8149355,42.3791152 L16.8149355,42.3789766 Z M27.9350332,52.6872891 L27.9350332,55.4837461 C27.3064336,55.3282949 26.8386934,54.7614043 26.8386934,54.0855176 C26.8385547,53.4097695 27.3064336,52.8428789 27.9350332,52.6872891 Z M34.3789766,10.3043105 L34.3789766,27.5028125 C29.1244219,27.4495625 24.0479219,27.0218984 19.5208398,26.2804199 C20.3310996,23.9282676 21.3137285,21.7355879 22.4580488,19.7503613 C25.7204434,14.0908848 29.9177637,10.7807871 34.3789766,10.3043105 Z M26.3217246,11.5308633 C24.1836816,13.2864492 22.2216133,15.6706348 20.5153945,18.6305859 C19.2475176,20.8300605 18.1690664,23.2673574 17.2914121,25.8820156 C14.1156875,25.262291 11.2719434,24.4786562 8.90342773,23.5548242 C13.1969863,17.843623 19.2846816,13.5543633 26.3217246,11.5308633 Z M7.58396484,25.4429805 C10.1100117,26.4752539 13.1836738,27.3468066 16.6270352,28.0307363 C15.3688652,32.4636602 14.6637187,37.3317363 14.5724727,42.3789766 L2.263125,42.3789766 C2.47043945,36.1517773 4.39728516,30.3529355 7.58396484,25.4429805 Z M14.8077988,65.9992344 C15.0375781,66.0268301 15.2709629,66.0426387 15.5080918,66.0426387 L16.5306582,66.0426387 C16.7675098,66.0426387 17.0008945,66.0268301 17.2305352,65.9990957 L17.2305352,66.6204844 L15.9816562,67.9165117 L14.8077988,66.7734395 L14.8077988,65.9992344 Z M16.5306582,63.8005918 L15.5080918,63.8005918 C13.5271641,63.8005918 11.9156582,62.1890859 11.9156582,60.2082969 L11.9156582,57.2434922 C13.3757344,57.0855449 15.9614102,56.5742617 17.9555117,54.9089512 C18.4020352,55.6746973 19.0926211,56.5028457 20.1228145,56.9863945 L20.1228145,60.2084355 C20.1226758,62.1890859 18.5113086,63.8005918 16.5306582,63.8005918 Z M19.4151719,52.6437461 C19.3179629,52.2141406 18.9780781,51.8813281 18.5463926,51.7931328 C18.114707,51.7046602 17.6715117,51.8774453 17.413582,52.2343867 C15.3820391,55.0423535 10.8530156,55.0731387 10.7983789,55.0731387 C10.7969922,55.0731387 10.7958828,55.0731387 10.7946348,55.0731387 C10.756084,55.0731387 10.7178105,55.0750801 10.6802305,55.0788242 C10.6684434,55.0802109 10.6570723,55.0825684 10.6452852,55.0842324 C10.6199082,55.0875605 10.5941152,55.09075 10.5691543,55.0957422 C10.553207,55.0990703 10.5376758,55.1040625 10.5217285,55.1079453 C10.5017598,55.1129375 10.4815137,55.117375 10.4619609,55.1233379 C10.4498965,55.127082 10.4385254,55.1322129 10.4265996,55.136373 L10.4265996,54.4057109 C10.4265996,51.4761289 12.8098145,49.0927754 15.7393965,49.0927754 L16.2756406,49.0927754 C19.205084,49.0927754 21.5880215,51.4761289 21.5880215,54.4057109 L21.5880215,55.1273594 L21.5877441,55.1273594 C21.56625,55.1202871 21.5439238,55.1150176 21.5220137,55.109332 C21.512168,55.1068359 21.5025996,55.1033691 21.4926152,55.1010117 C19.9300605,54.7455957 19.418916,52.659416 19.4151719,52.6437461 Z M2.26298633,44.6210234 L14.5721953,44.6210234 C14.5862012,45.3931484 14.6160156,46.1643027 14.6585879,46.9292168 C11.0030586,47.4549219 8.18413672,50.6066562 8.18413672,54.4055723 L8.18413672,56.3892734 C7.46512305,56.9711406 7.00403906,57.8591953 7.00403906,58.8536113 C7.00403906,60.5293223 8.31213086,61.9020352 9.96052344,62.01325 C10.4064922,63.380832 11.3447461,64.5270938 12.5656133,65.2431953 L12.5656133,65.8745684 L11.341002,66.3540957 C5.73019922,60.4257344 2.53256445,52.7531582 2.26298633,44.6210234 Z M9.67333398,58.0734434 L9.67333398,59.6337793 C9.41679102,59.4684824 9.24608594,59.180877 9.24608594,58.8538887 C9.24608594,58.526623 9.41679102,58.2390176 9.67333398,58.0734434 Z M20.7358828,72.8537852 L20.7358828,76.7579531 L19.4221055,76.7579531 L13.686498,76.7579531 L12.4907305,76.7579531 L11.4870234,76.7579531 L6.15938867,76.7579531 L6.15938867,73.860959 C6.15938867,70.7354336 8.60278711,69.8296289 8.69777734,69.7959316 C8.71511133,69.7901074 8.73244531,69.7838672 8.74950195,69.7770723 L12.9777461,68.1211914 L15.2245078,70.3094336 C15.4339023,70.5134199 15.7145742,70.6274082 16.0066172,70.6274082 C16.0124414,70.6274082 16.0184043,70.6274082 16.0243672,70.6272695 C16.3226504,70.6226934 16.6069277,70.4991367 16.8136875,70.2841953 L18.9359219,68.0818086 L21.5591777,69.1336348 C21.0617617,70.151625 20.7358828,71.3845566 20.7358828,72.8537852 Z M31.5520117,63.0577266 L25.6018789,65.3878301 C24.8441758,65.6485332 23.7955391,66.2499531 22.8653281,67.2417344 L19.4724434,65.8810859 L19.4724434,65.2434727 C20.6940039,64.5270937 21.6325352,63.3798613 22.0785039,62.0113086 C23.7095625,61.8824824 24.9979629,60.5169805 24.9979629,58.8536113 C24.9979629,57.8643262 24.5418711,56.9801543 23.829791,56.3980098 L23.829791,54.4055723 C23.829791,50.4507891 20.7748496,47.1982402 16.9013281,46.8786016 C16.8586172,46.1307441 16.8290801,45.3763691 16.8147969,44.6208848 L26.9461641,44.6208848 C26.3864844,45.8055586 26.0719766,47.1277949 26.0719766,48.5226953 L26.0719766,51.1386016 C25.1765723,51.8112988 24.5962305,52.881707 24.5962305,54.0855176 C24.5962305,56.0976465 26.2182754,57.7373027 28.2234707,57.7680879 C28.7495918,59.5450293 29.9614453,61.0296504 31.5517344,61.9142383 L31.5517344,63.0577266 L31.5520117,63.0577266 Z M22.3648613,59.6092344 L22.3648613,58.0979883 C22.6010195,58.2666133 22.755916,58.5421543 22.755916,58.85375 C22.755916,59.1653457 22.6010195,59.440748 22.3648613,59.6092344 Z M37.3860762,63.8401133 C37.3860762,63.8416387 37.3860762,63.8431641 37.3860762,63.8442734 L37.3860762,63.9122227 L35.5492285,65.8182676 L33.7940586,64.1087207 L33.7940586,62.6981504 C34.1705527,62.7609687 34.5566152,62.7952207 34.9508594,62.7952207 L36.2296914,62.7952207 C36.6236582,62.7952207 37.009582,62.7609687 37.3860762,62.6984277 L37.3860762,63.8401133 Z M36.2296914,60.5533125 L34.9508594,60.5533125 C32.3185898,60.5533125 30.1770801,58.4119414 30.1770801,55.7796719 L30.1770801,51.8216992 C31.9662246,51.656957 35.5040215,51.0350137 38.0881719,48.7151719 C38.6335684,49.7473066 39.547832,50.9455703 41.0030547,51.5670977 L41.0030547,55.7795332 C41.002916,58.4119414 38.8616836,60.5533125 36.2296914,60.5533125 Z M48.165457,67.2493613 C47.2353848,66.255084 46.1855,65.651584 45.4261328,65.3894941 L39.6279844,63.0641055 L39.6279844,61.9142383 C41.2186895,61.0295117 42.4302656,59.5444746 42.956248,57.7669785 C44.9402266,57.7120645 46.5377266,56.0822539 46.5377266,54.0856562 C46.5377266,52.8887793 45.963625,51.8237793 45.076957,51.1503887 L45.076957,48.522834 C45.076957,47.1280723 44.7625879,45.8056973 44.2027695,44.6210234 L54.1847871,44.6210234 C54.1702266,45.3795586 54.1405508,46.1369844 54.0972852,46.8884473 C50.2829766,47.2668828 47.294043,50.4936387 47.294043,54.4055723 L47.294043,56.3895508 C46.575168,56.9712793 46.1142227,57.859334 46.1142227,58.85375 C46.1142227,60.5295996 47.4223145,61.9023125 49.070707,62.0133887 C49.5166758,63.3809707 50.4550684,64.5272324 51.6759355,65.243334 L51.6759355,65.874707 L48.165457,67.2493613 Z M48.7840723,58.0734434 L48.7840723,59.6337793 C48.5273906,59.4684824 48.3568242,59.180877 48.3568242,58.8538887 C48.3568242,58.526623 48.5275293,58.2388789 48.7840723,58.0734434 Z M64.8648789,76.7579531 L58.5328437,76.7579531 L52.797375,76.7579531 L51.6013301,76.7579531 L50.597623,76.7579531 L50.2881074,76.7579531 L50.2881074,72.8536465 C50.2881074,71.3903809 49.9651406,70.1616094 49.4709141,69.1461152 L52.0884844,68.1210527 L54.3349687,70.3092949 C54.5443633,70.5132812 54.8250352,70.6274082 55.1172168,70.6274082 C55.123041,70.6274082 55.1290039,70.6274082 55.1348281,70.6272695 C55.4331113,70.6226934 55.7173887,70.4991367 55.9242871,70.2841953 L58.0466602,68.0818086 L62.2658906,69.7736055 C62.285582,69.7816484 62.2965371,69.7858086 62.3169219,69.7927422 C62.4209258,69.8296289 64.8648789,70.7355723 64.8648789,73.8610977 L64.8648789,76.7579531 Z" id="Shape"></path>
            </g>
        </g>
    </g>
</svg>