<?xml version="1.0" encoding="UTF-8"?>
<svg width="65px" height="65px" viewBox="0 0 65 65" version="1.1" xmlns="http://www.w3.org/2000/svg" xmlns:xlink="http://www.w3.org/1999/xlink">
    <!-- Generator: Sketch 49.1 (51147) - http://www.bohemiancoding.com/sketch -->
    <title>calculating</title>
    <desc>Created with Sketch.</desc>
    <defs></defs>
    <g id="Page-1" stroke="none" stroke-width="1" fill="none" fill-rule="evenodd">
        <g id="Artboard" transform="translate(-150.000000, -121.000000)" fill="#585759" fill-rule="nonzero">
            <g id="calculating" transform="translate(150.000000, 121.000000)">
                <path d="M64.5888917,3.82841557 L62.0890156,0.703694551 C61.733449,0.258864305 61.1943963,0 60.6250929,0 L36.8750311,0 C35.8395736,0 35,0.839573486 35,1.87503096 L35,28.1249689 C35,29.1604264 35.8395736,30 36.8750311,30 L63.124969,30 C64.1604265,30 65,29.1604264 65,28.1249689 L65,4.99975198 C65,4.57426233 64.8551946,4.16117037 64.5888917,3.82841557 Z M55,16.874783 L51.875279,16.874783 L51.875279,19.9999999 C51.875279,21.0354574 51.0357054,21.875031 50.0002479,21.875031 C48.9647905,21.875031 48.125217,21.0354574 48.125217,19.9999999 L48.125217,16.874783 L45.0000001,16.874783 C43.9645426,16.874783 43.124969,16.0352095 43.124969,14.9997521 C43.124969,13.9642946 43.9645426,13.124721 45.0000001,13.124721 L48.125217,13.124721 L48.125217,9.99999996 C48.125217,8.96454248 48.9647905,8.124969 50.0002479,8.124969 C51.0357054,8.124969 51.875279,8.96454248 51.875279,9.99999996 L51.875279,13.124721 L55,13.124721 C56.0354575,13.124721 56.875031,13.9642946 56.875031,14.9997521 C56.875031,16.0352095 56.0354575,16.874783 55,16.874783 Z" id="Shape"></path>
                <path d="M28.1249689,35 L1.87503096,35 C0.839573486,35 0,35.8395736 0,36.8750311 L0,60.000248 C0,60.4971485 0.197867624,60.9742127 0.549466898,61.3258121 L3.67418791,64.4505331 C4.02578731,64.8021324 4.50285147,65 4.99975198,65 L28.1249689,65 C29.1604264,65 30,64.1604265 30,63.124969 L30,36.8750311 C30,35.8395736 29.1604264,35 28.1249689,35 Z M19.8611455,52.2100173 C20.5936028,52.9419787 20.5936028,54.1291843 19.8611455,54.8616415 C19.1391023,55.5836846 17.9320605,55.5836846 17.2095215,54.8616415 L14.9997521,52.6518721 L12.7899827,54.8616415 C12.0679395,55.5836846 10.8608976,55.5836846 10.1383585,54.8616415 C9.40639721,54.1291843 9.40639721,52.9419787 10.1383585,52.2100173 L12.3481279,50.0002479 L10.1383585,47.7904785 C9.40639721,47.0580213 9.40639721,45.8708157 10.1383585,45.1388545 C10.8708157,44.4063972 12.0580213,44.4063972 12.7899827,45.1388545 L14.9997521,47.3486239 L17.2095215,45.1388545 C17.9419787,44.4063972 19.1291843,44.4063972 19.8611455,45.1388545 C20.5936028,45.8708157 20.5936028,47.0580213 19.8611455,47.7904785 L17.6513761,50.0002479 L19.8611455,52.2100173 Z" id="Shape"></path>
                <path d="M28.1249689,0 L4.99975198,0 C4.50285147,0 4.02578731,0.197867624 3.67418791,0.549466898 L0.549466898,3.67418791 C0.197867624,4.02578731 0,4.50285147 0,4.99975198 L0,28.1249689 C0,29.1604264 0.839573486,30 1.87503096,30 L28.1249689,30 C29.1604264,30 30,29.1604264 30,28.1249689 L30,1.87503096 C30,0.839573486 29.1604264,0 28.1249689,0 Z M19.9999999,16.874783 L9.99999996,16.874783 C8.96454248,16.874783 8.124969,16.0352095 8.124969,14.9997521 C8.124969,13.9642946 8.96454248,13.124721 9.99999996,13.124721 L19.9999999,13.124721 C21.0354574,13.124721 21.875031,13.9642946 21.875031,14.9997521 C21.875031,16.0352095 21.0354574,16.874783 19.9999999,16.874783 Z" id="Shape"></path>
                <path d="M63.124969,35 L36.8750311,35 C35.8395736,35 35,35.8395736 35,36.8750311 L35,63.124969 C35,64.1604265 35.8395736,65 36.8750311,65 L60.000248,65 C60.4971485,65 60.9742127,64.8021324 61.3258121,64.4505331 L64.4505331,61.3258121 C64.8021324,60.9742127 65,60.4971485 65,60.000248 L65,36.8750311 C65,35.8395736 64.1604265,35 63.124969,35 Z M55,55.6248451 L45.0000001,55.6248451 C43.9645426,55.6248451 43.124969,54.7857675 43.124969,53.749814 C43.124969,52.7143565 43.9645426,51.875279 45.0000001,51.875279 L55,51.875279 C56.0354575,51.875279 56.875031,52.7143565 56.875031,53.749814 C56.875031,54.7857675 56.0354575,55.6248451 55,55.6248451 Z M55,48.125217 L45.0000001,48.125217 C43.9645426,48.125217 43.124969,47.2856435 43.124969,46.250186 C43.124969,45.2147285 43.9645426,44.3751549 45.0000001,44.3751549 L55,44.3751549 C56.0354575,44.3751549 56.875031,45.2147285 56.875031,46.250186 C56.875031,47.2856435 56.0354575,48.125217 55,48.125217 Z" id="Shape"></path>
            </g>
        </g>
    </g>
</svg>