<?xml version="1.0" encoding="UTF-8"?>
<svg width="427px" height="427px" viewBox="0 0 427 427" version="1.1" xmlns="http://www.w3.org/2000/svg" xmlns:xlink="http://www.w3.org/1999/xlink">
    <!-- Generator: Sketch 49.1 (51147) - http://www.bohemiancoding.com/sketch -->
    <title>cancel</title>
    <desc>Created with Sketch.</desc>
    <defs></defs>
    <g id="Page-1" stroke="none" stroke-width="1" fill="none" fill-rule="evenodd">
        <g id="cancel" fill="#3CAEEF" fill-rule="nonzero">
            <path d="M213.333,0 C95.514,0 0,95.514 0,213.333 C0,331.152 95.514,426.666 213.333,426.666 C331.152,426.666 426.666,331.152 426.666,213.333 C426.666,95.514 331.153,0 213.333,0 Z M303.844,303.842 L303.844,303.842 C288.848996,318.838109 264.536395,318.839004 249.540286,303.844 C249.540238,303.843952 249.540191,303.843905 249.540143,303.843857 L213.333,267.639 L177.438332,303.533668 C162.270765,318.701235 137.67928,318.701235 122.511713,303.533668 C122.511039,303.532993 122.510365,303.532319 122.509691,303.531645 C122.509691,303.531645 122.509691,303.531645 122.509691,303.531645 C122.509691,303.531645 122.509691,303.531645 122.509691,303.531645 L122.509691,303.531645 C107.686771,288.706542 107.687656,264.672344 122.511668,249.848332 L159.027,213.333 L122.821143,177.124857 C107.826394,162.129162 107.826778,137.817222 122.822,122.822 L122.822,122.822 C137.817222,107.826778 162.129162,107.826394 177.124857,122.821143 L213.333,159.027 L249.541143,122.821143 C264.536838,107.826394 288.848778,107.826778 303.844,122.822 L303.844,122.822 C318.839222,137.817222 318.839606,162.129162 303.844857,177.124857 L267.639,213.333 L303.843,249.537 C318.838797,264.532797 318.839245,288.84565 303.844,303.842 Z" id="Shape"></path>
        </g>
    </g>
</svg>