<?xml version="1.0" encoding="UTF-8"?>
<svg width="77px" height="73px" viewBox="0 0 77 73" version="1.1" xmlns="http://www.w3.org/2000/svg" xmlns:xlink="http://www.w3.org/1999/xlink">
    <!-- Generator: Sketch 49.1 (51147) - http://www.bohemiancoding.com/sketch -->
    <title>Shape</title>
    <desc>Created with Sketch.</desc>
    <defs></defs>
    <g id="Page-1" stroke="none" stroke-width="1" fill="none" fill-rule="evenodd">
        <g id="edit-image" fill="#0872B9" fill-rule="nonzero">
            <path d="M77,12.1818182 L77,28.3227273 C77,30.0048651 75.6535339,31.3681818 73.9921875,31.3681818 C72.3308411,31.3681818 70.984375,30.0048651 70.984375,28.3227273 L70.984375,12.1818182 C70.984375,8.82349069 68.2855683,6.09090909 64.96875,6.09090909 L12.03125,6.09090909 C8.71443169,6.09090909 6.015625,8.82349069 6.015625,12.1818182 L6.015625,54.8181818 C6.015625,58.1765093 8.71443169,60.9090909 12.03125,60.9090909 L33.0859375,60.9090909 C34.7472839,60.9090909 36.09375,62.2724077 36.09375,63.9545455 C36.09375,65.6366832 34.7472839,67 33.0859375,67 L12.03125,67 C5.3970261,67 0,61.5354314 0,54.8181818 L0,12.1818182 C0,5.46456857 5.3970261,0 12.03125,0 L64.96875,0 C71.6029739,0 77,5.46456857 77,12.1818182 Z M12.2003994,49.0724892 C13.5359628,50.067305 15.4394223,49.8111792 16.453099,48.4996988 L20.7638923,42.9213956 L28.7725305,52.8678077 C29.3481329,53.5832135 30.2254671,54 31.1531886,54 L31.1567455,54 C32.0862455,53.9988359 32.9635796,53.5797209 33.5385891,52.8625688 L56.8875339,23.7311712 L61.62336,29.3705953 C62.6892026,30.6407464 64.6021468,30.8211986 65.8956218,29.7739935 C67.189097,28.7267883 67.3728628,26.8483385 66.3064277,25.5787696 L59.173938,17.0847072 C58.5894437,16.3885108 57.7168519,15.9886052 56.7980222,16.0002473 C55.8797852,16.0107251 55.0154926,16.4286759 54.4470037,17.1370965 L31.1478535,46.207373 L23.0953486,36.2062433 C22.5132254,35.4832701 21.6258138,35.0705582 20.6844579,35.074633 C19.7460662,35.0839466 18.8645824,35.5187784 18.2966863,36.2533937 L11.6176836,44.8964747 C10.6040069,46.207373 10.8654287,48.0770912 12.2003994,49.0724892 Z M12,20 C12,15.0371093 16.0371093,11 21,11 C25.9628907,11 30,15.0371093 30,20 C30,24.9628907 25.9628907,29 21,29 C16.0371093,29 12,24.9628907 12,20 Z M18,20 C18,21.6541016 19.3458984,23 21,23 C22.6541016,23 24,21.6541016 24,20 C24,18.3458984 22.6541016,17 21,17 C19.3458984,17 18,18.3458984 18,20 Z M74.3895744,38.7056609 C77.8701419,42.3127067 77.8701419,48.1813082 74.3895744,51.788354 L58.088035,68.6509471 C57.7248098,69.0267689 57.2744109,69.2983965 56.7798437,69.4399318 L44.7701712,72.8879763 C44.5074869,72.9632611 44.2407344,73 43.9757254,73 C43.1847666,73 42.4135672,72.6729627 41.8457738,72.0694798 C41.0879411,71.2648357 40.8130525,70.0958131 41.1286223,69.0201438 L44.6864842,56.8818233 C44.8288683,56.3957845 45.0845788,55.953712 45.4315313,55.5953565 L61.7679404,38.7026495 C65.2461833,35.0986151 70.9090068,35.0986151 74.3895744,38.7056609 Z M65,52.2538179 L60.7911183,48 L49.7679396,59.1161979 L48,65 L54.0419131,63.3083408 L65,52.2538179 Z M70.0758435,42.9240854 C68.844663,41.6919715 66.8412192,41.6919715 65.6100388,42.9240854 L65,43.5324302 L69.4664215,48 L70.0783108,47.3891873 C71.3076407,46.1595413 71.3076407,44.1555824 70.0758435,42.9240854 Z" id="Shape"></path>
        </g>
    </g>
</svg>