<?xml version="1.0" encoding="UTF-8"?>
<svg width="17px" height="20px" viewBox="0 0 17 20" version="1.1" xmlns="http://www.w3.org/2000/svg" xmlns:xlink="http://www.w3.org/1999/xlink">
    <!-- Generator: Sketch 49.1 (51147) - http://www.bohemiancoding.com/sketch -->
    <title>rubbish-bin</title>
    <desc>Created with Sketch.</desc>
    <defs></defs>
    <g id="Page-1" stroke="none" stroke-width="1" fill="none" fill-rule="evenodd">
        <g id="Bandeja-de-entrda" transform="translate(-997.000000, -342.000000)" fill="#FF5B9B" fill-rule="nonzero">
            <g id="rubbish-bin" transform="translate(997.000000, 342.000000)">
                <path d="M1.73683079,19.0437843 C1.76161583,19.5782244 2.24871447,20 2.84108234,20 L13.1589177,20 C13.7512855,20 14.2383842,19.5782244 14.2631692,19.0437843 L15,5 L1,5 L1.73683079,19.0437843 Z M10.3340143,8.48822873 C10.3340143,8.26445318 10.5349829,8.08295714 10.7829408,8.08295714 L11.5009543,8.08295714 C11.748751,8.08295714 11.9498808,8.26440464 11.9498808,8.48822873 L11.9498808,16.5117713 C11.9498808,16.7355954 11.7489122,16.9170429 11.5009543,16.9170429 L10.7829408,16.9170429 C10.5350904,16.9170429 10.3340143,16.7356924 10.3340143,16.5117713 L10.3340143,8.48822873 Z M7.19212055,8.48822873 C7.19212055,8.26445318 7.39308907,8.08295714 7.64099324,8.08295714 L8.35900676,8.08295714 C8.60680341,8.08295714 8.80787945,8.26440464 8.80787945,8.48822873 L8.80787945,16.5117713 C8.80787945,16.7355954 8.6069647,16.9170429 8.35900676,16.9170429 L7.64099324,16.9170429 C7.39314283,16.9170429 7.19212055,16.7356924 7.19212055,16.5117713 L7.19212055,8.48822873 Z M4.05011924,8.48822873 C4.05011924,8.26445318 4.25108775,8.08295714 4.49899193,8.08295714 L5.21705921,8.08295714 C5.46490962,8.08295714 5.6659319,8.26440464 5.6659319,8.48822873 L5.6659319,16.5117713 C5.6659319,16.7355954 5.46496338,16.9170429 5.21705921,16.9170429 L4.49899193,16.9170429 C4.25114152,16.9170429 4.05011924,16.7356924 4.05011924,16.5117713 L4.05011924,8.48822873 Z" id="Shape"></path>
                <path d="M16.279687,1.13028065 L11.3360508,1.13028065 L11.3360508,0.231234054 C11.3360508,0.10355848 11.2284506,0 11.0956673,0 L5.90433272,0 C5.77160528,0 5.66400505,0.10355848 5.66400505,0.231234054 L5.66400505,1.13022694 L0.720312957,1.13022694 C0.322465684,1.13022694 0,1.44047267 0,1.82317712 L0,4 L17,4 L17,1.82323083 C17,1.44052639 16.6775343,1.13028065 16.279687,1.13028065 Z" id="Shape"></path>
            </g>
        </g>
    </g>
</svg>