<?xml version="1.0" encoding="UTF-8"?>
<svg width="52px" height="52px" viewBox="0 0 52 52" version="1.1" xmlns="http://www.w3.org/2000/svg" xmlns:xlink="http://www.w3.org/1999/xlink">
    <!-- Generator: Sketch 49.1 (51147) - http://www.bohemiancoding.com/sketch -->
    <title>Shape</title>
    <desc>Created with Sketch.</desc>
    <defs></defs>
    <g id="Page-1" stroke="none" stroke-width="1" fill="none" fill-rule="evenodd">
        <g id="error-(1)" fill="#FF5B9B" fill-rule="nonzero">
            <path d="M44.373,7.603 C34.236,-2.534 17.741,-2.535 7.603,7.603 C-2.535,17.741 -2.534,34.235 7.603,44.373 C17.74,54.511 34.235,54.511 44.373,44.373 C54.51,34.235 54.51,17.74 44.373,7.603 Z M36.241,36.241 C35.46,37.022 34.194,37.022 33.413,36.241 L25.988,28.816 L18.21,36.594 C17.429,37.375 16.163,37.375 15.382,36.594 C14.601,35.813 14.601,34.547 15.382,33.766 L23.16,25.988 L15.735,18.563 C14.954,17.782 14.954,16.515 15.735,15.735 C16.516,14.954 17.782,14.954 18.563,15.735 L25.988,23.16 L33.059,16.089 C33.84,15.308 35.106,15.308 35.887,16.089 C36.668,16.87 36.668,18.136 35.887,18.917 L28.816,25.988 L36.241,33.413 C37.022,34.194 37.022,35.46 36.241,36.241 Z" id="Shape"></path>
        </g>
    </g>
</svg>