<?xml version="1.0" encoding="UTF-8"?>
<svg width="18px" height="18px" viewBox="0 0 519 511" version="1.1" xmlns="http://www.w3.org/2000/svg" xmlns:xlink="http://www.w3.org/1999/xlink">
   
    <g id="Page-1" stroke="none" stroke-width="1" fill="none" fill-rule="evenodd">
        <g id="unlock" fill="#FFFFFF" fill-rule="nonzero">
            <path d="M194.918057,191 C194.918057,155.51223 194.918057,130.565615 194.918057,116.160156 C194.918057,94.5234375 189.937589,42.9296875 119.908247,42.9296875 C73.22202,42.9296875 47.9583333,67.3398437 44.1171875,116.160156 L0.0704011903,116.160156 C0.0704011903,49.7695313 30.8671875,0.25 121.253995,0.25 C211.640802,0.25 240.70712,62.1914063 240.70712,95.6953125 C240.70712,118.005889 240.70712,149.774118 240.70712,191 L241.667969,191 L471,191 C497.453125,191 519,212.523438 519,239 L519,463 C519,489.476562 497.453125,511 471,511 L183,511 C156.546875,511 135,489.476562 135,463 L135,239 C135,212.523438 156.546875,191 183,191 L194.918057,191 Z" id="Combined-Shape"></path>
        </g>
    </g>
</svg>