<?xml version="1.0" encoding="UTF-8"?>
<svg width="19px" height="29px" viewBox="0 0 19 29" version="1.1" xmlns="http://www.w3.org/2000/svg" xmlns:xlink="http://www.w3.org/1999/xlink">
    <!-- Generator: Sketch 49.1 (51147) - http://www.bohemiancoding.com/sketch -->
    <title>Group 2</title>
    <desc>Created with Sketch.</desc>
    <defs></defs>
    <g id="Symbols" stroke="none" stroke-width="1" fill="none" fill-rule="evenodd">
        <g id="header" transform="translate(-1085.000000, -30.000000)" fill="#0872B9">
            <g id="Group-2" transform="translate(1085.000000, 30.000000)">
                <path d="M10,18 L10,18 C14.418278,18 18,21.581722 18,26 L18,27.5859375 C15.6670736,28.5327962 13.0004069,29.0062256 10,29.0062256 C6.9995931,29.0062256 4.33292643,28.3875326 2,27.1501465 L2,26 C2,21.581722 5.581722,18 10,18 Z" id="Rectangle"></path>
                <path d="M9.5,19 C13.1362971,19 19,14.7467051 19,9.5 C19,4.25329488 14.7467051,0 9.5,0 C4.25329488,0 0,4.25329488 0,9.5 C0,14.7467051 5.86370295,19 9.5,19 Z" id="Oval-4"></path>
            </g>
        </g>
    </g>
</svg>