<?xml version="1.0" encoding="utf-8"?>
<!-- Generator: Adobe Illustrator 22.0.0, SVG Export Plug-In . SVG Version: 6.00 Build 0)  -->
<svg version="1.1" id="Capa_1" xmlns="http://www.w3.org/2000/svg" xmlns:xlink="http://www.w3.org/1999/xlink" x="0px" y="0px"
	 viewBox="0 0 457.7 512" style="enable-background:new 0 0 457.7 512;" xml:space="preserve">
<style type="text/css">
	.st0{fill:#00A1F1;}
	.st1{fill:#C2EEFF;}
</style>
<g>
	<path class="st0" d="M343.9,510H59.4C28.3,510,3,484.7,3,453.6V59.4C3,28.3,28.3,3,59.4,3h200.7c14.4,0,28.1,5.4,38.6,15.3
		l83.8,78.6c11.3,10.6,17.8,25.6,17.8,41.2v12.9c0,7.6-6.1,13.7-13.7,13.7c-7.6,0-13.7-6.1-13.7-13.7V138c0-8-3.3-15.7-9.2-21.2
		L280,38.3c-5.4-5.1-12.5-7.9-19.9-7.9H59.4c-16,0-29,13-29,29v394.1c0,16,13,29,29,29h284.5c16,0,29-13,29-29V225.5
		c0-7.6,6.1-13.7,13.7-13.7c7.6,0,13.7,6.1,13.7,13.7v228.1C400.4,484.7,375.1,510,343.9,510L343.9,510z M343.9,510"/>
	<path class="st1" d="M401.2,369.8H150.1c-21.5,0-38.9-17.4-38.9-38.9V207.6c0-21.5,17.4-38.9,38.9-38.9h251.1
		c21.5,0,38.9,17.4,38.9,38.9v123.3C440.1,352.4,422.7,369.8,401.2,369.8L401.2,369.8z M401.2,369.8"/>
	<path class="st0" d="M401.2,383.5H150.1c-29,0-52.6-23.6-52.6-52.6V207.6c0-29,23.6-52.6,52.6-52.6h251.1c29,0,52.6,23.6,52.6,52.6
		v123.3C453.8,359.9,430.2,383.5,401.2,383.5L401.2,383.5z M150.1,182.4c-13.9,0-25.2,11.3-25.2,25.2v123.3
		c0,13.9,11.3,25.2,25.2,25.2h251.1c13.9,0,25.2-11.3,25.2-25.2V207.6c0-13.9-11.3-25.2-25.2-25.2H150.1z M150.1,182.4"/>
</g>
<g>
	<g>
		<path class="st0" d="M160.3,236.2c5.6-0.9,12.8-1.4,20.4-1.4c12.7,0,21,2.3,27.4,7.2c7,5.2,11.3,13.4,11.3,25.2
			c0,12.8-4.6,21.7-11.1,27.1c-7,5.9-17.8,8.7-30.9,8.7c-7.9,0-13.5-0.5-17.2-1V236.2z M175.4,290.9c1.3,0.2,3.4,0.3,5.3,0.3
			c13.7,0.1,22.7-7.5,22.7-23.5c0-13.9-8.1-21.2-21.1-21.2c-3.3,0-5.5,0.3-6.9,0.6V290.9z"/>
		<path class="st0" d="M310.7,268.1c0,22-13.3,35.3-32.9,35.3c-19.9,0-31.6-15-31.6-34.1c0-20,12.9-35.1,32.6-35.1
			C299.5,234.2,310.7,249.6,310.7,268.1z M262.3,269c0,13.1,6.2,22.4,16.3,22.4c10.2,0,16.1-9.7,16.1-22.7
			c0-12.1-5.7-22.4-16.1-22.4C268.3,246.2,262.3,255.9,262.3,269z"/>
		<path class="st0" d="M389.8,300.5c-2.7,1.3-9.1,2.9-17.1,2.9c-23.2,0-35.2-14.5-35.2-33.6c0-22.9,16.4-35.5,36.6-35.5
			c7.9,0,13.9,1.5,16.5,3l-3.1,12c-3-1.3-7.3-2.5-12.7-2.5c-12,0-21.3,7.3-21.3,22.2c0,13.4,7.9,21.9,21.4,21.9
			c4.6,0,9.7-0.9,12.7-2.2L389.8,300.5z"/>
	</g>
</g>
</svg>
