<?xml version="1.0" encoding="utf-8"?>
<!-- Generator: Adobe Illustrator 22.0.0, SVG Export Plug-In . SVG Version: 6.00 Build 0)  -->
<svg version="1.1" id="Capa_1" xmlns="http://www.w3.org/2000/svg" xmlns:xlink="http://www.w3.org/1999/xlink" x="0px" y="0px"
	 viewBox="0 0 457.5 512" style="enable-background:new 0 0 457.5 512;" xml:space="preserve">
<style type="text/css">
	.st0{fill:#ED7902;}
	.st1{fill:#FFDEC0;}
</style>
<g>
	<path class="st0" d="M343.9,510H59.4C28.3,510,3,484.7,3,453.6V59.4C3,28.3,28.3,3,59.4,3h200.7c14.4,0,28.1,5.4,38.6,15.3
		l83.8,78.6c11.3,10.6,17.8,25.6,17.8,41.2v12.9c0,7.6-6.1,13.7-13.7,13.7c-7.6,0-13.7-6.1-13.7-13.7V138c0-8-3.3-15.7-9.2-21.2
		L280,38.3c-5.4-5.1-12.5-7.9-19.9-7.9H59.4c-16,0-29,13-29,29v394.1c0,16,13,29,29,29h284.5c16,0,29-13,29-29V225.5
		c0-7.6,6.1-13.7,13.7-13.7c7.6,0,13.7,6.1,13.7,13.7v228.1C400.4,484.7,375.1,510,343.9,510L343.9,510z M343.9,510"/>
	<path class="st1" d="M401.2,369.8H150.1c-21.5,0-38.9-17.4-38.9-38.9V207.6c0-21.5,17.4-38.9,38.9-38.9h251.1
		c21.5,0,38.9,17.4,38.9,38.9v123.3C440.1,352.4,422.7,369.8,401.2,369.8L401.2,369.8z M401.2,369.8"/>
	<path class="st0" d="M401.2,383.5H150.1c-29,0-52.6-23.6-52.6-52.6V207.6c0-29,23.6-52.6,52.6-52.6h251.1c29,0,52.6,23.6,52.6,52.6
		v123.3C453.8,359.9,430.2,383.5,401.2,383.5L401.2,383.5z M150.1,182.4c-13.9,0-25.2,11.3-25.2,25.2v123.3
		c0,13.9,11.3,25.2,25.2,25.2h251.1c13.9,0,25.2-11.3,25.2-25.2V207.6c0-13.9-11.3-25.2-25.2-25.2H150.1z M150.1,182.4"/>
</g>
<g>
	<g>
		<path class="st0" d="M191.4,235.3h15.2v42.4c0,19-9.1,25.7-23.8,25.7c-3.5,0-8.1-0.6-11.1-1.6l1.7-12.2c2.1,0.6,4.8,1.2,7.7,1.2
			c6.4,0,10.4-2.8,10.4-13.3V235.3z"/>
		<path class="st0" d="M239,236.2c4.7-0.8,11.2-1.4,20.5-1.4c9.3,0,16,1.8,20.5,5.4c4.3,3.3,7.1,8.9,7.1,15.5
			c0,6.6-2.1,12.2-6.1,15.9c-5.2,4.9-12.9,7.1-21.8,7.1c-2,0-3.8-0.1-5.2-0.3v24h-15V236.2z M254,266.6c1.3,0.3,2.8,0.4,5,0.4
			c8,0,13-4.1,13-10.9c0-6.2-4.2-9.8-11.9-9.8c-3,0-5.1,0.2-6.2,0.5V266.6z"/>
		<path class="st0" d="M372.6,299.2c-4.7,1.6-13.5,3.8-22.4,3.8c-12.2,0-21.1-3.1-27.2-9c-6.2-5.8-9.5-14.5-9.5-24.4
			c0.1-22.3,16.3-35,38.3-35c8.7,0,15.3,1.6,18.6,3.2l-3.2,12.1c-3.7-1.6-8.2-2.8-15.6-2.8c-12.6,0-22.2,7.1-22.2,21.7
			c0,13.8,8.7,21.9,21.1,21.9c3.4,0,6.2-0.4,7.4-0.9v-14.1h-10.4v-11.8h25V299.2z"/>
	</g>
</g>
</svg>
