<?xml version="1.0" encoding="utf-8"?>
<!-- Generator: Adobe Illustrator 22.0.0, SVG Export Plug-In . SVG Version: 6.00 Build 0)  -->
<svg version="1.1" id="Capa_1" xmlns="http://www.w3.org/2000/svg" xmlns:xlink="http://www.w3.org/1999/xlink" x="0px" y="0px"
	 viewBox="0 0 459.5 512" style="enable-background:new 0 0 459.5 512;" xml:space="preserve">
<style type="text/css">
	.st0{fill:#FF0000;}
	.st1{fill:#FFC2C2;}
</style>
<g>
	<path class="st0" d="M345.9,510H61.4C30.3,510,5,484.7,5,453.6V59.4C5,28.3,30.3,3,61.4,3h200.7c14.4,0,28.1,5.4,38.6,15.3
		l83.8,78.6c11.3,10.6,17.8,25.6,17.8,41.2v12.9c0,7.6-6.1,13.7-13.7,13.7c-7.6,0-13.7-6.1-13.7-13.7V138c0-8-3.3-15.7-9.2-21.2
		L282,38.3c-5.4-5.1-12.5-7.9-19.9-7.9H61.4c-16,0-29,13-29,29v394.1c0,16,13,29,29,29h284.5c16,0,29-13,29-29V225.5
		c0-7.6,6.1-13.7,13.7-13.7c7.6,0,13.7,6.1,13.7,13.7v228.1C402.4,484.7,377.1,510,345.9,510L345.9,510z M345.9,510"/>
	<path class="st1" d="M403.2,369.8H152.1c-21.5,0-38.9-17.4-38.9-38.9V207.6c0-21.5,17.4-38.9,38.9-38.9h251.1
		c21.5,0,38.9,17.4,38.9,38.9v123.3C442.1,352.4,424.7,369.8,403.2,369.8L403.2,369.8z M403.2,369.8"/>
	<path class="st0" d="M403.2,383.5H152.1c-29,0-52.6-23.6-52.6-52.6V207.6c0-29,23.6-52.6,52.6-52.6h251.1c29,0,52.6,23.6,52.6,52.6
		v123.3C455.8,359.9,432.2,383.5,403.2,383.5L403.2,383.5z M152.1,182.4c-13.9,0-25.2,11.3-25.2,25.2v123.3
		c0,13.9,11.3,25.2,25.2,25.2h251.1c13.9,0,25.2-11.3,25.2-25.2V207.6c0-13.9-11.3-25.2-25.2-25.2H152.1z M152.1,182.4"/>
</g>
<g>
	<g>
		<path class="st0" d="M170.3,235.2c4.7-0.8,11.2-1.4,20.5-1.4c9.3,0,16,1.8,20.5,5.4c4.3,3.3,7.1,8.9,7.1,15.5
			c0,6.6-2.1,12.2-6.1,15.9c-5.2,4.9-12.9,7.1-21.8,7.1c-2,0-3.8-0.1-5.2-0.3v24h-15V235.2z M185.3,265.6c1.3,0.3,2.8,0.4,5,0.4
			c8,0,13-4.1,13-10.9c0-6.2-4.2-9.8-11.9-9.8c-3,0-5.1,0.2-6.2,0.5V265.6z"/>
		<path class="st0" d="M247.9,235.2c5.6-0.9,12.8-1.4,20.4-1.4c12.7,0,21,2.3,27.4,7.2c7,5.2,11.3,13.4,11.3,25.2
			c0,12.8-4.6,21.7-11.1,27.1c-7,5.9-17.8,8.7-30.9,8.7c-7.9,0-13.5-0.5-17.2-1V235.2z M263,289.9c1.3,0.2,3.4,0.3,5.3,0.3
			c13.7,0.1,22.7-7.5,22.7-23.5c0-13.9-8.1-21.2-21.1-21.2c-3.3,0-5.5,0.3-6.9,0.6V289.9z"/>
		<path class="st0" d="M337,234.3H378v12.4h-25.8v15.4h24.1v12.3h-24.1v26.9H337V234.3z"/>
	</g>
</g>
</svg>
